<?xml version="1.0" standalone="no"?>
<!DOCTYPE svg PUBLIC "-//W3C//DTD SVG 1.1//EN" "http://www.w3.org/Graphics/SVG/1.1/DTD/svg11.dtd" >
<svg xmlns="http://www.w3.org/2000/svg" xmlns:xlink="http://www.w3.org/1999/xlink" version="1.1">
<metadata>
Created by FontForge 20170731 at Tue Feb  2 11:50:31 2016
 By Aleksey,,,
Web use only; not licensed for further use or distribution by website users.
</metadata>
<defs>
<font id="Munged-npFHCrWQtR" horiz-adv-x="1536" >
  <font-face 
    font-family="Webtype - web use only"
    font-weight="700"
    font-stretch="normal"
    units-per-em="2048"
    panose-1="2 0 5 5 0 0 0 2 0 4"
    ascent="1638"
    descent="-410"
    x-height="1159"
    cap-height="1518"
    bbox="-176 -676 3533 2165"
    underline-thickness="50"
    underline-position="-175"
    unicode-range="U+0020-FB04"
  />
<missing-glyph horiz-adv-x="1024" 
 />
    <glyph glyph-name="f_f" unicode="ff" horiz-adv-x="1647" 
d="M1008 885h-418v-885h-320v885h-219v274h219v55q0 99 20.5 176t70.5 130q50 52 135 79t213 27q56 0 90.5 -1.5t62.5 -2.5v-262h-110q-49 0 -80.5 -9.5t-49.5 -27.5t-25 -45t-7 -61v-58h418v55q0 99 20.5 176t70.5 130q50 52 134.5 79t212.5 27q57 0 91.5 -1t61.5 -3v-262
h-110q-49 0 -80 -9.5t-49 -27.5t-24.5 -45t-6.5 -61v-58h270v-274h-270v-885h-321v885z" />
    <glyph glyph-name="fi" unicode="fi" horiz-adv-x="1468" 
d="M51 1159h219v55q0 99 20.5 176t70.5 130q50 52 135 79t213 27q56 0 90.5 -1.5t62.5 -2.5v-262h-110q-49 0 -80.5 -9.5t-49.5 -27.5t-25 -45t-7 -61v-58h272v-274h-272v-885h-320v885h-219v274zM1008 1159h321v-1159h-321v1159zM1006 1559h325v-293h-325v293z" />
    <glyph glyph-name="fl" unicode="fl" horiz-adv-x="1565" 
d="M51 1159h219v55q0 99 20.5 176t70.5 130q50 52 135 79t213 27q56 0 90.5 -1.5t62.5 -2.5v-262h-110q-49 0 -80.5 -9.5t-49.5 -27.5t-25 -45t-7 -61v-58h272v-274h-272v-885h-320v885h-219v274zM1325 -4q-78 0 -137.5 17t-99.5 58q-40 40 -60 108t-20 171v1239h321v-1200
q0 -35 4 -58.5t17 -37.5q12 -14 34 -19.5t58 -5.5h39v-264q-20 -3 -63 -5.5t-93 -2.5v0z" />
    <glyph glyph-name="f_f_i" unicode="ffi" horiz-adv-x="2206" 
d="M1008 885h-418v-885h-320v885h-219v274h219v55q0 99 20.5 176t70.5 130q50 52 135 79t213 27q56 0 90.5 -1.5t62.5 -2.5v-262h-110q-49 0 -80.5 -9.5t-49.5 -27.5t-25 -45t-7 -61v-58h418v55q0 99 20.5 176t70.5 130q50 52 134.5 79t212.5 27q57 0 91.5 -1t61.5 -3v-262
h-110q-49 0 -80 -9.5t-49 -27.5t-24.5 -45t-6.5 -61v-58h270v-274h-270v-885h-321v885zM1745 1159h321v-1159h-321v1159zM1743 1559h325v-293h-325v293z" />
    <glyph glyph-name="f_f_l" unicode="ffl" horiz-adv-x="2304" 
d="M1008 885h-418v-885h-320v885h-219v274h219v55q0 99 20.5 176t70.5 130q50 52 135 79t213 27q56 0 90.5 -1.5t62.5 -2.5v-262h-110q-49 0 -80.5 -9.5t-49.5 -27.5t-25 -45t-7 -61v-58h418v55q0 99 20.5 176t70.5 130q50 52 134.5 79t212.5 27q57 0 91.5 -1t61.5 -3v-262
h-110q-49 0 -80 -9.5t-49 -27.5t-24.5 -45t-6.5 -61v-58h270v-274h-270v-885h-321v885zM2062 -4q-78 0 -137.5 17t-99.5 58q-40 40 -60 108t-20 171v1239h321v-1200q0 -35 4 -58.5t17 -37.5q12 -14 34 -19.5t58 -5.5h39v-264q-19 -3 -62.5 -5.5t-93.5 -2.5v0z" />
    <glyph glyph-name="f_j" unicode="fj" horiz-adv-x="1468" 
d="M51 1159h219v55q0 99 20.5 176t70.5 130q50 52 135 79t213 27q56 0 90.5 -1.5t62.5 -2.5v-262h-110q-49 0 -80.5 -9.5t-49.5 -27.5t-25 -45t-7 -61v-58h272v-274h-272v-885h-320v885h-219v274zM874 -102h27q36 0 57 6.5t33 22.5q11 17 14 46t3 74v1112h321v-1110
q0 -117 -17.5 -193.5t-62.5 -121.5t-121.5 -62.5t-193.5 -17.5h-60v244zM1006 1559h325v-293h-325v293z" />
    <glyph glyph-name="f_t" unicode="ft" horiz-adv-x="1686" 
d="M1403 -4q-117 0 -195 20.5t-124 64.5q-47 44 -66 113t-19 166v525h-409v-885h-320v885h-219v274h219v55q0 99 20.5 176t70.5 130q50 52 135 79t213 27q56 0 90.5 -1.5t62.5 -2.5v-262h-110q-49 0 -80.5 -9.5t-49.5 -27.5t-25 -45t-7 -61v-58h424l55 283l250 51v-334h274
v-274h-274v-477q0 -34 4 -60t20 -44q15 -18 45 -27t82 -9h123v-268q-18 -2 -41.5 -2.5t-49.5 -1.5h-52h-47v0z" />
    <glyph glyph-name=".notdef" horiz-adv-x="1024" 
 />
    <glyph glyph-name=".null" horiz-adv-x="0" 
 />
    <glyph glyph-name="nonmarkingreturn" horiz-adv-x="440" 
 />
    <glyph glyph-name="space" unicode=" " horiz-adv-x="440" 
 />
    <glyph glyph-name="exclam" unicode="!" horiz-adv-x="823" 
d="M223 360h373v-360h-373v360zM236 1518h352l-35 -1041h-287z" />
    <glyph glyph-name="quotedbl" unicode="&#x22;" horiz-adv-x="1184" 
d="M174 1518h334l-19 -703h-294zM674 1518h336l-21 -703h-295z" />
    <glyph glyph-name="numbersign" unicode="#" horiz-adv-x="1642" 
d="M338 365h-223v278h276l33 180h-309v281h364l80 414h307l-82 -414h203l80 414h305l-78 -414h236v-281h-289l-33 -180h322v-278h-377l-70 -365h-307l70 365h-201l-70 -365h-307zM922 627l41 215h-252l-41 -215h252z" />
    <glyph glyph-name="dollar" unicode="$" horiz-adv-x="1405" 
d="M559 4q-66 6 -131.5 18t-128.5 32q-63 19 -121.5 46t-109.5 62l135 223q60 -37 119 -62t119 -40q59 -16 119.5 -22.5t123.5 -6.5q93 0 153 13t96 37q35 24 48.5 59t13.5 79q0 52 -18.5 85.5t-57.5 54.5q-40 21 -102 34t-149 25q-66 10 -130.5 21.5t-123.5 31.5
q-59 19 -109.5 48t-87.5 74q-38 45 -59 107.5t-21 149.5q0 103 27 180t80 131q53 53 132 84.5t183 42.5v152h295v-150q65 -6 120 -17.5t102 -26.5q46 -16 84.5 -34t70.5 -36l-137 -238q-33 21 -78.5 38t-97.5 29t-106 18.5t-105 6.5q-80 0 -130.5 -11t-79.5 -32t-40 -51
t-11 -67q0 -53 21.5 -84.5t64.5 -51.5t108 -32.5t151 -26.5q65 -10 128.5 -23t120.5 -32q56 -20 104 -50t83 -74q34 -45 53.5 -106.5t19.5 -144.5q0 -95 -25 -173t-79 -136q-54 -59 -138.5 -97t-203.5 -53v-201h-295v197z" />
    <glyph glyph-name="percent" unicode="%" horiz-adv-x="2554" 
d="M553 539q-119 0 -210 33.5t-152 97.5q-62 64 -93.5 157t-31.5 213q0 118 31.5 211t93.5 158q61 64 152 98.5t210 34.5q116 0 205.5 -34t151.5 -98q61 -65 92.5 -158.5t31.5 -211.5q0 -120 -31.5 -213t-92.5 -157q-62 -64 -151.5 -97.5t-205.5 -33.5v0zM553 778
q54 0 91.5 18.5t60.5 53.5q23 34 33 82t10 108q0 58 -10.5 105t-33.5 80t-60 51t-91 18t-92.5 -17.5t-62.5 -50.5t-35 -80t-11 -106q0 -60 10.5 -108t34.5 -82q24 -35 62.5 -53.5t93.5 -18.5v0zM2003 -18q-117 0 -207.5 33.5t-151.5 98.5q-61 64 -92.5 157.5t-31.5 213.5
q0 118 31.5 211t92.5 158q61 64 151.5 98.5t207.5 34.5t207 -34.5t152 -98.5q61 -65 92.5 -158t31.5 -211q0 -120 -31.5 -213.5t-92.5 -157.5q-62 -65 -152 -98.5t-207 -33.5v0zM2003 221q55 0 92.5 18.5t61.5 53.5q23 34 33 83t10 109q0 58 -10.5 104.5t-33.5 79.5
t-61 50.5t-92 17.5t-91.5 -17.5t-60.5 -49.5q-24 -33 -34.5 -80t-10.5 -105q0 -60 10.5 -109t33.5 -83q23 -35 61 -53.5t92 -18.5v0zM1550 1520h299l-850 -1520h-297z" />
    <glyph glyph-name="ampersand" unicode="&#x26;" horiz-adv-x="1737" 
d="M662 -18q-147 0 -257.5 22.5t-183.5 74.5q-74 52 -110.5 137t-36.5 210q0 86 25 152.5t68 118.5q42 52 98 91t118 70q-32 72 -50 145t-18 144q0 100 30.5 174.5t86.5 123.5q55 49 134 73t177 24q196 0 298 -94t102 -301q0 -81 -28 -143.5t-74 -110.5q-47 -49 -108 -85.5
t-126 -66.5q37 -46 76 -88t80 -80q34 -32 66 -59.5t63 -50.5q51 83 91.5 197.5t82.5 261.5l270 -64q-45 -168 -94.5 -301.5t-114.5 -237.5q78 -30 139 -37.5t117 -7.5h14v-274h-26q-65 0 -123.5 3.5t-114.5 14.5q-56 10 -110.5 28.5t-110.5 47.5q-88 -57 -198 -84.5
t-252 -27.5v0zM662 233q57 0 107.5 8t94.5 23q-35 31 -73 64t-78 73q-54 51 -104 108.5t-93 119.5q-57 -37 -93 -85t-36 -114q0 -41 8 -76.5t36 -62.5t82.5 -42.5t148.5 -15.5v0zM618 1147q0 -45 15 -95t41 -104q41 19 76 40t61 45q25 24 39 52t14 62q0 65 -25.5 98
t-95.5 33q-71 0 -98 -33t-27 -98v0z" />
    <glyph glyph-name="quotesingle" unicode="'" horiz-adv-x="686" 
d="M174 1520h334l-19 -705h-294z" />
    <glyph glyph-name="parenleft" unicode="(" horiz-adv-x="1067" 
d="M631 -393q-72 61 -148 157t-137 223q-62 128 -101.5 287t-39.5 347q0 114 18 222.5t50 208.5q31 99 72.5 187.5t89.5 163.5q47 75 97.5 134.5t98.5 100.5l233 -149q-58 -64 -116.5 -145t-105.5 -186q-48 -105 -77.5 -237t-29.5 -298q0 -168 32 -304.5t81 -243.5
q49 -108 107 -187.5t109 -131.5z" />
    <glyph glyph-name="parenright" unicode=")" horiz-adv-x="1067" 
d="M205 -244q57 64 115.5 144.5t105.5 185.5q47 104 76.5 236t29.5 299q0 166 -32 303.5t-81 245.5t-106 188t-108 131l229 149q48 -41 98.5 -97t98.5 -127q47 -71 89 -156.5t74 -184.5q31 -100 49.5 -212.5t18.5 -237.5q0 -115 -18.5 -223.5t-49.5 -207.5
q-32 -99 -74 -187.5t-89 -163.5q-48 -74 -98.5 -133.5t-98.5 -100.5z" />
    <glyph glyph-name="asterisk" unicode="*" horiz-adv-x="1247" 
d="M526 817l-284 -190l-127 229l311 143l-311 148l125 227l286 -192l-28 338h250l-29 -342l287 196l127 -225l-314 -150l314 -145l-125 -225l-289 192l26 -338h-247z" />
    <glyph glyph-name="plus" unicode="+" horiz-adv-x="1479" 
d="M580 578h-390v288h390v387h319v-387h389v-288h-389v-390h-319v390z" />
    <glyph glyph-name="comma" unicode="," horiz-adv-x="600" 
d="M123 -164q52 25 84.5 43t50.5 35t24.5 37t6.5 49h-176v369h372v-263q0 -61 -3.5 -109t-14.5 -87q-11 -38 -30.5 -68.5t-50.5 -57.5q-32 -27 -77.5 -52t-107.5 -51z" />
    <glyph glyph-name="hyphen" unicode="-" horiz-adv-x="870" 
d="M78 815h710v-287h-710v287z" />
    <glyph glyph-name="hyphen" unicode="&#x2011;" horiz-adv-x="870" 
d="M78 815h710v-287h-710v287z" />
    <glyph glyph-name="hyphen" unicode="&#x2010;" horiz-adv-x="870" 
d="M78 815h710v-287h-710v287z" />
    <glyph glyph-name="hyphen" unicode="&#xad;" horiz-adv-x="870" 
d="M78 815h710v-287h-710v287z" />
    <glyph glyph-name="period" unicode="." horiz-adv-x="600" 
d="M113 369h372v-369h-372v369z" />
    <glyph glyph-name="slash" unicode="/" horiz-adv-x="1176" 
d="M848 1518h328l-848 -1518h-328z" />
    <glyph glyph-name="zero" unicode="0" horiz-adv-x="1581" 
d="M793 -23q-183 0 -310 50.5t-206 149.5t-114.5 245.5t-35.5 337.5q0 192 35.5 338t114.5 245t206 149t310 50q180 0 305.5 -50t204.5 -149t115 -245t36 -338q0 -191 -36 -337.5t-115 -245.5t-204.5 -149.5t-305.5 -50.5v0zM793 256q99 0 163 33.5t101 98.5q36 64 50.5 158
t14.5 214t-14.5 211.5t-50.5 153.5q-37 61 -101 92.5t-163 31.5q-100 0 -165 -31.5t-102 -92.5q-38 -62 -52.5 -153.5t-14.5 -211.5t14.5 -214t52.5 -158q37 -65 102 -98.5t165 -33.5v0z" />
    <glyph glyph-name="one" unicode="1" horiz-adv-x="850" 
d="M322 1229h-259v289h574v-1518h-315v1229z" />
    <glyph glyph-name="two" unicode="2" horiz-adv-x="1321" 
d="M68 252l495 428q86 75 145 129t96 99q36 45 52 86.5t16 90.5q0 45 -11.5 78.5t-40.5 55.5q-30 22 -80 32.5t-128 10.5q-55 0 -113 -7.5t-113 -20.5t-103 -30.5t-82 -36.5l-146 248q61 31 120.5 55t128.5 40q68 16 150.5 24t190.5 8q136 0 238.5 -23.5t171.5 -74.5
q68 -51 102.5 -132t34.5 -196q0 -87 -21.5 -159t-65.5 -139q-44 -68 -111 -135.5t-158 -145.5l-314 -271h686v-266h-1140v252z" />
    <glyph glyph-name="three" unicode="3" horiz-adv-x="1331" 
d="M643 -25q-106 0 -193 10t-163 31q-76 20 -144 51t-135 72l150 242q58 -33 114.5 -58.5t114.5 -42.5q57 -18 116.5 -27t123.5 -9q78 0 133 10t90 35q35 24 51.5 67t16.5 109q0 57 -14 97t-49 65q-36 25 -96.5 36t-152.5 11h-266v270h262q77 0 129 8t84 27t45.5 51.5
t13.5 81.5q0 45 -12 75t-41 48t-78 25.5t-122 7.5q-54 0 -111.5 -7.5t-111.5 -21.5q-55 -14 -103.5 -33.5t-85.5 -42.5l-164 236q57 35 126.5 62t147.5 45q77 18 161 27t171 9q131 0 231.5 -18.5t169.5 -61.5q68 -43 103 -112.5t35 -171.5q0 -79 -10.5 -137t-32.5 -99
q-22 -42 -56 -69t-81 -44q57 -15 99 -42.5t69 -72.5q27 -46 40 -113t13 -161q0 -139 -43.5 -229t-121.5 -142q-78 -53 -186 -73.5t-237 -20.5v0z" />
    <glyph glyph-name="four" unicode="4" horiz-adv-x="1434" 
d="M70 551l665 967h344l-657 -949h426l65 432h226v-432h241v-258h-241v-311h-295v311h-774v240z" />
    <glyph glyph-name="five" unicode="5" horiz-adv-x="1376" 
d="M682 -23q-108 0 -197.5 13.5t-164.5 36.5q-75 22 -136 52t-112 62l149 242q46 -26 96.5 -50.5t106.5 -44.5t118.5 -32t131.5 -12q64 0 121 8t100 34t67.5 76t24.5 134q0 82 -23.5 132t-64.5 77t-96 36t-119 9q-91 0 -157 -13t-124 -41l-268 80l39 742h1016v-275h-744
l-16 -285q51 25 137.5 40.5t196.5 15.5q72 0 140.5 -7t129.5 -26q60 -19 110.5 -54.5t87.5 -91.5q36 -56 56.5 -137t20.5 -192q0 -113 -21 -196t-60 -141q-40 -59 -96 -96.5t-125 -58.5q-70 -21 -152 -29t-173 -8v0z" />
    <glyph glyph-name="six" unicode="6" horiz-adv-x="1493" 
d="M784 -23q-179 0 -305 42.5t-206 127.5t-117 212t-37 296q0 156 16.5 280.5t57.5 220.5t109.5 164.5t172.5 112.5t246.5 64.5t331.5 20.5h141v-275h-152q-141 0 -239 -14t-164 -38q-66 -25 -104 -58.5t-58 -72.5t-27.5 -83t-11.5 -88q26 35 66 61t96 44q56 17 128 25.5
t163 8.5q147 0 245 -34.5t157 -99.5q59 -66 83.5 -160.5t24.5 -215.5q0 -128 -32 -228t-105 -170t-191 -106.5t-289 -36.5v0zM786 240q94 0 153 19t92 54q33 34 44.5 83t11.5 110t-13.5 111t-47.5 85q-34 34 -92 53t-146 19q-165 0 -250 -62t-85 -190q0 -77 20.5 -130.5
t62.5 -87.5q41 -34 103.5 -49t146.5 -15v0z" />
    <glyph glyph-name="seven" unicode="7" horiz-adv-x="1206" 
d="M803 1243h-780v275h1132v-234l-551 -1284h-338z" />
    <glyph glyph-name="eight" unicode="8" horiz-adv-x="1513" 
d="M756 -33q-186 0 -311.5 36.5t-201.5 99.5t-108.5 146.5t-32.5 178.5q0 67 11.5 130t40.5 116q28 53 74.5 93.5t117.5 63.5q-60 24 -97.5 58t-58.5 75t-28.5 89t-7.5 100q0 77 25.5 147.5t92.5 124.5q67 53 184 85t300 32q184 0 301.5 -32t184.5 -86t92.5 -124.5
t25.5 -146.5q0 -52 -8.5 -100.5t-29.5 -90.5q-22 -42 -60 -75.5t-97 -55.5q72 -23 120 -63.5t77 -93.5q28 -53 39.5 -116t11.5 -130q0 -95 -33 -178.5t-109 -146.5q-77 -63 -203 -99.5t-312 -36.5v0zM756 225q91 0 154 16t103 46q39 30 56.5 72.5t17.5 95.5q0 54 -17.5 97
t-56.5 73q-40 30 -103 45.5t-154 15.5q-92 0 -154.5 -15.5t-100.5 -45.5q-39 -30 -56 -73t-17 -97q0 -53 17 -95.5t56 -72.5q38 -30 100.5 -46t154.5 -16v0zM756 930q84 0 140 12.5t90 36.5q33 23 47 56t14 75q0 41 -14 73.5t-47 55.5q-34 23 -90 35t-140 12
q-85 0 -140.5 -12t-88.5 -35t-46.5 -55.5t-13.5 -73.5q0 -42 13.5 -75t46.5 -56q33 -24 88.5 -36.5t140.5 -12.5v0z" />
    <glyph glyph-name="nine" unicode="9" horiz-adv-x="1493" 
d="M315 266h154q143 0 242 14t165 39t104 59t58 74q19 39 25 83t10 88q-52 -71 -161.5 -104.5t-290.5 -33.5q-147 0 -245 36.5t-157 103.5t-83.5 161t-24.5 209q0 127 32 228.5t105 172.5q72 71 190 108.5t289 37.5q179 0 305.5 -42.5t206.5 -127.5t117 -212t37 -296
q0 -155 -16.5 -279.5t-56.5 -220.5q-41 -96 -109.5 -165t-172.5 -113t-247 -65t-332 -21h-144v266zM723 733q165 0 250.5 61t85.5 189q0 77 -21 131t-62 88q-42 33 -104 48.5t-145 15.5q-95 0 -154.5 -18.5t-92.5 -53.5t-44.5 -84.5t-11.5 -110.5t14 -110.5t48 -83.5
q34 -35 91.5 -53.5t145.5 -18.5v0z" />
    <glyph glyph-name="colon" unicode=":" horiz-adv-x="641" 
d="M133 356h373v-356h-373v356zM133 1159h373v-356h-373v356z" />
    <glyph glyph-name="semicolon" unicode=";" horiz-adv-x="641" 
d="M143 -164q52 25 84.5 43t50.5 35t24.5 37t6.5 49h-176v356h373v-250q0 -81 -9.5 -143t-39.5 -112q-30 -49 -86 -89.5t-150 -80.5zM133 1159h373v-356h-373v356z" />
    <glyph glyph-name="less" unicode="&#x3c;" horiz-adv-x="1479" 
d="M227 600v219l944 467v-289l-608 -286l608 -289v-293z" />
    <glyph glyph-name="equal" unicode="=" horiz-adv-x="1479" 
d="M203 616h1075v-286h-1075v286zM203 1112h1075v-285h-1075v285z" />
    <glyph glyph-name="greater" unicode="&#x3e;" horiz-adv-x="1479" 
d="M307 422l611 285l-611 288v291l946 -469v-221l-946 -467v293z" />
    <glyph glyph-name="question" unicode="?" horiz-adv-x="1438" 
d="M520 440q-15 105 -10.5 176.5t33.5 123.5q29 51 84.5 89t142.5 76q65 29 105.5 51.5t63.5 44.5q22 22 30 47.5t8 61.5q0 34 -9 61t-36 46q-28 19 -79.5 28.5t-135.5 9.5q-127 0 -235 -27.5t-199 -72.5l-136 266q55 28 124.5 50t146.5 38t159.5 24.5t163.5 8.5
q144 0 251 -22t178 -70q70 -49 104.5 -125.5t34.5 -185.5q0 -85 -19 -146t-55 -106t-89 -78.5t-120 -63.5q-73 -32 -114.5 -57t-60.5 -56t-21 -75.5t4 -116.5h-314zM489 322h373v-322h-373v322z" />
    <glyph glyph-name="at" unicode="@" horiz-adv-x="2177" 
d="M1122 -338q-236 0 -419 49.5t-308 160.5t-189.5 289t-64.5 435q0 262 70 442.5t196 293.5q125 112 298.5 162t379.5 50q141 0 267 -21.5t232 -68.5q106 -48 190 -122.5t143 -179.5q58 -105 89.5 -243.5t31.5 -312.5q0 -156 -18.5 -259.5t-64.5 -164.5q-46 -62 -123 -87.5
t-194 -25.5q-86 0 -141.5 13.5t-89.5 35.5q-35 22 -51.5 50t-24.5 57q-22 -32 -50.5 -58t-70.5 -44q-42 -19 -101 -29t-142 -10q-130 0 -215 41.5t-135 114.5q-51 72 -71 169.5t-20 208.5t22 207.5t75 168.5q52 72 140 113.5t220 41.5q78 0 132 -7.5t92 -23.5
q37 -16 62 -39.5t44 -54.5l71 108l189 -16v-737q1 -32 5.5 -59.5t18.5 -47.5t40 -31.5t69 -11.5q54 0 85.5 19t47.5 63q15 44 19 116t4 179q0 218 -53.5 367.5t-153.5 241.5q-100 91 -244.5 131t-325.5 40q-172 0 -313.5 -40t-242.5 -131q-101 -92 -156.5 -241.5
t-55.5 -367.5q0 -211 54.5 -357t157.5 -237t252 -131.5t339 -40.5q73 0 147 8t144 23t133.5 35.5t114.5 46.5l74 -150q-124 -62 -279 -96.5t-332 -34.5v0zM1038 313q68 0 116 18t78 55q30 36 44 91.5t14 130.5q0 74 -12.5 126t-41.5 85q-30 33 -78 48.5t-120 15.5
q-66 0 -109.5 -20t-68.5 -56q-26 -36 -36.5 -87t-10.5 -112q0 -62 10.5 -116t36.5 -94q25 -40 68.5 -62.5t109.5 -22.5v0z" />
    <glyph glyph-name="A" unicode="A" horiz-adv-x="1618" 
d="M637 1528h340l612 -1528h-348l-98 250h-688l-99 -250h-327zM1036 526l-237 604l-238 -604h475z" />
    <glyph glyph-name="B" unicode="B" horiz-adv-x="1546" 
d="M152 1518h704q151 0 260 -22t180 -69q70 -48 103 -122t33 -179q0 -133 -49 -215.5t-154 -119.5q67 -16 113.5 -46t75.5 -76t42 -108t13 -143q0 -124 -39.5 -204.5t-117.5 -127.5q-79 -48 -195 -67t-269 -19h-700v1518zM891 279q64 0 110 9.5t76 30.5q29 20 42.5 52.5
t13.5 79.5q0 46 -13.5 78.5t-42.5 53.5q-29 20 -75 29t-111 9h-410v-342h410zM868 911q67 0 110.5 11t68.5 32t35 52t10 71t-11 69.5t-37 48.5t-69 28.5t-107 9.5h-387v-322h387z" />
    <glyph glyph-name="C" unicode="C" horiz-adv-x="1554" 
d="M850 -23q-213 0 -361.5 51.5t-241.5 151.5t-135 246t-42 334q0 204 54.5 352t157.5 244q102 95 250.5 140.5t337.5 45.5q104 0 190 -14t159 -41q72 -28 132.5 -69t114.5 -95l-231 -231q-35 34 -73 60.5t-82 45.5q-45 18 -97.5 27.5t-114.5 9.5q-121 0 -208 -30.5
t-143 -90.5q-56 -61 -82.5 -150.5t-26.5 -207.5q0 -114 23 -203.5t77 -150.5q54 -62 142.5 -94t219.5 -32q74 0 130 11.5t101 32.5t82 49t72 61l222 -217q-45 -47 -100.5 -89.5t-129.5 -74.5q-74 -33 -171 -52.5t-226 -19.5v0z" />
    <glyph glyph-name="D" unicode="D" horiz-adv-x="1610" 
d="M152 1518h544q224 0 384.5 -34t263.5 -119q102 -86 150 -232.5t48 -372.5q0 -222 -49.5 -368.5t-153.5 -233.5t-265.5 -122.5t-385.5 -35.5h-536v1518zM707 293q155 0 252 25t152 81q54 55 73.5 144t19.5 217q0 85 -7 152.5t-27 118.5q-20 50 -55 85.5t-91 58.5
q-56 22 -135.5 32t-188.5 10h-213v-924h220z" />
    <glyph glyph-name="E" unicode="E" horiz-adv-x="1407" 
d="M152 1518h1140v-304h-805v-294h785v-293h-785v-336h813v-291h-1148v1518z" />
    <glyph glyph-name="F" unicode="F" horiz-adv-x="1335" 
d="M152 1518h1103v-304h-768v-325h748v-299h-748v-590h-335v1518z" />
    <glyph glyph-name="G" unicode="G" horiz-adv-x="1636" 
d="M846 -23q-227 0 -377 51.5t-238 151.5q-89 99 -125 245t-36 335q0 206 52.5 354t154.5 243t250.5 140t340.5 45q115 0 209 -16t169 -44q75 -29 133.5 -68.5t103.5 -86.5l-230 -231q-29 27 -63.5 52.5t-80.5 44.5t-105.5 30.5t-137.5 11.5q-124 0 -211.5 -30.5
t-142.5 -90.5q-55 -61 -80.5 -150.5t-25.5 -207.5q0 -125 20 -218t71 -154q51 -62 139.5 -93t225.5 -31q111 0 184 18.5t117 57.5q44 38 62 96.5t18 138.5v33h-424v279h756v-248q0 -162 -35.5 -285t-119.5 -206q-85 -83 -225 -125t-349 -42v0z" />
    <glyph glyph-name="H" unicode="H" horiz-adv-x="1669" 
d="M152 1518h335v-582h695v582h336v-1518h-336v623h-695v-623h-335v1518z" />
    <glyph glyph-name="I" unicode="I" horiz-adv-x="682" 
d="M174 1518h334v-1518h-334v1518z" />
    <glyph glyph-name="J" unicode="J" horiz-adv-x="932" 
d="M268 -4h-80h-54q-23 1 -43 1.5t-46 2.5v291h182q65 0 109 11t71 36q26 24 37 62t11 92v1026h333v-1039q0 -144 -38.5 -237t-107.5 -148t-164.5 -76.5t-209.5 -21.5v0z" />
    <glyph glyph-name="K" unicode="K" horiz-adv-x="1556" 
d="M698 662l-215 -254v-408h-331v1518h331v-687l576 687h371l-515 -600l588 -918h-379z" />
    <glyph glyph-name="L" unicode="L" horiz-adv-x="1264" 
d="M152 1518h335v-1227h746v-291h-1081v1518z" />
    <glyph glyph-name="M" unicode="M" horiz-adv-x="2003" 
d="M152 1518h438l411 -1037l412 1037h436v-1518h-327v1014l-408 -1014h-254l-405 1008v-1008h-303v1518z" />
    <glyph glyph-name="N" unicode="N" horiz-adv-x="1686" 
d="M152 1518h362l698 -957v957h320v-1518h-307l-752 1024v-1024h-321v1518z" />
    <glyph glyph-name="O" unicode="O" horiz-adv-x="1747" 
d="M872 -25q-181 0 -329 42t-253 136t-162.5 243t-57.5 364q0 213 57.5 362t162.5 243q105 93 253 135t329 42t329.5 -42t254.5 -135q106 -94 163.5 -243t57.5 -362q0 -215 -57.5 -364t-163.5 -243t-254.5 -136t-329.5 -42v0zM872 270q131 0 220 34t144 97q54 63 77.5 152.5
t23.5 200.5t-23.5 200.5t-77.5 151.5q-55 62 -144 95.5t-220 33.5t-219.5 -33.5t-142.5 -95.5q-55 -62 -78.5 -151.5t-23.5 -200.5t23.5 -200.5t78.5 -152.5q54 -63 142.5 -97t219.5 -34v0z" />
    <glyph glyph-name="P" unicode="P" horiz-adv-x="1556" 
d="M152 1518h729q175 0 291.5 -35.5t186.5 -101.5t99 -160t29 -211q0 -78 -12 -148.5t-40 -131.5t-75 -109.5t-116 -83.5t-163 -53.5t-217 -18.5h-385v-465h-327v1518zM879 752q71 0 122.5 13t84.5 42q33 28 49 74t16 112q0 69 -15.5 114.5t-48.5 73.5q-33 27 -85.5 38.5
t-127.5 11.5h-395v-479h400z" />
    <glyph glyph-name="Q" unicode="Q" horiz-adv-x="1747" 
d="M1122 -406q-153 0 -251 23t-152 73q-55 50 -73.5 129.5t-12.5 192.5q-131 22 -235.5 75.5t-177.5 143.5t-111.5 221t-38.5 308q0 213 56.5 362t161.5 243q104 93 252.5 135t331.5 42q184 0 332.5 -42t253.5 -135q105 -94 162 -243t57 -362q0 -203 -51 -345t-145 -232
q-95 -91 -229 -135.5t-300 -51.5q-2 -41 4.5 -66t25.5 -39q18 -14 51.5 -19t86.5 -5h195v-268q-31 -2 -77.5 -3.5t-115.5 -1.5v0zM872 270q133 0 222.5 34t143.5 97t76.5 152.5t22.5 200.5t-22.5 200.5t-76.5 151.5t-143.5 95.5t-222.5 33.5t-222 -33.5t-143 -95.5
t-76.5 -151.5t-22.5 -200.5t22.5 -200.5t76.5 -152.5t143 -97t222 -34v0z" />
    <glyph glyph-name="R" unicode="R" horiz-adv-x="1581" 
d="M819 504h-340v-504h-327v1518h733q179 0 294 -36.5t181 -102.5t91.5 -157t25.5 -200q0 -78 -14.5 -152t-50.5 -137q-37 -63 -99 -112.5t-156 -79.5l301 -541h-358zM874 793q69 0 119 9.5t83 34.5q32 25 47.5 66.5t15.5 106.5q0 66 -15 109t-47 68q-33 24 -84 34t-123 10
h-391v-438h395z" />
    <glyph glyph-name="S" unicode="S" horiz-adv-x="1518" 
d="M768 -23q-227 0 -410 51.5t-313 147.5l168 242q122 -82 260 -122t285 -40q111 0 180 11t108 34q38 22 51 56.5t13 82.5q0 47 -23.5 76.5t-68.5 49.5q-46 19 -113.5 32t-154.5 25q-152 21 -267.5 49.5t-192.5 78.5q-78 50 -117.5 129.5t-39.5 202.5q0 127 38.5 214.5
t117.5 142.5q79 54 197.5 78t279.5 24q116 0 210 -12.5t170 -32.5q75 -21 132.5 -48t101.5 -56l-180 -260q-36 24 -86 45t-107 37q-58 15 -121 24.5t-124 9.5q-89 0 -146.5 -9t-90.5 -28t-45.5 -49t-12.5 -71q0 -46 23.5 -75t69.5 -48q46 -20 114.5 -32.5t159.5 -25.5
t171.5 -28t148.5 -37q67 -22 120.5 -53.5t90.5 -77.5t57 -109.5t20 -148.5q0 -115 -34 -204.5t-113 -150.5t-208 -93t-319 -32v0z" />
    <glyph glyph-name="T" unicode="T" horiz-adv-x="1446" 
d="M555 1214h-526v304h1388v-304h-524v-1214h-338v1214z" />
    <glyph glyph-name="U" unicode="U" horiz-adv-x="1671" 
d="M836 -29q-160 0 -274 25t-191 69q-77 43 -122.5 101.5t-69.5 126.5q-24 67 -31 140.5t-7 146.5v938h336v-895q0 -85 13.5 -151t52.5 -111q39 -46 110 -69.5t187 -23.5q114 0 185.5 22.5t111.5 67.5q39 44 53 110.5t14 154.5v895h326v-938q0 -73 -7 -146.5t-31 -140.5
q-24 -68 -69.5 -126.5t-122.5 -101.5q-77 -44 -190.5 -69t-273.5 -25v0z" />
    <glyph glyph-name="V" unicode="V" horiz-adv-x="1599" 
d="M31 1518h352l424 -1110l422 1110h346l-604 -1528h-340z" />
    <glyph glyph-name="W" unicode="W" horiz-adv-x="2216" 
d="M39 1518h350l283 -975l295 975h303l297 -975l282 975h328l-461 -1528h-297l-311 1020l-311 -1020h-295z" />
    <glyph glyph-name="X" unicode="X" horiz-adv-x="1599" 
d="M784 547l-360 -547h-371l557 797l-499 721h376l326 -467l307 467h371l-506 -715l561 -803h-381z" />
    <glyph glyph-name="Y" unicode="Y" horiz-adv-x="1556" 
d="M610 532l-604 986h361l417 -684l418 684h346l-604 -986v-532h-334v532z" />
    <glyph glyph-name="Z" unicode="Z" horiz-adv-x="1417" 
d="M66 250l833 964h-799v304h1223v-275l-821 -952h844v-291h-1280v250z" />
    <glyph glyph-name="bracketleft" unicode="[" horiz-adv-x="1057" 
d="M223 1589h656v-276h-330v-1383h336v-268h-662v1927z" />
    <glyph glyph-name="backslash" unicode="\" horiz-adv-x="1176" 
d="M0 1518h328l848 -1518h-328z" />
    <glyph glyph-name="bracketright" unicode="]" horiz-adv-x="1057" 
d="M172 -70h334v1383h-330v276h655v-1927h-659v268z" />
    <glyph glyph-name="asciicircum" unicode="^" horiz-adv-x="1208" 
d="M438 1505h332l317 -375h-301l-186 177l-184 -177h-295z" />
    <glyph glyph-name="underscore" unicode="_" horiz-adv-x="928" 
d="M-76 -82h1080v-240h-1080v240z" />
    <glyph glyph-name="grave" unicode="`" horiz-adv-x="1208" 
d="M139 1645h387l289 -375h-285z" />
    <glyph glyph-name="a" unicode="a" horiz-adv-x="1321" 
d="M487 -18q-134 0 -219 27.5t-133 75.5t-66 113.5t-18 141.5q0 123 44 201.5t136 124.5q91 45 231 62t333 17h47q-1 39 -8.5 69t-31.5 50q-24 19 -69.5 29t-120.5 10q-53 0 -102 -8.5t-92 -21.5q-44 -14 -80 -31t-62 -33l-159 235q31 21 83 46t121 46t151.5 35.5
t174.5 14.5q157 0 255 -26t154 -81q55 -56 75 -143.5t20 -210.5v-352q0 -35 2.5 -56t12.5 -32t30 -15t55 -4v-262q-17 -5 -49 -6.5t-86 -1.5q-46 0 -80 5t-59 18q-26 13 -45.5 35.5t-36.5 56.5q-45 -60 -143.5 -94.5t-264.5 -34.5v0zM551 240q76 0 131 13.5t91 43.5
q35 29 52 74.5t17 109.5v43h-27q-102 0 -176 -3t-125 -10t-82 -18.5t-48 -28.5q-17 -18 -22.5 -42t-5.5 -55q0 -32 9.5 -56t32.5 -40t60 -23.5t93 -7.5v0z" />
    <glyph glyph-name="b" unicode="b" horiz-adv-x="1395" 
d="M807 -18q-83 0 -147.5 8t-112.5 24q-49 15 -83.5 37t-57.5 49l-64 -112l-215 22v1579h319v-514q48 56 141 83.5t238 27.5q150 0 246.5 -47.5t152.5 -129.5t77.5 -192t21.5 -235q0 -83 -9.5 -160t-32.5 -144q-24 -67 -62.5 -121.5t-95.5 -93.5t-135.5 -60t-180.5 -21v0z
M745 252q78 0 127 23.5t77 66.5q27 42 37.5 100t10.5 127q0 70 -9.5 129.5t-36.5 102.5q-28 43 -77.5 67.5t-128.5 24.5q-83 0 -139.5 -19.5t-91.5 -59.5t-50 -101t-15 -144t13.5 -143t47.5 -98q33 -39 90.5 -57.5t144.5 -18.5v0z" />
    <glyph glyph-name="c" unicode="c" horiz-adv-x="1202" 
d="M666 -18q-180 0 -295.5 46t-181.5 127q-66 80 -91.5 189.5t-25.5 237.5q0 84 10.5 161.5t36.5 144.5q25 67 69.5 122t112.5 94q67 39 160.5 60.5t218.5 21.5q158 0 274 -49.5t197 -139.5l-225 -213q-18 19 -40.5 38.5t-51.5 34.5q-30 15 -67.5 24.5t-86.5 9.5
q-86 0 -141 -22.5t-87 -63.5q-32 -42 -44.5 -101t-12.5 -131t11.5 -131t43.5 -101q32 -43 87.5 -66t144.5 -23q41 0 75.5 6.5t65.5 20.5t60.5 35.5t60.5 50.5l205 -197q-51 -47 -100 -82t-105 -58t-123.5 -34.5t-154.5 -11.5v0z" />
    <glyph glyph-name="d" unicode="d" horiz-adv-x="1395" 
d="M575 -23q-150 0 -247 48t-154 131t-79.5 194t-22.5 236q0 124 23 233.5t82 191.5q58 81 157.5 128t251.5 47q79 0 138.5 -8.5t102.5 -22.5q43 -15 72 -35t47 -43v512h322v-1577l-246 -22l-33 116q-26 -30 -62.5 -54t-86.5 -40q-50 -17 -115.5 -26t-149.5 -9v0zM651 254
q83 0 139.5 20.5t91.5 61.5q34 41 49 103.5t15 146.5q0 82 -13 141t-46 97q-34 37 -91 55t-145 18q-79 0 -128.5 -22.5t-77.5 -63.5q-28 -42 -38 -99t-10 -126q0 -70 10 -130.5t38 -105.5t77.5 -70.5t128.5 -25.5v0z" />
    <glyph glyph-name="e" unicode="e" horiz-adv-x="1268" 
d="M676 -23q-125 0 -219 22t-161 62q-67 39 -110.5 94.5t-68.5 123.5q-25 67 -35 143.5t-10 159.5q0 81 10 157t36 143q25 67 69 123t111 96q66 40 159 62.5t217 22.5q127 0 216 -27t147 -75q58 -49 90 -116.5t47 -147.5q15 -81 16.5 -172.5t-0.5 -188.5h-807
q7 -53 24.5 -94t51.5 -69q33 -28 86 -43t131 -15q67 0 120 7.5t97 21.5q43 14 79 33.5t68 43.5l162 -209q-56 -42 -113 -72t-120 -49t-135 -28t-158 -9v0zM664 918q-75 0 -126 -16t-83 -46q-33 -30 -49.5 -72.5t-22.5 -95.5h514q-3 50 -12 92t-33 73q-25 31 -69.5 48
t-118.5 17v0z" />
    <glyph glyph-name="f" unicode="f" horiz-adv-x="909" 
d="M51 1159h219v55q0 99 20.5 176t70.5 130q50 52 135 79t213 27q56 0 90.5 -1.5t62.5 -2.5v-262h-110q-49 0 -80.5 -9.5t-49.5 -27.5t-25 -45t-7 -61v-58h272v-274h-272v-885h-320v885h-219v274z" />
    <glyph glyph-name="g" unicode="g" horiz-adv-x="1335" 
d="M641 426q-41 0 -79.5 1.5t-74.5 4.5q-5 -10 -7.5 -20t-2.5 -21q0 -21 8 -33t29 -19t58 -9t96 -2q180 0 296 -15t184 -51q67 -37 93.5 -98.5t26.5 -153.5q0 -104 -38.5 -176t-116.5 -117q-78 -44 -197 -64t-279 -20q-166 0 -280.5 11.5t-185.5 42.5q-72 31 -104 86.5
t-32 142.5q0 98 54 166t173 94q-23 16 -36.5 35t-20.5 40q-8 21 -10 43.5t-2 45.5q0 50 14.5 90.5t42.5 71.5q-78 45 -114 116.5t-36 174.5q0 95 30.5 168.5t96.5 123.5q65 50 167.5 75.5t246.5 25.5h31.5t32.5 -2l516 102v-244h-166q60 -32 94.5 -90t34.5 -159
q0 -95 -31.5 -164.5t-97.5 -114.5q-67 -45 -169.5 -66.5t-244.5 -21.5v0zM649 -145q88 0 145 8.5t89 25.5t44.5 42t12.5 57q0 31 -14 51.5t-47 32.5q-34 12 -90 17t-140 5q-97 0 -154.5 -8t-87.5 -23q-31 -16 -40 -38.5t-9 -51.5q0 -32 12.5 -54t45.5 -37q32 -14 88.5 -20.5
t144.5 -6.5v0zM641 639q66 0 109.5 9.5t70.5 28.5q26 18 36.5 46t10.5 65q0 38 -11.5 66t-37.5 47q-27 19 -70.5 28t-107.5 9q-65 0 -109 -9t-70 -28t-37 -47t-11 -66q0 -37 11 -65t37 -46q26 -19 70 -28.5t109 -9.5v0z" />
    <glyph glyph-name="h" unicode="h" horiz-adv-x="1360" 
d="M127 1589h319v-508q18 19 48.5 38t76.5 34q45 15 107.5 24t144.5 9q132 0 213.5 -35t126.5 -98q45 -64 60.5 -153.5t15.5 -197.5v-702h-319v639q0 53 -5.5 97.5t-26.5 77.5q-22 32 -64 50.5t-115 18.5q-84 0 -135 -19t-79 -53t-37 -81.5t-9 -104.5v-625h-322v1589z" />
    <glyph glyph-name="i" unicode="i" horiz-adv-x="600" 
d="M139 1159h320v-1159h-320v1159zM137 1559h324v-293h-324v293z" />
    <glyph glyph-name="j" unicode="j" horiz-adv-x="600" 
d="M6 -102h25q37 0 58.5 6.5t32.5 22.5q11 17 14 46t3 74v1112h320v-1110q0 -117 -17.5 -193.5t-61.5 -121.5t-120.5 -62.5t-193.5 -17.5h-60v244zM137 1559h324v-293h-324v293z" />
    <glyph glyph-name="k" unicode="k" horiz-adv-x="1239" 
d="M127 1589h317v-909l396 479h350l-389 -473l424 -686h-357l-284 446l-140 -165v-281h-317v1589z" />
    <glyph glyph-name="l" unicode="l" horiz-adv-x="698" 
d="M457 -4q-78 0 -137.5 17t-99.5 58q-40 40 -60.5 108t-20.5 171v1239h320v-1200q0 -35 4.5 -58.5t16.5 -37.5t34.5 -19.5t58.5 -5.5h39v-264q-20 -3 -63 -5.5t-92 -2.5v0z" />
    <glyph glyph-name="m" unicode="m" horiz-adv-x="2103" 
d="M127 1141l250 18l26 -100q19 26 52.5 49t83.5 41q50 17 117.5 27t154.5 10q95 0 154.5 -10t95.5 -28t55 -42t33 -51q22 28 57.5 52t88.5 42q52 17 122 27t162 10q131 0 211 -35t124 -98q43 -64 57 -153.5t14 -197.5v-702h-324v639q0 53 -3.5 97.5t-21.5 77.5
q-19 32 -59 50.5t-113 18.5q-84 0 -133 -19t-74 -53q-26 -34 -33 -81.5t-7 -104.5v-625h-322v639q0 53 -3.5 97.5t-22.5 77.5q-19 32 -59.5 50.5t-113.5 18.5q-84 0 -133 -19t-74 -53q-26 -34 -33 -81.5t-7 -104.5v-625h-322v1141z" />
    <glyph glyph-name="n" unicode="n" horiz-adv-x="1360" 
d="M127 1141l250 18l26 -100q23 25 57 48t84 41q50 17 118.5 27.5t160.5 10.5q132 0 213.5 -35t126.5 -98q45 -64 60.5 -153.5t15.5 -197.5v-702h-319v639q0 53 -5.5 97.5t-26.5 77.5q-22 32 -64 50.5t-115 18.5q-84 0 -135 -19t-79 -53t-37 -81.5t-9 -104.5v-625h-322v1141
z" />
    <glyph glyph-name="o" unicode="o" horiz-adv-x="1354" 
d="M678 -23q-164 0 -279 40t-187 117q-73 77 -106.5 189.5t-33.5 258.5t33.5 258.5t106.5 189.5q72 77 187 116.5t279 39.5q163 0 278 -39.5t188 -116.5q72 -77 105 -189.5t33 -258.5t-33 -258.5t-105 -189.5q-73 -77 -188 -117t-278 -40v0zM678 252q83 0 137.5 22.5
t87.5 64.5q32 42 45 101t13 133t-13 133t-45 101q-33 41 -87.5 63.5t-137.5 22.5q-84 0 -138.5 -22.5t-86.5 -63.5q-32 -42 -45 -101t-13 -133t13 -133t45 -101t86.5 -64.5t138.5 -22.5v0z" />
    <glyph glyph-name="p" unicode="p" horiz-adv-x="1395" 
d="M127 1141l250 18l26 -102q23 27 58 51t86 41q50 17 119 27t161 10q149 0 245.5 -47.5t152.5 -129.5q55 -82 76.5 -192t21.5 -235t-22.5 -234.5t-80.5 -190.5t-157.5 -128t-253.5 -47q-78 0 -137 7.5t-101 21.5q-43 14 -72.5 34t-49.5 45v-428h-322v1479zM745 254
q78 0 127 23.5t77 65.5q27 41 37.5 99t10.5 127q0 70 -9.5 129.5t-36.5 102.5q-28 43 -77.5 67.5t-128.5 24.5q-83 0 -139.5 -19t-91.5 -59t-50 -101t-15 -145q0 -83 13.5 -142.5t47.5 -97.5q33 -39 90.5 -57t144.5 -18v0z" />
    <glyph glyph-name="q" unicode="q" horiz-adv-x="1395" 
d="M946 82q-28 -29 -62.5 -48.5t-79.5 -32.5t-101.5 -18.5t-127.5 -5.5q-150 0 -247 48t-154 131q-57 82 -79.5 192.5t-22.5 235.5q0 83 10 160.5t33 144.5q23 66 61.5 121t95.5 94t134.5 60.5t179.5 21.5q84 0 148.5 -8t113.5 -23q48 -16 82.5 -38t58.5 -50l64 98l215 -18
v-1485h-322v420zM651 254q83 0 139.5 20.5t91.5 61.5q34 41 49 103t15 145t-13 142t-46 97q-34 38 -91 56t-145 18q-79 0 -128.5 -23t-77.5 -64t-38 -98.5t-10 -127.5q0 -69 10 -129.5t38 -104.5q28 -45 77.5 -70.5t128.5 -25.5v0z" />
    <glyph glyph-name="r" unicode="r" horiz-adv-x="827" 
d="M127 1141l250 18l33 -127q18 28 53 52t83 43t107 30.5t127 13.5v-307q-102 -1 -166.5 -20.5t-100.5 -56.5q-37 -38 -50.5 -91.5t-13.5 -122.5v-573h-322v1141z" />
    <glyph glyph-name="s" unicode="s" horiz-adv-x="1174" 
d="M573 -18q-74 0 -148 8t-144 26q-71 17 -137 44.5t-124 66.5l164 235q45 -29 96.5 -51.5t104.5 -37.5t106.5 -23t102.5 -8q61 0 101 3.5t64 14.5q24 10 34 29t10 49q0 25 -10 41.5t-33 27.5q-24 11 -63.5 18t-98.5 15q-72 10 -137.5 21t-121.5 29q-56 17 -101.5 42.5
t-77.5 65.5q-33 39 -50.5 94t-17.5 131q0 88 27.5 156t88.5 114q60 46 156 69.5t234 23.5q70 0 138 -7t131 -20q62 -14 118 -34t102 -46l-153 -250q-31 16 -69 30t-80 24q-43 10 -88 16t-89 6q-62 0 -100 -5.5t-59 -15.5q-22 -11 -29.5 -26.5t-7.5 -36.5q0 -24 8.5 -40
t30.5 -27t58.5 -18.5t92.5 -14.5q111 -15 205 -33.5t163 -55.5q68 -38 107 -103t39 -173q0 -100 -28.5 -171t-92.5 -116q-65 -45 -168.5 -66t-253.5 -21v0z" />
    <glyph glyph-name="t" unicode="t" horiz-adv-x="928" 
d="M51 1159h205l55 283l250 51v-334h275v-274h-275v-477q0 -34 4 -60t19 -44t45 -27t82 -9h125v-268q-18 -2 -42 -2.5t-50 -1.5h-52h-47q-117 0 -195 20.5t-124 64.5t-65 113t-19 166v525h-191v274z" />
    <glyph glyph-name="u" unicode="u" horiz-adv-x="1343" 
d="M674 -18q-166 0 -273 31.5t-169 99.5q-63 67 -87 173t-24 255v618h321v-624q0 -61 4 -111.5t27 -86.5q22 -37 69.5 -57t133.5 -20q85 0 132 20.5t69 57.5q22 36 26 87t4 112v622h316v-616q0 -149 -23.5 -255.5t-84.5 -174.5q-62 -68 -168.5 -99.5t-272.5 -31.5v0z" />
    <glyph glyph-name="v" unicode="v" horiz-adv-x="1255" 
d="M-2 1159h346l293 -786l293 786h325l-460 -1171h-336z" />
    <glyph glyph-name="w" unicode="w" horiz-adv-x="1884" 
d="M18 1159h338l213 -706l222 706h317l221 -704l213 704h324l-377 -1171h-307l-240 745l-240 -745h-305z" />
    <glyph glyph-name="x" unicode="x" horiz-adv-x="1227" 
d="M596 373l-248 -373h-338l424 606l-385 553h359l223 -321l211 321h338l-385 -555l422 -604h-361z" />
    <glyph glyph-name="y" unicode="y" horiz-adv-x="1196" 
d="M274 -348q-9 0 -23 0.5t-30 0.5q-16 1 -32 1.5t-29 1.5v242h86q48 0 79.5 4t51.5 13q20 10 30.5 26.5t18.5 42.5l14 43l-442 1132h346l268 -737l260 737h326l-465 -1210q-30 -81 -66 -137.5t-88 -92.5q-52 -35 -126 -51t-179 -16v0z" />
    <glyph glyph-name="z" unicode="z" horiz-adv-x="1106" 
d="M41 215l575 670h-542v274h975v-219l-580 -682h602v-258h-1030v215z" />
    <glyph glyph-name="braceleft" unicode="{" horiz-adv-x="1133" 
d="M700 -338q-210 0 -305.5 72t-95.5 217q0 32 7.5 71t19.5 81q11 42 24 85t25 82q11 39 18.5 72.5t7.5 56.5q0 31 -12.5 50t-42.5 29q-31 10 -81.5 13t-125.5 3v262q74 0 124 2.5t81 12.5t44 29t13 52q0 23 -7.5 56.5t-18.5 72.5q-12 39 -25 82t-24 85q-12 42 -19.5 81
t-7.5 71q0 145 95.5 217t305.5 72h261v-276h-183q-42 0 -70 -5t-45 -17q-18 -12 -25 -32t-7 -49q0 -16 7 -44.5t17 -64.5t22 -76.5t22 -81.5t17 -79t7 -69q0 -56 -30.5 -101.5t-106.5 -66.5q39 -12 65.5 -29.5t42.5 -39.5q15 -22 22 -48t7 -53q0 -31 -7 -69.5t-17 -79.5
q-10 -42 -22 -84t-22 -78q-10 -37 -17 -66.5t-7 -46.5q0 -29 7 -49t25 -32q17 -12 45 -17t70 -5h183v-268h-261z" />
    <glyph glyph-name="bar" unicode="|" horiz-adv-x="774" 
d="M223 1589h326v-1927h-326v1927z" />
    <glyph glyph-name="braceright" unicode="}" horiz-adv-x="1133" 
d="M172 -70h184q42 0 70.5 5t46.5 17q17 12 24 32t7 49q0 17 -7 46.5t-17 66.5q-11 36 -23 78t-22 84q-11 41 -18 79.5t-7 69.5q0 27 7 53t23 48t42 39.5t65 29.5q-77 21 -107 66.5t-30 101.5q0 31 7 69t18 79q10 41 22 81.5t23 76.5q10 36 17 64.5t7 44.5q0 29 -7 49
t-24 32q-18 12 -46.5 17t-70.5 5h-184v276h260q212 0 308 -72t96 -217q0 -31 -8 -70.5t-19 -81.5q-12 -42 -25.5 -85t-24.5 -82q-12 -39 -20 -72.5t-8 -56.5q0 -32 13 -50.5t43 -27.5q30 -10 80.5 -13t125.5 -3v-262q-74 0 -124 -3t-80 -12q-31 -10 -44.5 -29.5t-13.5 -52.5
q0 -23 8 -56.5t20 -72.5q11 -39 24.5 -82t25.5 -85q11 -42 19 -81t8 -71q0 -145 -96 -217t-308 -72h-260v268z" />
    <glyph glyph-name="asciitilde" unicode="~" horiz-adv-x="1208" 
d="M113 899q83 103 170 162t174 59q54 0 91.5 -17t68.5 -38q30 -21 58.5 -38t63.5 -17t77.5 28.5t94.5 91.5l179 -145q-84 -103 -171 -164t-174 -61q-51 0 -88 17t-68 38t-60.5 38t-65.5 17q-34 0 -77.5 -26.5t-94.5 -89.5z" />
    <glyph glyph-name="uni00A0" unicode="&#xa0;" horiz-adv-x="440" 
 />
    <glyph glyph-name="exclamdown" unicode="&#xa1;" horiz-adv-x="823" 
d="M268 1040h287l33 -1040h-352zM225 1518h373v-361h-373v361z" />
    <glyph glyph-name="cent" unicode="&#xa2;" horiz-adv-x="1208" 
d="M510 -2q-130 19 -213.5 71t-131.5 129q-49 77 -68 175t-19 209q0 108 18.5 205t66.5 174t132 130t215 74v142h305v-140q103 -17 184.5 -60.5t141.5 -109.5l-215 -204q-18 19 -41 37.5t-52 33.5t-67 24t-86 9q-85 0 -141 -23t-89 -65q-34 -42 -47.5 -102t-13.5 -134
q0 -73 13.5 -133t46.5 -103t89.5 -67t143.5 -24q40 0 74 6t66 19q31 13 61 33.5t61 49.5l195 -186q-38 -34 -74.5 -61.5t-74.5 -48.5q-39 -21 -81.5 -36t-93.5 -22v-193h-305v191z" />
    <glyph glyph-name="sterling" unicode="&#xa3;" horiz-adv-x="1376" 
d="M879 -14q-110 0 -212 30t-186 76q-68 -45 -171 -68.5t-253 -23.5v260q103 0 160.5 10.5t85.5 32.5q27 22 33 56.5t6 82.5q0 41 -12 94t-29 115h-250v246h180q-14 59 -23 114.5t-9 106.5q0 94 25.5 172t87.5 135q61 56 163.5 87.5t255.5 31.5q135 0 246 -20t215 -62
l-123 -266q-38 17 -82.5 28.5t-90.5 19.5q-46 7 -91 10t-82 3q-65 0 -105 -13t-63 -37t-31 -58t-8 -76q0 -35 7 -80t20 -96h381v-246h-322q12 -55 20.5 -106t8.5 -94q0 -39 -3.5 -75.5t-11.5 -68.5q57 -23 121 -38t133 -15q54 0 86.5 10t50.5 32t23.5 56.5t5.5 83.5v60h279
v-72q0 -123 -25 -207t-78 -135t-135.5 -73.5t-197.5 -22.5v0z" />
    <glyph glyph-name="yen" unicode="&#xa5;" horiz-adv-x="1399" 
d="M152 694h374l-508 824h342l338 -578l340 578h340l-508 -824h373v-225h-387v-119h387v-225h-387v-125h-317v125h-387v225h387v119h-387v225z" />
    <glyph glyph-name="brokenbar" unicode="&#xa6;" horiz-adv-x="774" 
d="M223 465h326v-803h-326v803zM223 1589h326v-803h-326v803z" />
    <glyph glyph-name="section" unicode="&#xa7;" horiz-adv-x="1241" 
d="M340 -10q-32 0 -54.5 0.5t-39.5 0.5q-17 1 -31 1.5t-29 1.5v250h113q54 0 86 9.5t49 27.5q16 18 20.5 44.5t4.5 61.5v39q-170 23 -251 103t-81 223q0 140 78 221.5t244 107.5v33q0 88 15 163t62 131q47 55 133.5 86.5t229.5 31.5q31 0 53.5 -0.5t40.5 -0.5q17 -1 31 -1.5
t28 -1.5v-262h-112q-55 0 -87 -9.5t-48 -27.5q-17 -19 -22 -46t-5 -61v-33q176 -23 261 -104.5t85 -226.5q0 -142 -82.5 -222.5t-251.5 -103.5v-25q0 -58 -6 -111t-23 -99q-18 -46 -48.5 -83t-78.5 -63q-49 -26 -119 -40.5t-165 -14.5v0zM618 618q66 0 111 7.5t74 23.5
q28 15 40.5 38.5t12.5 55.5q0 33 -12.5 56.5t-40.5 39.5q-29 15 -74 22t-111 7q-65 0 -109 -7t-72 -22q-28 -16 -40 -39.5t-12 -56.5q0 -32 12 -55.5t40 -38.5q28 -16 72 -23.5t109 -7.5v0z" />
    <glyph glyph-name="dieresis" unicode="&#xa8;" horiz-adv-x="1208" 
d="M227 1559h291v-279h-291v279zM692 1559h289v-279h-289v279z" />
    <glyph glyph-name="copyright" unicode="&#xa9;" horiz-adv-x="1657" 
d="M844 272q-129 0 -222.5 33t-154.5 97q-61 63 -90 155.5t-29 212.5q0 130 36.5 224t103.5 155q66 61 160 90t208 29q127 0 218 -35t159 -105l-146 -145q-43 43 -99.5 66.5t-133.5 23.5q-149 0 -221 -76.5t-72 -228.5q0 -73 16.5 -130t52.5 -96q36 -40 92 -60.5t134 -20.5
q45 0 80.5 7.5t64.5 20.5q29 12 52.5 29.5t46.5 38.5l139 -135q-29 -30 -65 -57t-83 -48t-107.5 -33t-139.5 -12v0zM827 -25q-191 0 -333 60.5t-237 166.5q-95 105 -142 248.5t-47 309.5t47 309t142 249q95 105 237 165.5t333 60.5q190 0 333 -60.5t239 -165.5
q95 -106 142.5 -249t47.5 -309t-47.5 -309.5t-142.5 -248.5q-96 -106 -239 -166.5t-333 -60.5v0zM827 92q171 0 292 52t198 142q76 90 111.5 212t35.5 262t-35.5 261.5t-111.5 211.5q-77 90 -198 142t-292 52q-172 0 -293 -52t-197 -142q-77 -90 -112 -211.5t-35 -261.5
t35 -262t112 -212q76 -90 197 -142t293 -52v0z" />
    <glyph glyph-name="ordfeminine" unicode="&#xaa;" horiz-adv-x="1264" 
d="M453 565q-99 0 -164 22.5t-102 62.5q-38 39 -53 92t-15 114q0 100 36.5 164.5t111.5 102.5q74 37 187.5 52t268.5 15h35q-2 31 -8.5 53.5t-25.5 37.5q-20 15 -55.5 22.5t-93.5 7.5q-42 0 -81.5 -7t-74.5 -18t-64 -24.5t-50 -26.5l-131 192q25 17 68 37t99 37t122.5 28
t140.5 11q127 0 206 -20.5t124 -65.5q44 -45 60 -116t16 -171v-280q0 -29 2.5 -46t11.5 -26q8 -10 24.5 -13t45.5 -3v-217q-16 -2 -41 -4.5t-68 -2.5q-41 0 -73 4.5t-56 17.5q-25 12 -42 33t-26 54q-18 -30 -42.5 -52.5t-61.5 -36.5q-38 -15 -94 -22.5t-137 -7.5v0zM209 465
h801v-227h-801v227zM522 776q119 0 177.5 46t58.5 149v39h-19q-120 0 -193 -6.5t-112 -21.5q-40 -15 -52.5 -40.5t-12.5 -62.5q0 -53 33 -78t120 -25v0z" />
    <glyph glyph-name="guillemotleft" unicode="&#xab;" horiz-adv-x="1571" 
d="M205 578l309 581h281l-285 -581l285 -578h-281zM717 578l309 581h283l-285 -581l285 -578h-283z" />
    <glyph glyph-name="logicalnot" unicode="&#xac;" horiz-adv-x="1479" 
d="M1288 866v-678h-319v390h-779v288h1098z" />
    <glyph glyph-name="registered" unicode="&#xae;" horiz-adv-x="1657" 
d="M827 -25q-191 0 -333 60.5t-237 166.5q-95 105 -142 248.5t-47 309.5t47 309t142 249q95 105 237 165.5t333 60.5q190 0 333 -60.5t239 -165.5q95 -106 142.5 -249t47.5 -309t-47.5 -309.5t-142.5 -248.5q-96 -106 -239 -166.5t-333 -60.5v0zM827 92q171 0 292 52
t198 142q76 90 111.5 212t35.5 262t-35.5 261.5t-111.5 211.5q-77 90 -198 142t-292 52q-172 0 -293 -52t-197 -142q-77 -90 -112 -211.5t-35 -261.5t35 -262t112 -212q76 -90 197 -142t293 -52v0zM860 612h-215v-321h-194v932h444q114 0 184.5 -22t109.5 -62q38 -40 51 -95
t13 -122q0 -49 -7.5 -94.5t-28.5 -83.5t-59 -67t-99 -46l188 -340h-211zM889 780q46 0 77.5 6t50.5 22q19 15 27.5 41t8.5 66t-8.5 66.5t-27.5 42.5q-20 15 -51.5 21t-78.5 6h-242v-271h244z" />
    <glyph glyph-name="macron" unicode="&#xaf;" horiz-adv-x="1208" 
d="M174 1505h860v-256h-860v256z" />
    <glyph glyph-name="macron" unicode="&#x2c9;" horiz-adv-x="1208" 
d="M174 1505h860v-256h-860v256z" />
    <glyph glyph-name="degree" unicode="&#xb0;" horiz-adv-x="1165" 
d="M582 547q-129 0 -222 39.5t-153 107.5q-60 67 -88.5 157.5t-28.5 192.5t28.5 193t88.5 159q60 67 153 106.5t222 39.5t222 -39.5t154 -106.5q60 -68 88.5 -159t28.5 -193t-28.5 -192.5t-88.5 -157.5q-61 -68 -154 -107.5t-222 -39.5v0zM582 780q67 0 112 20t73 55
q28 34 40 80.5t12 100.5t-12 100.5t-40 81.5q-28 34 -73 54t-112 20t-112.5 -20t-72.5 -54q-28 -35 -39.5 -81.5t-11.5 -100.5t11.5 -100.5t39.5 -80.5q27 -35 72.5 -55t112.5 -20v0z" />
    <glyph glyph-name="plusminus" unicode="&#xb1;" horiz-adv-x="1479" 
d="M190 299h390v279h-390v288h390v387h319v-387h389v-288h-389v-279h389v-287h-1098v287z" />
    <glyph glyph-name="three.superior" unicode="&#xb3;" horiz-adv-x="1075" 
d="M522 508q-74 0 -134.5 7t-111.5 21q-52 14 -97.5 35t-90.5 50l123 176q34 -20 67 -35.5t68 -25.5q35 -11 72.5 -16t79.5 -5q51 0 86.5 5t57.5 19t32 39t10 64q0 34 -9 56t-32 35t-62 18t-98 5h-176v195h172q49 0 82.5 2.5t54.5 11.5t30 26t9 46q0 27 -8.5 44t-27.5 26
q-20 9 -51 12.5t-76 3.5q-85 0 -155.5 -20t-117.5 -48l-115 185q75 46 185.5 71t238.5 25q103 0 175 -15.5t117 -45.5q45 -31 65 -76.5t20 -104.5q0 -91 -31 -143.5t-96 -77.5q77 -23 115.5 -83t38.5 -177q0 -161 -102 -233t-308 -72v0z" />
    <glyph glyph-name="acute" unicode="&#xb4;" horiz-adv-x="1208" 
d="M682 1645h387l-391 -375h-285z" />
    <glyph glyph-name="mu" unicode="&#xb5;" horiz-adv-x="1364" 
d="M549 -23q-35 0 -67 3t-60 8v-326h-295v1497h322v-649q0 -57 6.5 -103t28.5 -79t63 -50.5t110 -17.5q84 0 134 19t77 54q27 34 35 82.5t8 106.5v637h324v-1147l-246 -22l-31 116q-55 -65 -161 -97t-248 -32v0z" />
    <glyph glyph-name="paragraph" unicode="&#xb6;" horiz-adv-x="1391" 
d="M461 510q-114 23 -186 68.5t-113 110.5q-41 64 -56.5 145t-15.5 176q0 117 25 211t93 160q67 66 184.5 101.5t303.5 35.5h535v-1518h-301v489h-168v-489h-301v510zM930 745v494h-240q-79 0 -132 -12t-85 -40q-32 -29 -45.5 -76t-13.5 -118q0 -68 14 -115.5t46 -76.5
q32 -30 84 -43t128 -13h244z" />
    <glyph glyph-name="periodcentered" unicode="&#xb7;" horiz-adv-x="600" 
d="M113 938h372v-377h-372v377z" />
    <glyph glyph-name="periodcentered" unicode="&#x2219;" horiz-adv-x="600" 
d="M113 938h372v-377h-372v377z" />
    <glyph glyph-name="cedilla" unicode="&#xb8;" horiz-adv-x="1208" 
d="M604 -510q-85 0 -152 18.5t-122 49.5l80 149q46 -23 93 -36t89 -13q73 0 101 20t28 64q0 27 -13 42.5t-37 22.5q-24 8 -57 9t-73 -2l-62 39l35 161h180l-18 -100q48 1 94 -2.5t82 -23.5q36 -19 58 -59t22 -110q0 -65 -23.5 -109t-65.5 -71q-43 -26 -103.5 -37.5
t-135.5 -11.5v0z" />
    <glyph glyph-name="ordmasculine" unicode="&#xba;" horiz-adv-x="1251" 
d="M627 565q-131 0 -224 32t-152 95q-60 62 -88 153t-28 210q0 118 28 209t88 153q59 61 152 93t224 32q129 0 221.5 -32t152.5 -93q59 -62 87 -153t28 -209q0 -119 -28 -210t-87 -153q-60 -63 -152.5 -95t-221.5 -32v0zM627 791q63 0 106 18t70 51q26 33 37.5 80.5
t11.5 106.5t-11.5 106.5t-37.5 80.5q-27 33 -70 51t-106 18t-106 -18t-70 -51t-38.5 -80.5t-11.5 -106.5t11.5 -106.5t38.5 -80.5t70 -51t106 -18v0zM195 463h862v-230h-862v230z" />
    <glyph glyph-name="guillemotright" unicode="&#xbb;" horiz-adv-x="1571" 
d="M549 580l-285 579h281l309 -579l-309 -580h-281zM1059 580l-285 579h283l309 -579l-309 -580h-283z" />
    <glyph glyph-name="onequarter" unicode="&#xbc;" horiz-adv-x="2136" 
d="M1686 184h-502v178l444 633h273l-433 -614h222l47 209h186v-209h152v-197h-152v-184h-237v184zM250 1303h-172v215h432v-996h-260v781zM1282 1518h281l-848 -1518h-283z" />
    <glyph glyph-name="onehalf" unicode="&#xbd;" horiz-adv-x="2241" 
d="M1352 174l315 270q63 54 102.5 88.5t61.5 60.5q21 26 29 48.5t8 52.5q0 25 -7 44.5t-26 33.5q-19 13 -51 20t-82 7q-36 0 -72 -5t-69 -13q-34 -9 -63.5 -20.5t-51.5 -23.5l-113 187q41 21 82 36.5t88 26.5q47 10 103.5 15.5t128.5 5.5q91 0 161 -15.5t117 -49.5t71.5 -88
t24.5 -132q0 -58 -14.5 -104t-44.5 -89t-77 -87.5t-111 -98.5l-162 -145h416v-199h-764v174zM250 1303h-172v215h432v-996h-260v781zM1282 1518h281l-848 -1518h-283z" />
    <glyph glyph-name="threequarters" unicode="&#xbe;" horiz-adv-x="2410" 
d="M510 514q-75 0 -135.5 7t-112.5 21t-97.5 34.5t-90.5 48.5l125 178q68 -40 134.5 -61t149.5 -21q52 0 87.5 5t57.5 19q22 13 32 37.5t10 63.5q0 34 -9 56.5t-32 36.5q-23 13 -61.5 18.5t-96.5 5.5h-176v194h172q49 0 82.5 3t54.5 12t30 26.5t9 46.5q0 27 -9 43.5
t-28 25.5q-20 9 -51 12t-76 3q-86 0 -156 -20t-118 -47l-113 184q74 46 184 71t240 25q102 0 173.5 -15.5t116.5 -45.5q44 -31 64.5 -76.5t20.5 -104.5q0 -91 -36 -143.5t-101 -77.5q37 -11 68 -31t53 -51q21 -32 33 -76t12 -102q0 -161 -102.5 -233t-307.5 -72v0zM1960 184
h-502v178l445 633h274l-434 -614h223l47 209h187v-209h149v-197h-149v-184h-240v184zM1559 1518h280l-848 -1518h-280z" />
    <glyph glyph-name="questiondown" unicode="&#xbf;" horiz-adv-x="1438" 
d="M696 -25q-145 0 -252 22t-177 71q-70 48 -104 125t-34 186q0 84 18.5 145t54.5 106t88.5 78.5t121.5 63.5q72 31 113 56t60 57q19 31 21 76t-4 116h313q15 -104 10 -175.5t-34 -122.5q-29 -52 -84.5 -90t-140.5 -75q-65 -29 -105 -51t-63 -44q-23 -23 -31 -49t-8 -62
q0 -35 9.5 -62.5t37.5 -46.5t79.5 -29t135.5 -10q127 2 235 29.5t199 72.5l135 -266q-56 -27 -125 -49.5t-146 -38.5q-78 -16 -160 -24.5t-163 -8.5v0zM573 1518h375v-322h-375v322z" />
    <glyph glyph-name="Agrave" unicode="&#xc0;" horiz-adv-x="1616" 
d="M637 1528h340l612 -1528h-348l-98 250h-688l-99 -250h-327zM1036 526l-237 604l-238 -604h475zM340 1974h387l289 -375h-285z" />
    <glyph glyph-name="Aacute" unicode="&#xc1;" horiz-adv-x="1616" 
d="M637 1528h340l612 -1528h-348l-98 250h-688l-99 -250h-327zM1036 526l-237 604l-238 -604h475zM883 1974h387l-391 -375h-285z" />
    <glyph glyph-name="Acircumflex" unicode="&#xc2;" horiz-adv-x="1616" 
d="M637 1528h340l612 -1528h-348l-98 250h-688l-99 -250h-327zM1036 526l-237 604l-238 -604h475zM639 1974h332l317 -375h-301l-186 177l-185 -177h-294z" />
    <glyph glyph-name="Atilde" unicode="&#xc3;" horiz-adv-x="1616" 
d="M637 1528h340l612 -1528h-348l-98 250h-688l-99 -250h-327zM1036 526l-237 604l-238 -604h475zM313 1737q84 103 171 162t173 59q36 0 64.5 -8t52.5 -20q23 -13 43 -27.5t40 -26.5q19 -13 39 -21t44 -8q35 0 77 29t95 92l178 -145q-83 -103 -170 -164.5t-174 -61.5
q-51 0 -88 17.5t-68 38.5q-31 20 -60.5 37.5t-65.5 17.5q-35 0 -78 -27t-94 -90z" />
    <glyph glyph-name="Adieresis" unicode="&#xc4;" horiz-adv-x="1616" 
d="M637 1528h340l612 -1528h-348l-98 250h-688l-99 -250h-327zM1036 526l-237 604l-238 -604h475zM428 1888h291v-278h-291v278zM893 1888h289v-278h-289v278z" />
    <glyph glyph-name="Aring" unicode="&#xc5;" horiz-adv-x="1616" 
d="M596 1425q-43 41 -62.5 99t-19.5 127q0 63 16.5 118t51.5 96q35 40 91 63.5t134 23.5q75 0 129.5 -23.5t90.5 -63.5q36 -41 53.5 -96t17.5 -118q0 -68 -20 -125t-62 -99l573 -1427h-348l-98 250h-688l-99 -250h-327zM1036 526l-237 604l-238 -604h475zM807 1511
q36 0 61 11t41 30q15 19 22 44.5t7 54.5q0 30 -7 56t-22 45q-16 18 -41 29t-61 11q-37 0 -62.5 -11t-40.5 -29q-16 -19 -23 -45t-7 -56q0 -29 7 -54.5t23 -44.5q15 -19 40.5 -30t62.5 -11v0z" />
    <glyph glyph-name="AE" unicode="&#xc6;" horiz-adv-x="2351" 
d="M958 1518h1278v-304h-804v-294h784v-293h-784v-336h813v-291h-1135v260h-604l-174 -260h-326zM1110 532v693l-444 -693h444z" />
    <glyph glyph-name="Ccedilla" unicode="&#xc7;" horiz-adv-x="1554" 
d="M776 -510q-85 0 -152 18.5t-122 49.5l80 149q46 -23 93 -36t89 -13q73 0 101 20t28 64q0 27 -13 42.5t-37 22.5q-24 8 -57 9t-73 -2l-62 39l29 135q-165 19 -281 79t-189 158t-106.5 232.5t-33.5 302.5q0 204 54.5 352t157.5 244q102 95 250.5 140.5t337.5 45.5
q104 0 190 -14t159 -41q72 -28 132.5 -69t114.5 -95l-231 -231q-35 34 -73 60.5t-82 45.5q-45 18 -97.5 27.5t-114.5 9.5q-121 0 -208 -30.5t-143 -90.5q-56 -61 -82.5 -150.5t-26.5 -207.5q0 -114 23 -203.5t77 -150.5q54 -62 142.5 -94t219.5 -32q74 0 130 11.5t101 32.5
t82 49t72 61l222 -217q-45 -47 -100 -89.5t-128 -74.5t-168.5 -51.5t-222.5 -20.5l-10 -63q48 1 94 -2.5t82 -23.5q36 -19 58 -59t22 -110q0 -65 -23.5 -109t-65.5 -71q-43 -26 -103.5 -37.5t-135.5 -11.5v0z" />
    <glyph glyph-name="Egrave" unicode="&#xc8;" horiz-adv-x="1407" 
d="M152 1518h1140v-304h-805v-294h785v-293h-785v-336h813v-291h-1148v1518zM238 1974h387l288 -375h-284z" />
    <glyph glyph-name="Eacute" unicode="&#xc9;" horiz-adv-x="1407" 
d="M780 1974h387l-391 -375h-284zM152 1518h1140v-304h-805v-294h785v-293h-785v-336h813v-291h-1148v1518z" />
    <glyph glyph-name="Ecircumflex" unicode="&#xca;" horiz-adv-x="1407" 
d="M537 1974h331l318 -375h-301l-187 177l-184 -177h-295zM152 1518h1140v-304h-805v-294h785v-293h-785v-336h813v-291h-1148v1518z" />
    <glyph glyph-name="Edieresis" unicode="&#xcb;" horiz-adv-x="1407" 
d="M326 1888h290v-278h-290v278zM791 1888h288v-278h-288v278zM152 1518h1140v-304h-805v-294h785v-293h-785v-336h813v-291h-1148v1518z" />
    <glyph glyph-name="Igrave" unicode="&#xcc;" horiz-adv-x="682" 
d="M-172 1976h401l279 -377h-299zM174 1518h334v-1518h-334v1518z" />
    <glyph glyph-name="Iacute" unicode="&#xcd;" horiz-adv-x="682" 
d="M451 1976h401l-379 -377h-299zM174 1518h334v-1518h-334v1518z" />
    <glyph glyph-name="Icircumflex" unicode="&#xce;" horiz-adv-x="682" 
d="M174 1976h332l287 -377h-301l-156 177l-154 -177h-295zM174 1518h334v-1518h-334v1518z" />
    <glyph glyph-name="Idieresis" unicode="&#xcf;" horiz-adv-x="682" 
d="M174 1518h334v-1518h-334v1518zM-35 1888h291v-278h-291v278zM430 1888h289v-278h-289v278z" />
    <glyph glyph-name="Eth" unicode="&#xd0;" horiz-adv-x="1610" 
d="M0 899h152v619h544q224 0 384.5 -34t263.5 -119q102 -86 150 -232.5t48 -372.5q0 -222 -52 -368.5t-158 -233.5t-266.5 -122.5t-377.5 -35.5h-536v635h-152v264zM707 293q155 0 252 25t152 81q54 55 73.5 144t19.5 217q0 85 -7 152.5t-27 118.5q-20 50 -55 85.5t-91 58.5
q-56 22 -135.5 32t-188.5 10h-213v-318h283v-264h-283v-342h220z" />
    <glyph glyph-name="Ntilde" unicode="&#xd1;" horiz-adv-x="1686" 
d="M152 1518h362l698 -957v957h320v-1518h-307l-752 1024v-1024h-321v1518zM348 1737q84 103 171 162t173 59q36 0 64.5 -8t52.5 -20q23 -13 43 -27.5t40 -26.5q19 -13 39 -21t44 -8q35 0 77 29t95 92l178 -145q-84 -103 -170.5 -164.5t-173.5 -61.5q-34 0 -61.5 8t-50.5 21
q-24 12 -44.5 26.5t-40.5 27.5q-20 12 -41 20t-45 8q-34 0 -77.5 -27t-94.5 -90z" />
    <glyph glyph-name="Ograve" unicode="&#xd2;" horiz-adv-x="1747" 
d="M872 -25q-181 0 -329 42t-253 136t-162.5 243t-57.5 364q0 213 57.5 362t162.5 243q105 93 253 135t329 42t329.5 -42t254.5 -135q106 -94 163.5 -243t57.5 -362q0 -215 -57.5 -364t-163.5 -243t-254.5 -136t-329.5 -42v0zM872 270q131 0 220 34t144 97q54 63 77.5 152.5
t23.5 200.5t-23.5 200.5t-77.5 151.5q-55 62 -144 95.5t-220 33.5t-219.5 -33.5t-142.5 -95.5q-55 -62 -78.5 -151.5t-23.5 -200.5t23.5 -200.5t78.5 -152.5q54 -63 142.5 -97t219.5 -34v0zM408 1974h387l288 -375h-284z" />
    <glyph glyph-name="Oacute" unicode="&#xd3;" horiz-adv-x="1747" 
d="M950 1974h387l-391 -375h-284zM872 -25q-181 0 -329 42t-253 136t-162.5 243t-57.5 364q0 213 57.5 362t162.5 243q105 93 253 135t329 42t329.5 -42t254.5 -135q106 -94 163.5 -243t57.5 -362q0 -215 -57.5 -364t-163.5 -243t-254.5 -136t-329.5 -42v0zM872 270
q131 0 220 34t144 97q54 63 77.5 152.5t23.5 200.5t-23.5 200.5t-77.5 151.5q-55 62 -144 95.5t-220 33.5t-219.5 -33.5t-142.5 -95.5q-55 -62 -78.5 -151.5t-23.5 -200.5t23.5 -200.5t78.5 -152.5q54 -63 142.5 -97t219.5 -34v0z" />
    <glyph glyph-name="Ocircumflex" unicode="&#xd4;" horiz-adv-x="1747" 
d="M707 1974h331l318 -375h-301l-187 177l-184 -177h-295zM872 -25q-181 0 -329 42t-253 136t-162.5 243t-57.5 364q0 213 57.5 362t162.5 243q105 93 253 135t329 42t329.5 -42t254.5 -135q106 -94 163.5 -243t57.5 -362q0 -215 -57.5 -364t-163.5 -243t-254.5 -136
t-329.5 -42v0zM872 270q131 0 220 34t144 97q54 63 77.5 152.5t23.5 200.5t-23.5 200.5t-77.5 151.5q-55 62 -144 95.5t-220 33.5t-219.5 -33.5t-142.5 -95.5q-55 -62 -78.5 -151.5t-23.5 -200.5t23.5 -200.5t78.5 -152.5q54 -63 142.5 -97t219.5 -34v0z" />
    <glyph glyph-name="Otilde" unicode="&#xd5;" horiz-adv-x="1747" 
d="M872 -25q-181 0 -329 42t-253 136t-162.5 243t-57.5 364q0 213 57.5 362t162.5 243q105 93 253 135t329 42t329.5 -42t254.5 -135q106 -94 163.5 -243t57.5 -362q0 -215 -57.5 -364t-163.5 -243t-254.5 -136t-329.5 -42v0zM872 270q131 0 220 34t144 97q54 63 77.5 152.5
t23.5 200.5t-23.5 200.5t-77.5 151.5q-55 62 -144 95.5t-220 33.5t-219.5 -33.5t-142.5 -95.5q-55 -62 -78.5 -151.5t-23.5 -200.5t23.5 -200.5t78.5 -152.5q54 -63 142.5 -97t219.5 -34v0zM381 1737q84 103 170.5 162t173.5 59q54 0 91.5 -17.5t68.5 -37.5
q30 -21 58.5 -38.5t64.5 -17.5q35 0 77 29t95 92l178 -145q-84 -103 -171 -164.5t-173 -61.5q-51 0 -88.5 17.5t-68.5 38.5q-31 20 -60.5 37.5t-65.5 17.5q-34 0 -77.5 -27t-94.5 -90z" />
    <glyph glyph-name="Odieresis" unicode="&#xd6;" horiz-adv-x="1747" 
d="M496 1888h290v-278h-290v278zM961 1888h288v-278h-288v278zM872 -25q-181 0 -329 42t-253 136t-162.5 243t-57.5 364q0 213 57.5 362t162.5 243q105 93 253 135t329 42t329.5 -42t254.5 -135q106 -94 163.5 -243t57.5 -362q0 -215 -57.5 -364t-163.5 -243t-254.5 -136
t-329.5 -42v0zM872 270q131 0 220 34t144 97q54 63 77.5 152.5t23.5 200.5t-23.5 200.5t-77.5 151.5q-55 62 -144 95.5t-220 33.5t-219.5 -33.5t-142.5 -95.5q-55 -62 -78.5 -151.5t-23.5 -200.5t23.5 -200.5t78.5 -152.5q54 -63 142.5 -97t219.5 -34v0z" />
    <glyph glyph-name="multiply" unicode="&#xd7;" horiz-adv-x="1479" 
d="M238 416l305 305l-305 305l198 203l305 -305l303 305l197 -203l-305 -305l305 -303l-197 -203l-303 305l-309 -307z" />
    <glyph glyph-name="Oslash" unicode="&#xd8;" horiz-adv-x="1747" 
d="M872 -25q-80 0 -152 8t-138 23l-54 -90h-313l119 199q-128 91 -196 248.5t-68 396.5q0 213 56.5 362t161.5 243q104 93 252.5 135t331.5 42q78 0 149 -7.5t134 -23.5l55 93h312l-119 -197q65 -45 116 -107t86 -142t53.5 -179t18.5 -219q0 -215 -57 -364t-162 -243
t-253.5 -136t-332.5 -42v0zM872 258q137 0 228.5 35t147.5 100q55 64 78.5 155.5t23.5 205.5q0 124 -27.5 220t-93.5 161l-506 -865q34 -6 71 -9t78 -3v0zM395 754q0 -121 25.5 -214.5t87.5 -158.5l498 856q-29 5 -62.5 7.5t-71.5 2.5q-137 0 -228.5 -34.5t-146.5 -98.5
t-78.5 -155t-23.5 -205v0z" />
    <glyph glyph-name="Ugrave" unicode="&#xd9;" horiz-adv-x="1671" 
d="M836 -29q-160 0 -274 25t-191 69q-77 43 -122.5 101.5t-69.5 126.5q-24 67 -31 140.5t-7 146.5v938h336v-895q0 -85 13.5 -151t52.5 -111q39 -46 110 -69.5t187 -23.5q114 0 185.5 22.5t111.5 67.5q39 44 53 110.5t14 154.5v895h326v-938q0 -73 -7 -146.5t-31 -140.5
q-24 -68 -69.5 -126.5t-122.5 -101.5q-77 -44 -190.5 -69t-273.5 -25v0zM369 1974h387l288 -375h-284z" />
    <glyph glyph-name="Uacute" unicode="&#xda;" horiz-adv-x="1671" 
d="M911 1974h387l-391 -375h-284zM836 -29q-160 0 -274 25t-191 69q-77 43 -122.5 101.5t-69.5 126.5q-24 67 -31 140.5t-7 146.5v938h336v-895q0 -85 13.5 -151t52.5 -111q39 -46 110 -69.5t187 -23.5q114 0 185.5 22.5t111.5 67.5q39 44 53 110.5t14 154.5v895h326v-938
q0 -73 -7 -146.5t-31 -140.5q-24 -68 -69.5 -126.5t-122.5 -101.5q-77 -44 -190.5 -69t-273.5 -25v0z" />
    <glyph glyph-name="Ucircumflex" unicode="&#xdb;" horiz-adv-x="1671" 
d="M668 1974h331l318 -375h-301l-187 177l-184 -177h-295zM836 -29q-160 0 -274 25t-191 69q-77 43 -122.5 101.5t-69.5 126.5q-24 67 -31 140.5t-7 146.5v938h336v-895q0 -85 13.5 -151t52.5 -111q39 -46 110 -69.5t187 -23.5q114 0 185.5 22.5t111.5 67.5q39 44 53 110.5
t14 154.5v895h326v-938q0 -73 -7 -146.5t-31 -140.5q-24 -68 -69.5 -126.5t-122.5 -101.5q-77 -44 -190.5 -69t-273.5 -25v0z" />
    <glyph glyph-name="Udieresis" unicode="&#xdc;" horiz-adv-x="1671" 
d="M457 1888h291v-278h-291v278zM922 1888h288v-278h-288v278zM836 -29q-160 0 -274 25t-191 69q-77 43 -122.5 101.5t-69.5 126.5q-24 67 -31 140.5t-7 146.5v938h336v-895q0 -85 13.5 -151t52.5 -111q39 -46 110 -69.5t187 -23.5q114 0 185.5 22.5t111.5 67.5
q39 44 53 110.5t14 154.5v895h326v-938q0 -73 -7 -146.5t-31 -140.5q-24 -68 -69.5 -126.5t-122.5 -101.5q-77 -44 -190.5 -69t-273.5 -25v0z" />
    <glyph glyph-name="Yacute" unicode="&#xdd;" horiz-adv-x="1556" 
d="M610 532l-604 986h361l417 -684l418 684h346l-604 -986v-532h-334v532zM854 1974h387l-391 -375h-285z" />
    <glyph glyph-name="Thorn" unicode="&#xde;" horiz-adv-x="1556" 
d="M152 1518h327v-203h402q124 0 217 -16.5t160 -47.5t111.5 -75.5t70.5 -101.5t36.5 -125t10.5 -146t-10 -148.5t-36 -130.5t-70.5 -109t-113.5 -83q-70 -35 -166.5 -53.5t-226.5 -18.5h-385v-260h-327v1518zM879 549q76 0 128.5 13t84.5 42q31 28 45 74.5t14 112.5
q0 68 -13.5 113.5t-45.5 73.5q-32 27 -85 38.5t-133 11.5h-395v-479h400z" />
    <glyph glyph-name="germandbls" unicode="&#xdf;" horiz-adv-x="1423" 
d="M127 1063q0 68 9 135t33 128q24 60 65.5 111.5t106.5 89.5q64 37 154 58t212 21q135 0 234.5 -27.5t165.5 -79.5q66 -53 98 -130t32 -177q0 -81 -10 -140t-31 -101q-21 -43 -54.5 -71.5t-80.5 -48.5q70 -14 125.5 -39t93.5 -69q38 -45 58 -111.5t20 -162.5
q0 -118 -25.5 -203t-95.5 -139q-70 -55 -195.5 -81t-324.5 -26h-123v272h113q109 0 174.5 14t100.5 40q35 25 46.5 62t11.5 83q0 54 -16 89.5t-60 57.5q-45 21 -122.5 30t-200.5 9v252q84 0 138 11t86 35q31 24 43 61.5t12 89.5q0 45 -11 80t-36 59q-26 24 -68.5 36.5
t-104.5 12.5q-138 0 -197 -60.5t-59 -182.5v-1051h-317v1063z" />
    <glyph glyph-name="agrave" unicode="&#xe0;" horiz-adv-x="1321" 
d="M487 -18q-134 0 -219 27.5t-133 75.5t-66 113.5t-18 141.5q0 123 44 201.5t136 124.5q91 45 231 62t333 17h47q-1 39 -8.5 69t-31.5 50q-24 19 -69.5 29t-120.5 10q-53 0 -102 -8.5t-92 -21.5q-44 -14 -80 -31t-62 -33l-159 235q31 21 83 46t121 46t151.5 35.5
t174.5 14.5q157 0 255 -26t154 -81q55 -56 75 -143.5t20 -210.5v-352q0 -35 2.5 -56t12.5 -32t30 -15t55 -4v-262q-17 -5 -49 -6.5t-86 -1.5q-46 0 -80 5t-59 18q-26 13 -45.5 35.5t-36.5 56.5q-45 -60 -143.5 -94.5t-264.5 -34.5v0zM551 240q76 0 131 13.5t91 43.5
q35 29 52 74.5t17 109.5v43h-27q-102 0 -176 -3t-125 -10t-82 -18.5t-48 -28.5q-17 -18 -22.5 -42t-5.5 -55q0 -32 9.5 -56t32.5 -40t60 -23.5t93 -7.5v0zM197 1645h387l288 -375h-284z" />
    <glyph glyph-name="aacute" unicode="&#xe1;" horiz-adv-x="1321" 
d="M487 -18q-134 0 -219 27.5t-133 75.5t-66 113.5t-18 141.5q0 123 44 201.5t136 124.5q91 45 231 62t333 17h47q-1 39 -8.5 69t-31.5 50q-24 19 -69.5 29t-120.5 10q-53 0 -102 -8.5t-92 -21.5q-44 -14 -80 -31t-62 -33l-159 235q31 21 83 46t121 46t151.5 35.5
t174.5 14.5q157 0 255 -26t154 -81q55 -56 75 -143.5t20 -210.5v-352q0 -35 2.5 -56t12.5 -32t30 -15t55 -4v-262q-17 -5 -49 -6.5t-86 -1.5q-46 0 -80 5t-59 18q-26 13 -45.5 35.5t-36.5 56.5q-45 -60 -143.5 -94.5t-264.5 -34.5v0zM551 240q76 0 131 13.5t91 43.5
q35 29 52 74.5t17 109.5v43h-27q-102 0 -176 -3t-125 -10t-82 -18.5t-48 -28.5q-17 -18 -22.5 -42t-5.5 -55q0 -32 9.5 -56t32.5 -40t60 -23.5t93 -7.5v0zM739 1645h387l-391 -375h-284z" />
    <glyph glyph-name="acircumflex" unicode="&#xe2;" horiz-adv-x="1321" 
d="M487 -18q-134 0 -219 27.5t-133 75.5t-66 113.5t-18 141.5q0 123 44 201.5t136 124.5q91 45 231 62t333 17h47q-1 39 -8.5 69t-31.5 50q-24 19 -69.5 29t-120.5 10q-53 0 -102 -8.5t-92 -21.5q-44 -14 -80 -31t-62 -33l-159 235q31 21 83 46t121 46t151.5 35.5
t174.5 14.5q157 0 255 -26t154 -81q55 -56 75 -143.5t20 -210.5v-352q0 -35 2.5 -56t12.5 -32t30 -15t55 -4v-262q-17 -5 -49 -6.5t-86 -1.5q-46 0 -80 5t-59 18q-26 13 -45.5 35.5t-36.5 56.5q-45 -60 -143.5 -94.5t-264.5 -34.5v0zM551 240q76 0 131 13.5t91 43.5
q35 29 52 74.5t17 109.5v43h-27q-102 0 -176 -3t-125 -10t-82 -18.5t-48 -28.5q-17 -18 -22.5 -42t-5.5 -55q0 -32 9.5 -56t32.5 -40t60 -23.5t93 -7.5v0zM496 1645h331l318 -375h-301l-187 176l-184 -176h-295z" />
    <glyph glyph-name="atilde" unicode="&#xe3;" horiz-adv-x="1321" 
d="M487 -18q-134 0 -219 27.5t-133 75.5t-66 113.5t-18 141.5q0 123 44 201.5t136 124.5q91 45 231 62t333 17h47q-1 39 -8.5 69t-31.5 50q-24 19 -69.5 29t-120.5 10q-53 0 -102 -8.5t-92 -21.5q-44 -14 -80 -31t-62 -33l-159 235q31 21 83 46t121 46t151.5 35.5
t174.5 14.5q157 0 255 -26t154 -81q55 -56 75 -143.5t20 -210.5v-352q0 -35 2.5 -56t12.5 -32t30 -15t55 -4v-262q-17 -5 -49 -6.5t-86 -1.5q-46 0 -80 5t-59 18q-26 13 -45.5 35.5t-36.5 56.5q-45 -60 -143.5 -94.5t-264.5 -34.5v0zM551 240q76 0 131 13.5t91 43.5
q35 29 52 74.5t17 109.5v43h-27q-102 0 -176 -3t-125 -10t-82 -18.5t-48 -28.5q-17 -18 -22.5 -42t-5.5 -55q0 -32 9.5 -56t32.5 -40t60 -23.5t93 -7.5v0zM170 1407q84 103 170.5 162t173.5 59q54 0 91.5 -17t68.5 -38q30 -21 58.5 -38t64.5 -17q35 0 77 28.5t95 91.5
l178 -145q-84 -103 -170.5 -164t-173.5 -61q-51 0 -88.5 17t-68.5 38t-60.5 38t-65.5 17q-34 0 -77.5 -26.5t-94.5 -89.5z" />
    <glyph glyph-name="adieresis" unicode="&#xe4;" horiz-adv-x="1321" 
d="M487 -18q-134 0 -219 27.5t-133 75.5t-66 113.5t-18 141.5q0 123 44 201.5t136 124.5q91 45 231 62t333 17h47q-1 39 -8.5 69t-31.5 50q-24 19 -69.5 29t-120.5 10q-53 0 -102 -8.5t-92 -21.5q-44 -14 -80 -31t-62 -33l-159 235q31 21 83 46t121 46t151.5 35.5
t174.5 14.5q157 0 255 -26t154 -81q55 -56 75 -143.5t20 -210.5v-352q0 -35 2.5 -56t12.5 -32t30 -15t55 -4v-262q-17 -5 -49 -6.5t-86 -1.5q-46 0 -80 5t-59 18q-26 13 -45.5 35.5t-36.5 56.5q-45 -60 -143.5 -94.5t-264.5 -34.5v0zM551 240q76 0 131 13.5t91 43.5
q35 29 52 74.5t17 109.5v43h-27q-102 0 -176 -3t-125 -10t-82 -18.5t-48 -28.5q-17 -18 -22.5 -42t-5.5 -55q0 -32 9.5 -56t32.5 -40t60 -23.5t93 -7.5v0zM285 1559h290v-279h-290v279zM750 1559h288v-279h-288v279z" />
    <glyph glyph-name="aring" unicode="&#xe5;" horiz-adv-x="1321" 
d="M487 -18q-134 0 -219 27.5t-133 75.5t-66 113.5t-18 141.5q0 123 44 201.5t136 124.5q91 45 231 62t333 17h47q-1 39 -8.5 69t-31.5 50q-24 19 -69.5 29t-120.5 10q-53 0 -102 -8.5t-92 -21.5q-44 -14 -80 -31t-62 -33l-159 235q31 21 83 46t121 46t151.5 35.5
t174.5 14.5q157 0 255 -26t154 -81q55 -56 75 -143.5t20 -210.5v-352q0 -35 2.5 -56t12.5 -32t30 -15t55 -4v-262q-17 -5 -49 -6.5t-86 -1.5q-46 0 -80 5t-59 18q-26 13 -45.5 35.5t-36.5 56.5q-45 -60 -143.5 -94.5t-264.5 -34.5v0zM551 240q76 0 131 13.5t91 43.5
q35 29 52 74.5t17 109.5v43h-27q-102 0 -176 -3t-125 -10t-82 -18.5t-48 -28.5q-17 -18 -22.5 -42t-5.5 -55q0 -32 9.5 -56t32.5 -40t60 -23.5t93 -7.5v0zM662 1237q-78 0 -134 23t-91 63q-35 39 -51.5 93.5t-16.5 117.5t16.5 118t51.5 96q35 40 91 63.5t134 23.5
q74 0 128.5 -23.5t90.5 -63.5q36 -41 53.5 -96t17.5 -118t-17.5 -117.5t-53.5 -93.5q-36 -40 -90.5 -63t-128.5 -23v0zM662 1395q36 0 61 10.5t41 29.5q15 19 22 44.5t7 54.5q0 30 -7 56t-22 45q-16 18 -41 29t-61 11q-37 0 -62.5 -11t-41.5 -29q-16 -19 -23 -45t-7 -56
q0 -29 7 -54.5t23 -44.5t41.5 -29.5t62.5 -10.5v0z" />
    <glyph glyph-name="ae" unicode="&#xe6;" horiz-adv-x="2025" 
d="M1434 -23q-95 0 -169.5 12t-131.5 34q-58 22 -100 53.5t-72 70.5q-38 -57 -86 -90t-106 -49q-59 -17 -129.5 -21.5t-152.5 -4.5q-133 0 -217.5 26t-132.5 73q-49 47 -67.5 113t-18.5 146q0 123 42.5 201.5t133.5 124.5q90 45 231 62t337 17h47q-1 39 -8.5 69t-31.5 50
q-24 19 -69.5 29t-120.5 10q-53 0 -102 -8.5t-92 -21.5q-44 -14 -80 -31t-62 -33l-159 235q31 21 83 46t121 46t151.5 35.5t174.5 14.5q148 0 236.5 -29.5t136.5 -83.5q64 52 164 82.5t248 30.5q128 0 217 -27t147 -75q58 -49 90.5 -116.5t47.5 -147.5q14 -81 15.5 -172.5
t-1.5 -188.5h-807q7 -53 24.5 -94t51.5 -69q33 -28 86 -43t131 -15q67 0 120.5 7.5t97.5 21.5q43 14 78.5 33.5t67.5 43.5l162 -209q-56 -42 -111.5 -72t-117.5 -49t-134.5 -28t-162.5 -9v0zM549 240q78 0 133.5 13.5t91.5 43.5q35 29 51.5 74.5t16.5 109.5v43h-27
q-103 0 -177 -3t-125 -10t-82 -18.5t-47 -28.5q-17 -18 -22.5 -42t-5.5 -55q0 -32 8 -56t30 -40t59 -23.5t96 -7.5v0zM1423 918q-75 0 -126 -16t-84 -46t-49.5 -72.5t-22.5 -95.5h514q-2 50 -8.5 92t-29.5 73t-68.5 48t-125.5 17v0z" />
    <glyph glyph-name="ccedilla" unicode="&#xe7;" horiz-adv-x="1202" 
d="M600 -510q-85 0 -152 18.5t-122 49.5l80 149q46 -23 93 -36t89 -13q73 0 101 20t28 64q0 27 -13 42.5t-37 22.5q-24 8 -57 9t-73 -2l-62 39l31 141q-130 20 -214 72t-133 130q-49 77 -68 175.5t-19 210.5q0 84 10.5 161.5t36.5 144.5q25 67 69.5 122t112.5 94
q67 39 160.5 60.5t218.5 21.5q158 0 274 -49.5t197 -139.5l-225 -213q-18 19 -40.5 38.5t-51.5 34.5q-30 15 -67.5 24.5t-86.5 9.5q-86 0 -141 -22.5t-87 -63.5q-32 -42 -44.5 -101t-12.5 -131t11.5 -131t43.5 -101q32 -43 87.5 -66t144.5 -23q41 0 75.5 6.5t65.5 20.5
t60.5 35.5t60.5 50.5l205 -197q-49 -46 -97 -80.5t-102 -57.5t-118.5 -35t-147.5 -13l-12 -68q48 1 94 -2.5t82 -23.5q36 -19 58 -59t22 -110q0 -65 -23.5 -109t-65.5 -71q-43 -26 -103.5 -37.5t-135.5 -11.5v0z" />
    <glyph glyph-name="egrave" unicode="&#xe8;" horiz-adv-x="1268" 
d="M676 -23q-125 0 -219 22t-161 62q-67 39 -110.5 94.5t-68.5 123.5q-25 67 -35 143.5t-10 159.5q0 81 10 157t36 143q25 67 69 123t111 96q66 40 159 62.5t217 22.5q127 0 216 -27t147 -75q58 -49 90 -116.5t47 -147.5q15 -81 16.5 -172.5t-0.5 -188.5h-807
q7 -53 24.5 -94t51.5 -69q33 -28 86 -43t131 -15q67 0 120 7.5t97 21.5q43 14 79 33.5t68 43.5l162 -209q-56 -42 -113 -72t-120 -49t-135 -28t-158 -9v0zM664 918q-75 0 -126 -16t-83 -46q-33 -30 -49.5 -72.5t-22.5 -95.5h514q-3 50 -12 92t-33 73q-25 31 -69.5 48
t-118.5 17v0zM168 1645h387l289 -375h-285z" />
    <glyph glyph-name="eacute" unicode="&#xe9;" horiz-adv-x="1268" 
d="M711 1645h387l-391 -375h-285zM676 -23q-125 0 -219 22t-161 62q-67 39 -110.5 94.5t-68.5 123.5q-25 67 -35 143.5t-10 159.5q0 81 10 157t36 143q25 67 69 123t111 96q66 40 159 62.5t217 22.5q127 0 216 -27t147 -75q58 -49 90 -116.5t47 -147.5q15 -81 16.5 -172.5
t-0.5 -188.5h-807q7 -53 24.5 -94t51.5 -69q33 -28 86 -43t131 -15q67 0 120 7.5t97 21.5q43 14 79 33.5t68 43.5l162 -209q-56 -42 -113 -72t-120 -49t-135 -28t-158 -9v0zM664 918q-75 0 -126 -16t-83 -46q-33 -30 -49.5 -72.5t-22.5 -95.5h514q-3 50 -12 92t-33 73
q-25 31 -69.5 48t-118.5 17v0z" />
    <glyph glyph-name="ecircumflex" unicode="&#xea;" horiz-adv-x="1268" 
d="M467 1645h332l317 -375h-301l-186 176l-185 -176h-294zM676 -23q-125 0 -219 22t-161 62q-67 39 -110.5 94.5t-68.5 123.5q-25 67 -35 143.5t-10 159.5q0 81 10 157t36 143q25 67 69 123t111 96q66 40 159 62.5t217 22.5q127 0 216 -27t147 -75q58 -49 90 -116.5
t47 -147.5q15 -81 16.5 -172.5t-0.5 -188.5h-807q7 -53 24.5 -94t51.5 -69q33 -28 86 -43t131 -15q67 0 120 7.5t97 21.5q43 14 79 33.5t68 43.5l162 -209q-56 -42 -113 -72t-120 -49t-135 -28t-158 -9v0zM664 918q-75 0 -126 -16t-83 -46q-33 -30 -49.5 -72.5t-22.5 -95.5
h514q-3 50 -12 92t-33 73q-25 31 -69.5 48t-118.5 17v0z" />
    <glyph glyph-name="edieresis" unicode="&#xeb;" horiz-adv-x="1268" 
d="M256 1559h291v-279h-291v279zM721 1559h289v-279h-289v279zM676 -23q-125 0 -219 22t-161 62q-67 39 -110.5 94.5t-68.5 123.5q-25 67 -35 143.5t-10 159.5q0 81 10 157t36 143q25 67 69 123t111 96q66 40 159 62.5t217 22.5q127 0 216 -27t147 -75q58 -49 90 -116.5
t47 -147.5q15 -81 16.5 -172.5t-0.5 -188.5h-807q7 -53 24.5 -94t51.5 -69q33 -28 86 -43t131 -15q67 0 120 7.5t97 21.5q43 14 79 33.5t68 43.5l162 -209q-56 -42 -113 -72t-120 -49t-135 -28t-158 -9v0zM664 918q-75 0 -126 -16t-83 -46q-33 -30 -49.5 -72.5t-22.5 -95.5
h514q-3 50 -12 92t-33 73q-25 31 -69.5 48t-118.5 17v0z" />
    <glyph glyph-name="igrave" unicode="&#xec;" horiz-adv-x="600" 
d="M-125 1645h391l191 -375h-291zM139 1159h320v-1159h-320v1159z" />
    <glyph glyph-name="iacute" unicode="&#xed;" horiz-adv-x="600" 
d="M332 1645h393l-291 -375h-291zM139 1159h320v-1159h-320v1159z" />
    <glyph glyph-name="icircumflex" unicode="&#xee;" horiz-adv-x="600" 
d="M141 1645h316l266 -375h-293l-135 176l-135 -176h-285zM139 1159h320v-1159h-320v1159z" />
    <glyph glyph-name="idieresis" unicode="&#xef;" horiz-adv-x="600" 
d="M-33 1559h258v-279h-258v279zM375 1559h258v-279h-258v279zM139 1159h320v-1159h-320v1159z" />
    <glyph glyph-name="eth" unicode="&#xf0;" horiz-adv-x="1358" 
d="M569 1382l127 25q-23 31 -47.5 62t-52.5 63l309 100q35 -33 68 -72t63 -83l267 55v-209l-160 -33q66 -143 103.5 -311.5t37.5 -351.5q0 -175 -38 -298.5t-114 -201.5t-190 -114t-266 -36q-164 0 -279 41t-187 115t-105 178t-33 230q0 117 25 218.5t84 176.5t156.5 118.5
t242.5 43.5q118 0 199 -17t126 -65q-11 45 -31.5 97t-54.5 112l-250 -51v208zM676 252q81 0 135.5 21t87.5 60q33 38 47.5 93t14.5 123q0 69 -14.5 123t-47.5 91q-33 36 -87.5 55.5t-135.5 19.5q-78 0 -132 -19.5t-87 -55.5q-33 -37 -47.5 -91t-14.5 -123q0 -68 14.5 -123
t47.5 -93q33 -39 87 -60t132 -21v0z" />
    <glyph glyph-name="ntilde" unicode="&#xf1;" horiz-adv-x="1360" 
d="M127 1141l250 18l26 -100q23 25 57 48t84 41q50 17 118.5 27.5t160.5 10.5q132 0 213.5 -35t126.5 -98q45 -64 60.5 -153.5t15.5 -197.5v-702h-319v639q0 53 -5.5 97.5t-26.5 77.5q-22 32 -64 50.5t-115 18.5q-84 0 -135 -19t-79 -53t-37 -81.5t-9 -104.5v-625h-322v1141
zM186 1407q84 103 171 162t173 59q54 0 91.5 -17t68.5 -38t59.5 -38t63.5 -17t77 28.5t95 91.5l178 -145q-83 -103 -170 -164t-174 -61q-51 0 -88 17t-68 38t-60.5 38t-65.5 17q-34 0 -77.5 -26.5t-94.5 -89.5z" />
    <glyph glyph-name="ograve" unicode="&#xf2;" horiz-adv-x="1354" 
d="M678 -23q-164 0 -279 40t-187 117q-73 77 -106.5 189.5t-33.5 258.5t33.5 258.5t106.5 189.5q72 77 187 116.5t279 39.5q163 0 278 -39.5t188 -116.5q72 -77 105 -189.5t33 -258.5t-33 -258.5t-105 -189.5q-73 -77 -188 -117t-278 -40v0zM678 252q83 0 137.5 22.5
t87.5 64.5q32 42 45 101t13 133t-13 133t-45 101q-33 41 -87.5 63.5t-137.5 22.5q-84 0 -138.5 -22.5t-86.5 -63.5q-32 -42 -45 -101t-13 -133t13 -133t45 -101t86.5 -64.5t138.5 -22.5v0zM211 1645h387l289 -375h-285z" />
    <glyph glyph-name="oacute" unicode="&#xf3;" horiz-adv-x="1354" 
d="M754 1645h387l-391 -375h-285zM678 -23q-164 0 -279 40t-187 117q-73 77 -106.5 189.5t-33.5 258.5t33.5 258.5t106.5 189.5q72 77 187 116.5t279 39.5q163 0 278 -39.5t188 -116.5q72 -77 105 -189.5t33 -258.5t-33 -258.5t-105 -189.5q-73 -77 -188 -117t-278 -40v0z
M678 252q83 0 137.5 22.5t87.5 64.5q32 42 45 101t13 133t-13 133t-45 101q-33 41 -87.5 63.5t-137.5 22.5q-84 0 -138.5 -22.5t-86.5 -63.5q-32 -42 -45 -101t-13 -133t13 -133t45 -101t86.5 -64.5t138.5 -22.5v0z" />
    <glyph glyph-name="ocircumflex" unicode="&#xf4;" horiz-adv-x="1354" 
d="M510 1645h332l317 -375h-301l-186 176l-185 -176h-294zM678 -23q-164 0 -279 40t-187 117q-73 77 -106.5 189.5t-33.5 258.5t33.5 258.5t106.5 189.5q72 77 187 116.5t279 39.5q163 0 278 -39.5t188 -116.5q72 -77 105 -189.5t33 -258.5t-33 -258.5t-105 -189.5
q-73 -77 -188 -117t-278 -40v0zM678 252q83 0 137.5 22.5t87.5 64.5q32 42 45 101t13 133t-13 133t-45 101q-33 41 -87.5 63.5t-137.5 22.5q-84 0 -138.5 -22.5t-86.5 -63.5q-32 -42 -45 -101t-13 -133t13 -133t45 -101t86.5 -64.5t138.5 -22.5v0z" />
    <glyph glyph-name="otilde" unicode="&#xf5;" horiz-adv-x="1354" 
d="M678 -23q-164 0 -279 40t-187 117q-73 77 -106.5 189.5t-33.5 258.5t33.5 258.5t106.5 189.5q72 77 187 116.5t279 39.5q163 0 278 -39.5t188 -116.5q72 -77 105 -189.5t33 -258.5t-33 -258.5t-105 -189.5q-73 -77 -188 -117t-278 -40v0zM678 252q83 0 137.5 22.5
t87.5 64.5q32 42 45 101t13 133t-13 133t-45 101q-33 41 -87.5 63.5t-137.5 22.5q-84 0 -138.5 -22.5t-86.5 -63.5q-32 -42 -45 -101t-13 -133t13 -133t45 -101t86.5 -64.5t138.5 -22.5v0zM184 1407q84 103 171 162t173 59q54 0 91.5 -17t68.5 -38t59.5 -38t63.5 -17
t77 28.5t95 91.5l178 -145q-83 -103 -170 -164t-174 -61q-51 0 -88 17t-68 38t-60.5 38t-65.5 17q-35 0 -78.5 -26.5t-94.5 -89.5z" />
    <glyph glyph-name="odieresis" unicode="&#xf6;" horiz-adv-x="1354" 
d="M299 1559h291v-279h-291v279zM764 1559h289v-279h-289v279zM678 -23q-164 0 -279 40t-187 117q-73 77 -106.5 189.5t-33.5 258.5t33.5 258.5t106.5 189.5q72 77 187 116.5t279 39.5q163 0 278 -39.5t188 -116.5q72 -77 105 -189.5t33 -258.5t-33 -258.5t-105 -189.5
q-73 -77 -188 -117t-278 -40v0zM678 252q83 0 137.5 22.5t87.5 64.5q32 42 45 101t13 133t-13 133t-45 101q-33 41 -87.5 63.5t-137.5 22.5q-84 0 -138.5 -22.5t-86.5 -63.5q-32 -42 -45 -101t-13 -133t13 -133t45 -101t86.5 -64.5t138.5 -22.5v0z" />
    <glyph glyph-name="divide" unicode="&#xf7;" horiz-adv-x="1479" 
d="M578 438h323v-276h-323v276zM190 866h1098v-288h-1098v288zM578 1282h323v-276h-323v276z" />
    <glyph glyph-name="oslash" unicode="&#xf8;" horiz-adv-x="1354" 
d="M678 -23q-65 0 -120.5 6t-104.5 17l-56 -88h-286l122 192q-87 77 -124 197.5t-37 280.5q0 146 31 258.5t102 189.5t187 116.5t286 39.5q62 0 117.5 -5.5t103.5 -17.5l57 88h289l-125 -194q87 -78 124.5 -196t37.5 -279q0 -146 -31 -258.5t-101 -189.5q-71 -77 -187 -117
t-285 -40v0zM678 244q86 0 142 23.5t89 66.5q32 43 45 104t13 135q0 62 -9 113.5t-30 91.5l-330 -528q17 -3 37 -4.5t43 -1.5v0zM389 573q0 -58 7 -108t26 -90l323 520q-15 3 -31.5 4.5t-35.5 1.5q-87 0 -143 -23.5t-88 -65.5q-33 -43 -45.5 -103.5t-12.5 -135.5v0z" />
    <glyph glyph-name="ugrave" unicode="&#xf9;" horiz-adv-x="1343" 
d="M674 -18q-166 0 -273 31.5t-169 99.5q-63 67 -87 173t-24 255v618h321v-624q0 -61 4 -111.5t27 -86.5q22 -37 69.5 -57t133.5 -20q85 0 132 20.5t69 57.5q22 36 26 87t4 112v622h316v-616q0 -149 -23.5 -255.5t-84.5 -174.5q-62 -68 -168.5 -99.5t-272.5 -31.5v0z
M207 1645h387l289 -375h-285z" />
    <glyph glyph-name="uacute" unicode="&#xfa;" horiz-adv-x="1343" 
d="M750 1645h387l-392 -375h-284zM674 -18q-166 0 -273 31.5t-169 99.5q-63 67 -87 173t-24 255v618h321v-624q0 -61 4 -111.5t27 -86.5q22 -37 69.5 -57t133.5 -20q85 0 132 20.5t69 57.5q22 36 26 87t4 112v622h316v-616q0 -149 -23.5 -255.5t-84.5 -174.5
q-62 -68 -168.5 -99.5t-272.5 -31.5v0z" />
    <glyph glyph-name="ucircumflex" unicode="&#xfb;" horiz-adv-x="1343" 
d="M506 1645h332l317 -375h-301l-186 176l-185 -176h-295zM674 -18q-166 0 -273 31.5t-169 99.5q-63 67 -87 173t-24 255v618h321v-624q0 -61 4 -111.5t27 -86.5q22 -37 69.5 -57t133.5 -20q85 0 132 20.5t69 57.5q22 36 26 87t4 112v622h316v-616q0 -149 -23.5 -255.5
t-84.5 -174.5q-62 -68 -168.5 -99.5t-272.5 -31.5v0z" />
    <glyph glyph-name="udieresis" unicode="&#xfc;" horiz-adv-x="1343" 
d="M295 1559h291v-279h-291v279zM760 1559h289v-279h-289v279zM674 -18q-166 0 -273 31.5t-169 99.5q-63 67 -87 173t-24 255v618h321v-624q0 -61 4 -111.5t27 -86.5q22 -37 69.5 -57t133.5 -20q85 0 132 20.5t69 57.5q22 36 26 87t4 112v622h316v-616q0 -149 -23.5 -255.5
t-84.5 -174.5q-62 -68 -168.5 -99.5t-272.5 -31.5v0z" />
    <glyph glyph-name="yacute" unicode="&#xfd;" horiz-adv-x="1196" 
d="M274 -348q-9 0 -23 0.5t-30 0.5q-16 1 -32 1.5t-29 1.5v242h86q48 0 79.5 4t51.5 13q20 10 30.5 26.5t18.5 42.5l14 43l-442 1132h346l268 -737l260 737h326l-465 -1210q-30 -81 -66 -137.5t-88 -92.5q-52 -35 -126 -51t-179 -16v0zM678 1645h387l-391 -375h-285z" />
    <glyph glyph-name="thorn" unicode="&#xfe;" horiz-adv-x="1395" 
d="M127 1589h319v-514q48 56 140 83.5t241 27.5t245.5 -47.5t152.5 -129.5q55 -82 76.5 -192t21.5 -235t-22.5 -235t-80.5 -191q-58 -82 -157.5 -129t-253.5 -47q-78 0 -137 7.5t-101 21.5q-43 13 -72.5 33t-49.5 46v-426h-322v1927zM745 254q78 0 127 23.5t77 65.5
q27 41 37.5 99t10.5 127q0 70 -9.5 129.5t-36.5 102.5q-28 43 -77.5 67.5t-128.5 24.5q-83 0 -139.5 -19t-91.5 -59t-50 -101t-15 -145q0 -83 13.5 -142.5t47.5 -97.5q33 -39 90.5 -57t144.5 -18v0z" />
    <glyph glyph-name="ydieresis" unicode="&#xff;" horiz-adv-x="1196" 
d="M274 -348q-9 0 -23 0.5t-30 0.5q-16 1 -32 1.5t-29 1.5v242h86q48 0 79.5 4t51.5 13q20 10 30.5 26.5t18.5 42.5l14 43l-442 1132h346l268 -737l260 737h326l-465 -1210q-30 -81 -66 -137.5t-88 -92.5q-52 -35 -126 -51t-179 -16v0zM223 1559h291v-279h-291v279z
M688 1559h289v-279h-289v279z" />
    <glyph glyph-name="Amacron" unicode="&#x100;" horiz-adv-x="1616" 
d="M637 1528h340l612 -1528h-348l-98 250h-688l-99 -250h-327zM1036 526l-237 604l-238 -604h475zM375 1835h860v-256h-860v256z" />
    <glyph glyph-name="amacron" unicode="&#x101;" horiz-adv-x="1321" 
d="M487 -18q-134 0 -219 27.5t-133 75.5t-66 113.5t-18 141.5q0 123 44 201.5t136 124.5q91 45 231 62t333 17h47q-1 39 -8.5 69t-31.5 50q-24 19 -69.5 29t-120.5 10q-53 0 -102 -8.5t-92 -21.5q-44 -14 -80 -31t-62 -33l-159 235q31 21 83 46t121 46t151.5 35.5
t174.5 14.5q157 0 255 -26t154 -81q55 -56 75 -143.5t20 -210.5v-352q0 -35 2.5 -56t12.5 -32t30 -15t55 -4v-262q-17 -5 -49 -6.5t-86 -1.5q-46 0 -80 5t-59 18q-26 13 -45.5 35.5t-36.5 56.5q-45 -60 -143.5 -94.5t-264.5 -34.5v0zM551 240q76 0 131 13.5t91 43.5
q35 29 52 74.5t17 109.5v43h-27q-102 0 -176 -3t-125 -10t-82 -18.5t-48 -28.5q-17 -18 -22.5 -42t-5.5 -55q0 -32 9.5 -56t32.5 -40t60 -23.5t93 -7.5v0zM231 1505h861v-256h-861v256z" />
    <glyph glyph-name="Abreve" unicode="&#x102;" horiz-adv-x="1616" 
d="M637 1528h340l612 -1528h-348l-98 250h-688l-99 -250h-327zM1036 526l-237 604l-238 -604h475zM805 1569q-114 0 -190 29t-126 82q-50 52 -78 126t-46 164l231 43q12 -52 26.5 -89.5t37.5 -61.5t58 -35.5t87 -11.5t87 11.5t58 35.5t37.5 61.5t26.5 89.5l233 -41
q-19 -91 -48 -165.5t-79 -126.5q-50 -53 -126 -82t-189 -29v0z" />
    <glyph glyph-name="abreve" unicode="&#x103;" horiz-adv-x="1321" 
d="M487 -18q-134 0 -219 27.5t-133 75.5t-66 113.5t-18 141.5q0 123 44 201.5t136 124.5q91 45 231 62t333 17h47q-1 39 -8.5 69t-31.5 50q-24 19 -69.5 29t-120.5 10q-53 0 -102 -8.5t-92 -21.5q-44 -14 -80 -31t-62 -33l-159 235q31 21 83 46t121 46t151.5 35.5
t174.5 14.5q157 0 255 -26t154 -81q55 -56 75 -143.5t20 -210.5v-352q0 -35 2.5 -56t12.5 -32t30 -15t55 -4v-262q-17 -5 -49 -6.5t-86 -1.5q-46 0 -80 5t-59 18q-26 13 -45.5 35.5t-36.5 56.5q-45 -60 -143.5 -94.5t-264.5 -34.5v0zM551 240q76 0 131 13.5t91 43.5
q35 29 52 74.5t17 109.5v43h-27q-102 0 -176 -3t-125 -10t-82 -18.5t-48 -28.5q-17 -18 -22.5 -42t-5.5 -55q0 -32 9.5 -56t32.5 -40t60 -23.5t93 -7.5v0zM662 1239q-114 0 -190.5 29t-126.5 82q-50 52 -78 126t-46 164l232 43q11 -52 25.5 -89.5t37.5 -61.5t58 -35.5
t88 -11.5q52 0 87 11.5t58 35.5t37.5 61.5t25.5 89.5l234 -41q-19 -91 -48 -165.5t-79 -126.5q-50 -53 -126 -82t-189 -29v0z" />
    <glyph glyph-name="Aogonek" unicode="&#x104;" horiz-adv-x="1616" 
d="M637 1528h340l612 -1528h-98q-98 -62 -140 -115.5t-42 -91.5q0 -18 4 -32.5t15 -24.5t31.5 -15.5t53.5 -5.5q43 0 85 9t73 20l59 -174q-57 -26 -124 -41.5t-136 -15.5q-87 0 -146 15t-95 43q-36 29 -51 69t-15 90q0 49 16.5 92t42.5 78q25 36 55 64t58 46l-92 240h-688
l-99 -250h-327zM1036 526l-237 604l-238 -604h475z" />
    <glyph glyph-name="aogonek" unicode="&#x105;" horiz-adv-x="1321" 
d="M487 -18q-134 0 -219 27.5t-133 75.5t-66 113.5t-18 141.5q0 123 44 201.5t136 124.5q91 45 231 62t333 17h47q-1 39 -8.5 69t-31.5 50q-24 19 -69.5 29t-120.5 10q-53 0 -102 -8.5t-92 -21.5q-44 -14 -80 -31t-62 -33l-159 235q31 21 83 46t121 46t151.5 35.5
t174.5 14.5q157 0 255 -26t154 -81q55 -56 75 -143.5t20 -210.5v-352q0 -35 2.5 -56t12.5 -32t30 -15t55 -4v-262q-109 -66 -155.5 -118.5t-46.5 -92.5q0 -18 4 -32.5t15 -24.5t31.5 -15.5t53.5 -5.5q43 0 85 9t73 20l59 -174q-57 -26 -124 -41.5t-136 -15.5q-87 0 -146 15
t-95 43q-36 29 -51 69t-15 90q0 56 19.5 101t48.5 80q28 36 61.5 61t60.5 40q-15 6 -28.5 14t-24.5 19q-13 12 -24 28.5t-21 37.5q-45 -60 -143.5 -94.5t-264.5 -34.5v0zM551 240q76 0 131 13.5t91 43.5q35 29 52 74.5t17 109.5v43h-27q-102 0 -176 -3t-125 -10t-82 -18.5
t-48 -28.5q-17 -18 -22.5 -42t-5.5 -55q0 -32 9.5 -56t32.5 -40t60 -23.5t93 -7.5v0z" />
    <glyph glyph-name="Cacute" unicode="&#x106;" horiz-adv-x="1554" 
d="M854 1974h387l-391 -375h-285zM850 -23q-213 0 -361.5 51.5t-241.5 151.5t-135 246t-42 334q0 204 54.5 352t157.5 244q102 95 250.5 140.5t337.5 45.5q104 0 190 -14t159 -41q72 -28 132.5 -69t114.5 -95l-231 -231q-35 34 -73 60.5t-82 45.5q-45 18 -97.5 27.5
t-114.5 9.5q-121 0 -208 -30.5t-143 -90.5q-56 -61 -82.5 -150.5t-26.5 -207.5q0 -114 23 -203.5t77 -150.5q54 -62 142.5 -94t219.5 -32q74 0 130 11.5t101 32.5t82 49t72 61l222 -217q-45 -47 -100.5 -89.5t-129.5 -74.5q-74 -33 -171 -52.5t-226 -19.5v0z" />
    <glyph glyph-name="cacute" unicode="&#x107;" horiz-adv-x="1202" 
d="M678 1645h387l-391 -375h-285zM666 -18q-180 0 -295.5 46t-181.5 127q-66 80 -91.5 189.5t-25.5 237.5q0 84 10.5 161.5t36.5 144.5q25 67 69.5 122t112.5 94q67 39 160.5 60.5t218.5 21.5q158 0 274 -49.5t197 -139.5l-225 -213q-18 19 -40.5 38.5t-51.5 34.5
q-30 15 -67.5 24.5t-86.5 9.5q-86 0 -141 -22.5t-87 -63.5q-32 -42 -44.5 -101t-12.5 -131t11.5 -131t43.5 -101q32 -43 87.5 -66t144.5 -23q41 0 75.5 6.5t65.5 20.5t60.5 35.5t60.5 50.5l205 -197q-51 -47 -100 -82t-105 -58t-123.5 -34.5t-154.5 -11.5v0z" />
    <glyph glyph-name="Ccircumflex" unicode="&#x108;" horiz-adv-x="1554" 
 />
    <glyph glyph-name="ccircumflex" unicode="&#x109;" horiz-adv-x="1202" 
 />
    <glyph glyph-name="Cdotaccent" unicode="&#x10a;" horiz-adv-x="1554" 
 />
    <glyph glyph-name="cdotaccent" unicode="&#x10b;" horiz-adv-x="1202" 
 />
    <glyph glyph-name="Ccaron" unicode="&#x10c;" horiz-adv-x="1554" 
d="M293 1974h301l186 -176l185 176h295l-318 -375h-332zM850 -23q-213 0 -361.5 51.5t-241.5 151.5t-135 246t-42 334q0 204 54.5 352t157.5 244q102 95 250.5 140.5t337.5 45.5q104 0 190 -14t159 -41q72 -28 132.5 -69t114.5 -95l-231 -231q-35 34 -73 60.5t-82 45.5
q-45 18 -97.5 27.5t-114.5 9.5q-121 0 -208 -30.5t-143 -90.5q-56 -61 -82.5 -150.5t-26.5 -207.5q0 -114 23 -203.5t77 -150.5q54 -62 142.5 -94t219.5 -32q74 0 130 11.5t101 32.5t82 49t72 61l222 -217q-45 -47 -100.5 -89.5t-129.5 -74.5q-74 -33 -171 -52.5t-226 -19.5
v0z" />
    <glyph glyph-name="ccaron" unicode="&#x10d;" horiz-adv-x="1202" 
d="M117 1645h301l186 -177l184 177h295l-317 -375h-332zM666 -18q-180 0 -295.5 46t-181.5 127q-66 80 -91.5 189.5t-25.5 237.5q0 84 10.5 161.5t36.5 144.5q25 67 69.5 122t112.5 94q67 39 160.5 60.5t218.5 21.5q158 0 274 -49.5t197 -139.5l-225 -213q-18 19 -40.5 38.5
t-51.5 34.5q-30 15 -67.5 24.5t-86.5 9.5q-86 0 -141 -22.5t-87 -63.5q-32 -42 -44.5 -101t-12.5 -131t11.5 -131t43.5 -101q32 -43 87.5 -66t144.5 -23q41 0 75.5 6.5t65.5 20.5t60.5 35.5t60.5 50.5l205 -197q-51 -47 -100 -82t-105 -58t-123.5 -34.5t-154.5 -11.5v0z" />
    <glyph glyph-name="Dcaron" unicode="&#x10e;" horiz-adv-x="1610" 
d="M319 1974h302l186 -176l184 176h295l-317 -375h-332zM152 1518h544q224 0 384.5 -34t263.5 -119q102 -86 150 -232.5t48 -372.5q0 -222 -49.5 -368.5t-153.5 -233.5t-265.5 -122.5t-385.5 -35.5h-536v1518zM707 293q155 0 252 25t152 81q54 55 73.5 144t19.5 217
q0 85 -7 152.5t-27 118.5q-20 50 -55 85.5t-91 58.5q-56 22 -135.5 32t-188.5 10h-213v-924h220z" />
    <glyph glyph-name="dcaron" unicode="&#x10f;" horiz-adv-x="1714" 
d="M1395 1128q46 22 74 37.5t44 30.5q15 15 20 32.5t5 43.5h-135v317h307v-225q0 -81 -8 -136t-34 -96t-74.5 -73.5t-129.5 -67.5zM575 -23q-150 0 -247 48t-154 131t-79.5 194t-22.5 236q0 124 23 233.5t82 191.5q58 81 157.5 128t251.5 47q79 0 138.5 -8.5t102.5 -22.5
q43 -15 72 -35t47 -43v512h322v-1577l-246 -22l-33 116q-26 -30 -62.5 -54t-86.5 -40q-50 -17 -115.5 -26t-149.5 -9v0zM651 254q83 0 139.5 20.5t91.5 61.5q34 41 49 103.5t15 146.5q0 82 -13 141t-46 97q-34 37 -91 55t-145 18q-79 0 -128.5 -22.5t-77.5 -63.5
q-28 -42 -38 -99t-10 -126q0 -70 10 -130.5t38 -105.5t77.5 -70.5t128.5 -25.5v0z" />
    <glyph glyph-name="Dcroat" unicode="&#x110;" horiz-adv-x="1610" 
d="M0 899h152v619h544q224 0 384.5 -34t263.5 -119q102 -86 150 -232.5t48 -372.5q0 -222 -52 -368.5t-158 -233.5t-266.5 -122.5t-377.5 -35.5h-536v635h-152v264zM707 293q155 0 252 25t152 81q54 55 73.5 144t19.5 217q0 85 -7 152.5t-27 118.5q-20 50 -55 85.5t-91 58.5
q-56 22 -135.5 32t-188.5 10h-213v-318h283v-264h-283v-342h220z" />
    <glyph glyph-name="dcroat" unicode="&#x111;" horiz-adv-x="1395" 
d="M711 1487h235v102h322v-102h127v-252h-127v-1223l-246 -22l-33 116q-26 -30 -62.5 -54t-86.5 -40q-50 -17 -115.5 -26t-149.5 -9q-150 0 -247 48t-154 131t-79.5 194t-22.5 236q0 124 23 233.5t82 191.5q58 81 157.5 128t251.5 47q79 0 138.5 -8.5t102.5 -22.5
q43 -15 72 -35t47 -43v158h-235v252zM651 254q83 0 139.5 20.5t91.5 61.5q34 41 49 103.5t15 146.5q0 82 -13 141t-46 97q-34 37 -91 55t-145 18q-79 0 -128.5 -22.5t-77.5 -63.5q-28 -42 -38 -99t-10 -126q0 -70 10 -130.5t38 -105.5t77.5 -70.5t128.5 -25.5v0z" />
    <glyph glyph-name="Emacron" unicode="&#x112;" horiz-adv-x="1407" 
d="M152 1518h1140v-304h-805v-294h785v-293h-785v-336h813v-291h-1148v1518zM272 1835h861v-256h-861v256z" />
    <glyph glyph-name="emacron" unicode="&#x113;" horiz-adv-x="1268" 
d="M676 -23q-125 0 -219 22t-161 62q-67 39 -110.5 94.5t-68.5 123.5q-25 67 -35 143.5t-10 159.5q0 81 10 157t36 143q25 67 69 123t111 96q66 40 159 62.5t217 22.5q127 0 216 -27t147 -75q58 -49 90 -116.5t47 -147.5q15 -81 16.5 -172.5t-0.5 -188.5h-807
q7 -53 24.5 -94t51.5 -69q33 -28 86 -43t131 -15q67 0 120 7.5t97 21.5q43 14 79 33.5t68 43.5l162 -209q-56 -42 -113 -72t-120 -49t-135 -28t-158 -9v0zM664 918q-75 0 -126 -16t-83 -46q-33 -30 -49.5 -72.5t-22.5 -95.5h514q-3 50 -12 92t-33 73q-25 31 -69.5 48
t-118.5 17v0zM203 1505h860v-256h-860v256z" />
    <glyph glyph-name="Ebreve" unicode="&#x114;" horiz-adv-x="1407" 
 />
    <glyph glyph-name="ebreve" unicode="&#x115;" horiz-adv-x="1268" 
 />
    <glyph glyph-name="Edotaccent" unicode="&#x116;" horiz-adv-x="1407" 
d="M152 1518h1140v-304h-805v-294h785v-293h-785v-336h813v-291h-1148v1518zM539 1880h325v-285h-325v285z" />
    <glyph glyph-name="edotaccent" unicode="&#x117;" horiz-adv-x="1268" 
d="M676 -23q-125 0 -219 22t-161 62q-67 39 -110.5 94.5t-68.5 123.5q-25 67 -35 143.5t-10 159.5q0 81 10 157t36 143q25 67 69 123t111 96q66 40 159 62.5t217 22.5q127 0 216 -27t147 -75q58 -49 90 -116.5t47 -147.5q15 -81 16.5 -172.5t-0.5 -188.5h-807
q7 -53 24.5 -94t51.5 -69q33 -28 86 -43t131 -15q67 0 120 7.5t97 21.5q43 14 79 33.5t68 43.5l162 -209q-56 -42 -113 -72t-120 -49t-135 -28t-158 -9v0zM664 918q-75 0 -126 -16t-83 -46q-33 -30 -49.5 -72.5t-22.5 -95.5h514q-3 50 -12 92t-33 73q-25 31 -69.5 48
t-118.5 17v0zM469 1550h326v-284h-326v284z" />
    <glyph glyph-name="Eogonek" unicode="&#x118;" horiz-adv-x="1407" 
d="M152 1518h1140v-304h-805v-294h785v-293h-785v-336h813v-291h-167q-92 -60 -132 -115t-40 -92q0 -18 4 -32.5t15 -24.5t31.5 -15.5t53.5 -5.5q21 0 46 3t49 7q24 5 46 10.5t37 10.5l60 -174q-29 -13 -63.5 -24t-70.5 -19q-37 -7 -75 -11.5t-72 -4.5q-88 0 -147 15t-94 43
q-36 29 -51 69t-15 90q0 49 15 91t39 75q24 34 52.5 60t55.5 44h-725v1518z" />
    <glyph glyph-name="eogonek" unicode="&#x119;" horiz-adv-x="1268" 
d="M842 -487q-88 0 -147 15t-94 43q-36 29 -51 69t-15 90q0 42 11 78.5t30 67.5q18 31 41.5 56.5t48.5 44.5q-123 1 -215.5 23.5t-158.5 62.5t-108.5 95.5t-67.5 122.5q-25 66 -34.5 142.5t-9.5 158.5q0 81 10 157t36 143q25 67 69 123t111 96q66 40 159 62.5t217 22.5
q127 0 216 -27t147 -75q58 -49 90 -116.5t47 -147.5q15 -81 16.5 -172.5t-0.5 -188.5h-807q7 -53 24.5 -94t51.5 -69q33 -28 86 -43t131 -15q67 0 120 7.5t97 21.5q43 14 79 33.5t68 43.5l162 -209q-54 -40 -107.5 -69t-113.5 -48h2q-54 -33 -92.5 -65t-62.5 -61
q-25 -29 -36.5 -54t-11.5 -45q0 -18 4 -32.5t16 -24.5q11 -10 31.5 -15.5t53.5 -5.5q21 0 46 3t49 7q24 5 46 10.5t37 10.5l59 -174q-28 -13 -62.5 -24t-70.5 -19q-37 -7 -75 -11.5t-72 -4.5v0zM664 918q-75 0 -126 -16t-83 -46q-33 -30 -49.5 -72.5t-22.5 -95.5h514
q-3 50 -12 92t-33 73q-25 31 -69.5 48t-118.5 17v0z" />
    <glyph glyph-name="Ecaron" unicode="&#x11a;" horiz-adv-x="1407" 
d="M219 1974h301l187 -176l184 176h295l-318 -375h-331zM152 1518h1140v-304h-805v-294h785v-293h-785v-336h813v-291h-1148v1518z" />
    <glyph glyph-name="ecaron" unicode="&#x11b;" horiz-adv-x="1268" 
d="M150 1645h301l186 -177l184 177h295l-317 -375h-332zM676 -23q-125 0 -219 22t-161 62q-67 39 -110.5 94.5t-68.5 123.5q-25 67 -35 143.5t-10 159.5q0 81 10 157t36 143q25 67 69 123t111 96q66 40 159 62.5t217 22.5q127 0 216 -27t147 -75q58 -49 90 -116.5t47 -147.5
q15 -81 16.5 -172.5t-0.5 -188.5h-807q7 -53 24.5 -94t51.5 -69q33 -28 86 -43t131 -15q67 0 120 7.5t97 21.5q43 14 79 33.5t68 43.5l162 -209q-56 -42 -113 -72t-120 -49t-135 -28t-158 -9v0zM664 918q-75 0 -126 -16t-83 -46q-33 -30 -49.5 -72.5t-22.5 -95.5h514
q-3 50 -12 92t-33 73q-25 31 -69.5 48t-118.5 17v0z" />
    <glyph glyph-name="Gcircumflex" unicode="&#x11c;" horiz-adv-x="1636" 
 />
    <glyph glyph-name="gcircumflex" unicode="&#x11d;" horiz-adv-x="1335" 
 />
    <glyph glyph-name="Gbreve" unicode="&#x11e;" horiz-adv-x="1636" 
d="M846 -23q-227 0 -377 51.5t-238 151.5q-89 99 -125 245t-36 335q0 206 52.5 354t154.5 243t250.5 140t340.5 45q115 0 209 -16t169 -44q75 -29 133.5 -68.5t103.5 -86.5l-230 -231q-29 27 -63.5 52.5t-80.5 44.5t-105.5 30.5t-137.5 11.5q-124 0 -211.5 -30.5
t-142.5 -90.5q-55 -61 -80.5 -150.5t-25.5 -207.5q0 -125 20 -218t71 -154q51 -62 139.5 -93t225.5 -31q111 0 184 18.5t117 57.5q44 38 62 96.5t18 138.5v33h-424v279h756v-248q0 -162 -35.5 -285t-119.5 -206q-85 -83 -225 -125t-349 -42v0zM817 1569q-114 0 -190 29
t-126 82q-50 52 -78 126t-46 164l231 43q12 -52 26.5 -89.5t37.5 -61.5t58 -35.5t87 -11.5t87 11.5t58 35.5t37.5 61.5t26.5 89.5l234 -41q-20 -91 -49 -165.5t-79 -126.5q-50 -53 -126 -82t-189 -29v0z" />
    <glyph glyph-name="gbreve" unicode="&#x11f;" horiz-adv-x="1335" 
d="M641 426q-41 0 -79.5 1.5t-74.5 4.5q-5 -10 -7.5 -20t-2.5 -21q0 -21 8 -33t29 -19t58 -9t96 -2q180 0 296 -15t184 -51q67 -37 93.5 -98.5t26.5 -153.5q0 -104 -38.5 -176t-116.5 -117q-78 -44 -197 -64t-279 -20q-166 0 -280.5 11.5t-185.5 42.5q-72 31 -104 86.5
t-32 142.5q0 98 54 166t173 94q-23 16 -36.5 35t-20.5 40q-8 21 -10 43.5t-2 45.5q0 50 14.5 90.5t42.5 71.5q-78 45 -114 116.5t-36 174.5q0 95 30.5 168.5t96.5 123.5q65 50 167.5 75.5t246.5 25.5h31.5t32.5 -2l516 102v-244h-166q60 -32 94.5 -90t34.5 -159
q0 -95 -31.5 -164.5t-97.5 -114.5q-67 -45 -169.5 -66.5t-244.5 -21.5v0zM649 -145q88 0 145 8.5t89 25.5t44.5 42t12.5 57q0 31 -14 51.5t-47 32.5q-34 12 -90 17t-140 5q-97 0 -154.5 -8t-87.5 -23q-31 -16 -40 -38.5t-9 -51.5q0 -32 12.5 -54t45.5 -37q32 -14 88.5 -20.5
t144.5 -6.5v0zM641 639q66 0 109.5 9.5t70.5 28.5q26 18 36.5 46t10.5 65q0 38 -11.5 66t-37.5 47q-27 19 -70.5 28t-107.5 9q-65 0 -109 -9t-70 -28t-37 -47t-11 -66q0 -37 11 -65t37 -46q26 -19 70 -28.5t109 -9.5v0zM666 1239q-114 0 -190.5 29t-126.5 82q-50 52 -78 126
t-46 164l232 43q11 -52 25.5 -89.5t37.5 -61.5t58 -35.5t88 -11.5q52 0 87 11.5t58 35.5t37.5 61.5t25.5 89.5l234 -41q-19 -91 -48 -165.5t-79 -126.5q-50 -53 -126 -82t-189 -29v0z" />
    <glyph glyph-name="Gdotaccent" unicode="&#x120;" horiz-adv-x="1636" 
 />
    <glyph glyph-name="gdotaccent" unicode="&#x121;" horiz-adv-x="1335" 
 />
    <glyph glyph-name="Gcommaaccent" unicode="&#x122;" horiz-adv-x="1636" 
d="M664 -541q46 22 74 38.5t44 31.5q15 15 20 32.5t5 43.5h-152v317h324v-225q0 -54 -3.5 -96.5t-12.5 -76.5q-9 -33 -26 -60t-44 -51q-28 -23 -67 -44.5t-93 -44.5zM846 -23q-227 0 -377 51.5t-238 151.5q-89 99 -125 245t-36 335q0 206 52.5 354t154.5 243t250.5 140
t340.5 45q115 0 209 -16t169 -44q75 -29 133.5 -68.5t103.5 -86.5l-230 -231q-29 27 -63.5 52.5t-80.5 44.5t-105.5 30.5t-137.5 11.5q-124 0 -211.5 -30.5t-142.5 -90.5q-55 -61 -80.5 -150.5t-25.5 -207.5q0 -125 20 -218t71 -154q51 -62 139.5 -93t225.5 -31
q111 0 184 18.5t117 57.5q44 38 62 96.5t18 138.5v33h-424v279h756v-248q0 -162 -35.5 -285t-119.5 -206q-85 -83 -225 -125t-349 -42v0z" />
    <glyph glyph-name="gcommaaccent" unicode="&#x123;" horiz-adv-x="1335" 
d="M504 1464q0 81 8.5 136t35.5 96q26 41 75.5 73.5t130.5 67.5l65 -135q-45 -23 -73 -39t-43 -31t-20 -33t-5 -43h149v-288h-323v196zM641 426q-41 0 -79.5 1.5t-74.5 4.5q-5 -10 -7.5 -20t-2.5 -21q0 -21 8 -33t29 -19t58 -9t96 -2q180 0 296 -15t184 -51
q67 -37 93.5 -98.5t26.5 -153.5q0 -104 -38.5 -176t-116.5 -117q-78 -44 -197 -64t-279 -20q-166 0 -280.5 11.5t-185.5 42.5q-72 31 -104 86.5t-32 142.5q0 98 54 166t173 94q-23 16 -36.5 35t-20.5 40q-8 21 -10 43.5t-2 45.5q0 50 14.5 90.5t42.5 71.5q-78 45 -114 116.5
t-36 174.5q0 95 30.5 168.5t96.5 123.5q65 50 167.5 75.5t246.5 25.5h31.5t32.5 -2l516 102v-244h-166q60 -32 94.5 -90t34.5 -159q0 -95 -31.5 -164.5t-97.5 -114.5q-67 -45 -169.5 -66.5t-244.5 -21.5v0zM649 -145q88 0 145 8.5t89 25.5t44.5 42t12.5 57q0 31 -14 51.5
t-47 32.5q-34 12 -90 17t-140 5q-97 0 -154.5 -8t-87.5 -23q-31 -16 -40 -38.5t-9 -51.5q0 -32 12.5 -54t45.5 -37q32 -14 88.5 -20.5t144.5 -6.5v0zM641 639q66 0 109.5 9.5t70.5 28.5q26 18 36.5 46t10.5 65q0 38 -11.5 66t-37.5 47q-27 19 -70.5 28t-107.5 9
q-65 0 -109 -9t-70 -28t-37 -47t-11 -66q0 -37 11 -65t37 -46q26 -19 70 -28.5t109 -9.5v0z" />
    <glyph glyph-name="Hcircumflex" unicode="&#x124;" horiz-adv-x="1669" 
 />
    <glyph glyph-name="hcircumflex" unicode="&#x125;" horiz-adv-x="1360" 
 />
    <glyph glyph-name="Hbar" unicode="&#x126;" horiz-adv-x="1669" 
 />
    <glyph glyph-name="hbar" unicode="&#x127;" horiz-adv-x="1360" 
 />
    <glyph glyph-name="Itilde" unicode="&#x128;" horiz-adv-x="682" 
 />
    <glyph glyph-name="itilde" unicode="&#x129;" horiz-adv-x="600" 
 />
    <glyph glyph-name="Imacron" unicode="&#x12a;" horiz-adv-x="682" 
d="M174 1518h334v-1518h-334v1518zM-88 1835h860v-256h-860v256z" />
    <glyph glyph-name="imacron" unicode="&#x12b;" horiz-adv-x="600" 
d="M139 1159h320v-1159h-320v1159zM-129 1505h860v-256h-860v256z" />
    <glyph glyph-name="Ibreve" unicode="&#x12c;" horiz-adv-x="682" 
 />
    <glyph glyph-name="ibreve" unicode="&#x12d;" horiz-adv-x="600" 
 />
    <glyph glyph-name="Iogonek" unicode="&#x12e;" horiz-adv-x="682" 
d="M174 1518h334v-1518q-110 -66 -156.5 -116.5t-46.5 -90.5q0 -18 4 -32.5t16 -24.5q11 -10 31.5 -15.5t53.5 -5.5q43 0 84.5 9t72.5 20l60 -174q-57 -26 -124 -41.5t-136 -15.5q-88 0 -147 15t-95 43q-36 29 -51 69t-15 90q0 51 16.5 93.5t41.5 75.5q25 34 55 59t57 42
h-55v1518z" />
    <glyph glyph-name="iogonek" unicode="&#x12f;" horiz-adv-x="600" 
d="M139 1159h320v-1159q-110 -66 -156.5 -116.5t-46.5 -90.5q0 -18 4 -32.5t15 -24.5t31.5 -15.5t53.5 -5.5q44 0 85.5 9t72.5 20l60 -174q-57 -26 -124 -41.5t-137 -15.5q-87 0 -146 15t-95 43q-36 29 -51 69t-15 90q0 51 16 93.5t41 75.5q25 34 55 59t58 42h-41v1159z
M137 1559h324v-293h-324v293z" />
    <glyph glyph-name="Idotaccent" unicode="&#x130;" horiz-adv-x="682" 
d="M174 1518h334v-1518h-334v1518zM178 1880h326v-285h-326v285z" />
    <glyph glyph-name="dotlessi" unicode="&#x131;" horiz-adv-x="600" 
d="M139 1159h320v-1159h-320v1159z" />
    <glyph glyph-name="IJ" unicode="&#x132;" horiz-adv-x="1614" 
 />
    <glyph glyph-name="ij" unicode="&#x133;" horiz-adv-x="1200" 
 />
    <glyph glyph-name="Jcircumflex" unicode="&#x134;" horiz-adv-x="932" 
 />
    <glyph glyph-name="jcircumflex" unicode="&#x135;" horiz-adv-x="600" 
 />
    <glyph glyph-name="Kcommaaccent" unicode="&#x136;" horiz-adv-x="1556" 
d="M623 -541q46 22 74 38.5t44 31.5q15 15 20 32.5t5 43.5h-152v317h324v-225q0 -54 -3.5 -96.5t-12.5 -76.5q-9 -33 -26 -60t-44 -51q-28 -23 -67 -44.5t-93 -44.5zM698 662l-215 -254v-408h-331v1518h331v-687l576 687h371l-515 -600l588 -918h-379z" />
    <glyph glyph-name="kcommaaccent" unicode="&#x137;" horiz-adv-x="1239" 
d="M463 -541q46 22 74 38.5t44 31.5q15 15 20 32.5t5 43.5h-151v317h323v-225q0 -81 -8 -136.5t-34 -96.5t-74.5 -73.5t-129.5 -66.5zM127 1589h317v-909l396 479h350l-389 -473l424 -686h-357l-284 446l-140 -165v-281h-317v1589z" />
    <glyph glyph-name="kgreenlandic" unicode="&#x138;" horiz-adv-x="1239" 
 />
    <glyph glyph-name="Lacute" unicode="&#x139;" horiz-adv-x="1264" 
d="M467 1974h387l-391 -375h-285zM152 1518h335v-1227h746v-291h-1081v1518z" />
    <glyph glyph-name="lacute" unicode="&#x13a;" horiz-adv-x="698" 
d="M436 2046h387l-391 -375h-285zM457 -4q-78 0 -137.5 17t-99.5 58q-40 40 -60.5 108t-20.5 171v1239h320v-1200q0 -35 4.5 -58.5t16.5 -37.5t34.5 -19.5t58.5 -5.5h39v-264q-20 -3 -63 -5.5t-92 -2.5v0z" />
    <glyph glyph-name="Lcommaaccent" unicode="&#x13b;" horiz-adv-x="1264" 
d="M477 -541q46 22 74.5 38.5t44.5 31.5q15 15 20 32.5t5 43.5h-152v317h324v-225q0 -54 -3.5 -96.5t-12.5 -76.5q-9 -33 -26 -60t-44 -51q-28 -23 -67 -44.5t-93 -44.5zM152 1518h335v-1227h746v-291h-1081v1518z" />
    <glyph glyph-name="lcommaaccent" unicode="&#x13c;" horiz-adv-x="698" 
d="M195 -541q46 22 74 38.5t44 31.5q15 15 20 32.5t5 43.5h-152v317h324v-225q0 -54 -3.5 -96.5t-12.5 -76.5q-9 -33 -26 -60t-44 -51q-28 -23 -67 -44.5t-93 -44.5zM457 -4q-78 0 -137.5 17t-99.5 58q-40 40 -60.5 108t-20.5 171v1239h320v-1200q0 -35 4.5 -58.5
t16.5 -37.5t34.5 -19.5t58.5 -5.5h39v-264q-20 -3 -63 -5.5t-92 -2.5v0z" />
    <glyph glyph-name="Lcaron" unicode="&#x13d;" horiz-adv-x="1264" 
d="M629 1128q46 22 74 37.5t44 30.5q15 15 20 32.5t5 43.5h-135v317h307v-225q0 -81 -8 -136t-34 -96t-74.5 -73.5t-129.5 -67.5zM152 1518h335v-1227h746v-291h-1081v1518z" />
    <glyph glyph-name="lcaron" unicode="&#x13e;" horiz-adv-x="907" 
d="M590 1128q46 22 74 37.5t44 30.5q15 15 20 32.5t5 43.5h-135v317h307v-225q0 -81 -8 -136t-34 -96t-74.5 -73.5t-129.5 -67.5zM457 -4q-78 0 -137.5 17t-99.5 58q-40 40 -60.5 108t-20.5 171v1239h320v-1200q0 -35 4.5 -58.5t16.5 -37.5t34.5 -19.5t58.5 -5.5h39v-264
q-20 -3 -63 -5.5t-92 -2.5v0z" />
    <glyph glyph-name="Ldot" unicode="&#x13f;" horiz-adv-x="1436" 
 />
    <glyph glyph-name="ldot" unicode="&#x140;" horiz-adv-x="1239" 
 />
    <glyph glyph-name="Lslash" unicode="&#x141;" horiz-adv-x="1264" 
d="M0 801l152 82v635h335v-451l281 156v-271l-281 -155v-506h746v-291h-1081v612l-152 -82v271z" />
    <glyph glyph-name="lslash" unicode="&#x142;" horiz-adv-x="829" 
d="M49 932l180 102v555h320v-370l188 108v-270l-188 -109v-559q0 -35 4.5 -58.5t16.5 -37.5t34 -19.5t58 -5.5h40v-264q-20 -3 -63 -5.5t-92 -2.5q-79 0 -138.5 17t-99.5 58q-40 40 -60 108t-20 171v414l-180 -102v270z" />
    <glyph glyph-name="Nacute" unicode="&#x143;" horiz-adv-x="1686" 
d="M918 1974h387l-392 -375h-284zM152 1518h362l698 -957v957h320v-1518h-307l-752 1024v-1024h-321v1518z" />
    <glyph glyph-name="nacute" unicode="&#x144;" horiz-adv-x="1360" 
d="M756 1645h387l-391 -375h-285zM127 1141l250 18l26 -100q23 25 57 48t84 41q50 17 118.5 27.5t160.5 10.5q132 0 213.5 -35t126.5 -98q45 -64 60.5 -153.5t15.5 -197.5v-702h-319v639q0 53 -5.5 97.5t-26.5 77.5q-22 32 -64 50.5t-115 18.5q-84 0 -135 -19t-79 -53
t-37 -81.5t-9 -104.5v-625h-322v1141z" />
    <glyph glyph-name="Ncommaaccent" unicode="&#x145;" horiz-adv-x="1686" 
d="M686 -541q46 22 74 38.5t44 31.5q15 15 20 32.5t5 43.5h-151v317h323v-225q0 -81 -8 -136.5t-34 -96.5t-74 -73.5t-129 -66.5zM152 1518h362l698 -957v957h320v-1518h-307l-752 1024v-1024h-321v1518z" />
    <glyph glyph-name="ncommaaccent" unicode="&#x146;" horiz-adv-x="1360" 
d="M524 -541q46 22 74.5 38.5t44.5 31.5q15 15 20 32.5t5 43.5h-152v317h324v-225q0 -54 -3.5 -96.5t-12.5 -76.5q-9 -33 -26 -60t-44 -51q-28 -23 -67 -44.5t-93 -44.5zM127 1141l250 18l26 -100q23 25 57 48t84 41q50 17 118.5 27.5t160.5 10.5q132 0 213.5 -35t126.5 -98
q45 -64 60.5 -153.5t15.5 -197.5v-702h-319v639q0 53 -5.5 97.5t-26.5 77.5q-22 32 -64 50.5t-115 18.5q-84 0 -135 -19t-79 -53t-37 -81.5t-9 -104.5v-625h-322v1141z" />
    <glyph glyph-name="Ncaron" unicode="&#x147;" horiz-adv-x="1686" 
d="M356 1974h301l187 -176l184 176h295l-317 -375h-332zM152 1518h362l698 -957v957h320v-1518h-307l-752 1024v-1024h-321v1518z" />
    <glyph glyph-name="ncaron" unicode="&#x148;" horiz-adv-x="1360" 
d="M195 1645h301l186 -177l184 177h295l-317 -375h-332zM127 1141l250 18l26 -100q23 25 57 48t84 41q50 17 118.5 27.5t160.5 10.5q132 0 213.5 -35t126.5 -98q45 -64 60.5 -153.5t15.5 -197.5v-702h-319v639q0 53 -5.5 97.5t-26.5 77.5q-22 32 -64 50.5t-115 18.5
q-84 0 -135 -19t-79 -53t-37 -81.5t-9 -104.5v-625h-322v1141z" />
    <glyph glyph-name="napostrophe" unicode="&#x149;" horiz-adv-x="1872" 
 />
    <glyph glyph-name="Eng" unicode="&#x14a;" horiz-adv-x="1686" 
 />
    <glyph glyph-name="eng" unicode="&#x14b;" horiz-adv-x="1360" 
 />
    <glyph glyph-name="Omacron" unicode="&#x14c;" horiz-adv-x="1747" 
d="M442 1835h861v-256h-861v256zM872 -25q-181 0 -329 42t-253 136t-162.5 243t-57.5 364q0 213 57.5 362t162.5 243q105 93 253 135t329 42t329.5 -42t254.5 -135q106 -94 163.5 -243t57.5 -362q0 -215 -57.5 -364t-163.5 -243t-254.5 -136t-329.5 -42v0zM872 270
q131 0 220 34t144 97q54 63 77.5 152.5t23.5 200.5t-23.5 200.5t-77.5 151.5q-55 62 -144 95.5t-220 33.5t-219.5 -33.5t-142.5 -95.5q-55 -62 -78.5 -151.5t-23.5 -200.5t23.5 -200.5t78.5 -152.5q54 -63 142.5 -97t219.5 -34v0z" />
    <glyph glyph-name="omacron" unicode="&#x14d;" horiz-adv-x="1354" 
d="M246 1505h860v-256h-860v256zM678 -23q-164 0 -279 40t-187 117q-73 77 -106.5 189.5t-33.5 258.5t33.5 258.5t106.5 189.5q72 77 187 116.5t279 39.5q163 0 278 -39.5t188 -116.5q72 -77 105 -189.5t33 -258.5t-33 -258.5t-105 -189.5q-73 -77 -188 -117t-278 -40v0z
M678 252q83 0 137.5 22.5t87.5 64.5q32 42 45 101t13 133t-13 133t-45 101q-33 41 -87.5 63.5t-137.5 22.5q-84 0 -138.5 -22.5t-86.5 -63.5q-32 -42 -45 -101t-13 -133t13 -133t45 -101t86.5 -64.5t138.5 -22.5v0z" />
    <glyph glyph-name="Obreve" unicode="&#x14e;" horiz-adv-x="1747" 
 />
    <glyph glyph-name="obreve" unicode="&#x14f;" horiz-adv-x="1354" 
 />
    <glyph glyph-name="Ohungarumlaut" unicode="&#x150;" horiz-adv-x="1747" 
d="M639 1974h371l-361 -375h-268zM1192 1974h371l-361 -375h-268zM872 -25q-181 0 -329 42t-253 136t-162.5 243t-57.5 364q0 213 57.5 362t162.5 243q105 93 253 135t329 42t329.5 -42t254.5 -135q106 -94 163.5 -243t57.5 -362q0 -215 -57.5 -364t-163.5 -243t-254.5 -136
t-329.5 -42v0zM872 270q131 0 220 34t144 97q54 63 77.5 152.5t23.5 200.5t-23.5 200.5t-77.5 151.5q-55 62 -144 95.5t-220 33.5t-219.5 -33.5t-142.5 -95.5q-55 -62 -78.5 -151.5t-23.5 -200.5t23.5 -200.5t78.5 -152.5q54 -63 142.5 -97t219.5 -34v0z" />
    <glyph glyph-name="ohungarumlaut" unicode="&#x151;" horiz-adv-x="1354" 
d="M442 1645h371l-360 -375h-269zM995 1645h371l-360 -375h-269zM678 -23q-164 0 -279 40t-187 117q-73 77 -106.5 189.5t-33.5 258.5t33.5 258.5t106.5 189.5q72 77 187 116.5t279 39.5q163 0 278 -39.5t188 -116.5q72 -77 105 -189.5t33 -258.5t-33 -258.5t-105 -189.5
q-73 -77 -188 -117t-278 -40v0zM678 252q83 0 137.5 22.5t87.5 64.5q32 42 45 101t13 133t-13 133t-45 101q-33 41 -87.5 63.5t-137.5 22.5q-84 0 -138.5 -22.5t-86.5 -63.5q-32 -42 -45 -101t-13 -133t13 -133t45 -101t86.5 -64.5t138.5 -22.5v0z" />
    <glyph glyph-name="OE" unicode="&#x152;" horiz-adv-x="2585" 
d="M1362 117q-90 -71 -211 -106.5t-279 -35.5q-183 0 -331.5 42t-252.5 136q-105 94 -161.5 243t-56.5 364q0 213 56.5 362t161.5 243q104 93 252.5 135t331.5 42q156 0 278.5 -35t211.5 -106v117h1106v-304h-803v-294h782v-293h-782v-336h811v-291h-1114v117zM872 270
q133 0 222.5 34t143.5 97t76.5 152.5t22.5 200.5t-22.5 200.5t-76.5 151.5t-143.5 95.5t-222.5 33.5t-222 -33.5t-143 -95.5t-76.5 -151.5t-22.5 -200.5t22.5 -200.5t76.5 -152.5t143 -97t222 -34v0z" />
    <glyph glyph-name="oe" unicode="&#x153;" horiz-adv-x="2157" 
d="M1567 -23q-86 0 -155.5 10t-124.5 29t-97.5 45.5t-73.5 59.5q-66 -69 -172.5 -106.5t-265.5 -37.5q-170 0 -286 40t-187 117t-102 189.5t-31 258.5t31 258.5t102 189.5t187 116.5t286 39.5q160 0 267 -37.5t173 -108.5q31 34 73 61t97 46t123.5 29t153.5 10
q127 0 216 -27t147 -75q58 -49 90 -116.5t47 -147.5q15 -81 16.5 -172.5t-0.5 -188.5h-809q7 -53 24.5 -94t51.5 -69t87.5 -43t131.5 -15q67 0 120 7.5t97 21.5q43 14 79 33.5t68 43.5l162 -209q-56 -42 -112 -72t-118 -49t-134.5 -28t-161.5 -9v0zM678 252q83 0 137.5 22.5
t87.5 64.5q32 42 45 101t13 133t-13 133t-45 101q-33 41 -87.5 63.5t-137.5 22.5q-84 0 -138.5 -22.5t-86.5 -63.5q-32 -42 -45 -101t-13 -133t13 -133t45 -101t86.5 -64.5t138.5 -22.5v0zM1554 918q-74 0 -125 -16t-83 -46q-33 -30 -50 -72.5t-24 -95.5h516q-3 50 -10 92
t-30 73t-68.5 48t-125.5 17v0z" />
    <glyph glyph-name="Racute" unicode="&#x154;" horiz-adv-x="1581" 
d="M866 1974h387l-391 -375h-284zM819 504h-340v-504h-327v1518h733q179 0 294 -36.5t181 -102.5t91.5 -157t25.5 -200q0 -78 -14.5 -152t-50.5 -137q-37 -63 -99 -112.5t-156 -79.5l301 -541h-358zM874 793q69 0 119 9.5t83 34.5q32 25 47.5 66.5t15.5 106.5q0 66 -15 109
t-47 68q-33 24 -84 34t-123 10h-391v-438h395z" />
    <glyph glyph-name="racute" unicode="&#x155;" horiz-adv-x="827" 
d="M496 1645h387l-391 -375h-285zM127 1141l250 18l33 -127q18 28 53 52t83 43t107 30.5t127 13.5v-307q-102 -1 -166.5 -20.5t-100.5 -56.5q-37 -38 -50.5 -91.5t-13.5 -122.5v-573h-322v1141z" />
    <glyph glyph-name="Rcommaaccent" unicode="&#x156;" horiz-adv-x="1581" 
d="M635 -541q46 22 74 38.5t44 31.5q15 15 20 32.5t5 43.5h-151v317h323v-225q0 -81 -8 -136.5t-34 -96.5t-74 -73.5t-129 -66.5zM819 504h-340v-504h-327v1518h733q179 0 294 -36.5t181 -102.5t91.5 -157t25.5 -200q0 -78 -14.5 -152t-50.5 -137q-37 -63 -99 -112.5
t-156 -79.5l301 -541h-358zM874 793q69 0 119 9.5t83 34.5q32 25 47.5 66.5t15.5 106.5q0 66 -15 109t-47 68q-33 24 -84 34t-123 10h-391v-438h395z" />
    <glyph glyph-name="rcommaaccent" unicode="&#x157;" horiz-adv-x="827" 
d="M133 -541q46 22 74 38.5t44 31.5q15 15 20 32.5t5 43.5h-151v317h324v-225q0 -54 -3.5 -96.5t-12.5 -76.5q-9 -33 -26 -60t-44 -51q-28 -23 -67 -44.5t-93 -44.5zM127 1141l250 18l33 -127q18 28 53 52t83 43t107 30.5t127 13.5v-307q-102 -1 -166.5 -20.5t-100.5 -56.5
q-37 -38 -50.5 -91.5t-13.5 -122.5v-573h-322v1141z" />
    <glyph glyph-name="Rcaron" unicode="&#x158;" horiz-adv-x="1581" 
d="M305 1974h301l187 -176l184 176h295l-318 -375h-331zM819 504h-340v-504h-327v1518h733q179 0 294 -36.5t181 -102.5t91.5 -157t25.5 -200q0 -78 -14.5 -152t-50.5 -137q-37 -63 -99 -112.5t-156 -79.5l301 -541h-358zM874 793q69 0 119 9.5t83 34.5q32 25 47.5 66.5
t15.5 106.5q0 66 -15 109t-47 68q-33 24 -84 34t-123 10h-391v-438h395z" />
    <glyph glyph-name="rcaron" unicode="&#x159;" horiz-adv-x="813" 
d="M-76 1645h301l187 -177l184 177h295l-318 -375h-331zM127 1141l250 18l33 -127q18 28 53 52t83 43t107 30.5t127 13.5v-307q-102 -1 -166.5 -20.5t-100.5 -56.5q-37 -38 -50.5 -91.5t-13.5 -122.5v-573h-322v1141z" />
    <glyph glyph-name="Sacute" unicode="&#x15a;" horiz-adv-x="1518" 
d="M836 1974h387l-392 -375h-284zM768 -23q-227 0 -410 51.5t-313 147.5l168 242q122 -82 260 -122t285 -40q111 0 180 11t108 34q38 22 51 56.5t13 82.5q0 47 -23.5 76.5t-68.5 49.5q-46 19 -113.5 32t-154.5 25q-152 21 -267.5 49.5t-192.5 78.5q-78 50 -117.5 129.5
t-39.5 202.5q0 127 38.5 214.5t117.5 142.5q79 54 197.5 78t279.5 24q116 0 210 -12.5t170 -32.5q75 -21 132.5 -48t101.5 -56l-180 -260q-36 24 -86 45t-107 37q-58 15 -121 24.5t-124 9.5q-89 0 -146.5 -9t-90.5 -28t-45.5 -49t-12.5 -71q0 -46 23.5 -75t69.5 -48
q46 -20 114.5 -32.5t159.5 -25.5t171.5 -28t148.5 -37q67 -22 120.5 -53.5t90.5 -77.5t57 -109.5t20 -148.5q0 -115 -34 -204.5t-113 -150.5t-208 -93t-319 -32v0z" />
    <glyph glyph-name="sacute" unicode="&#x15b;" horiz-adv-x="1174" 
d="M666 1645h387l-391 -375h-285zM573 -18q-74 0 -148 8t-144 26q-71 17 -137 44.5t-124 66.5l164 235q45 -29 96.5 -51.5t104.5 -37.5t106.5 -23t102.5 -8q61 0 101 3.5t64 14.5q24 10 34 29t10 49q0 25 -10 41.5t-33 27.5q-24 11 -63.5 18t-98.5 15q-72 10 -137.5 21
t-121.5 29q-56 17 -101.5 42.5t-77.5 65.5q-33 39 -50.5 94t-17.5 131q0 88 27.5 156t88.5 114q60 46 156 69.5t234 23.5q70 0 138 -7t131 -20q62 -14 118 -34t102 -46l-153 -250q-31 16 -69 30t-80 24q-43 10 -88 16t-89 6q-62 0 -100 -5.5t-59 -15.5q-22 -11 -29.5 -26.5
t-7.5 -36.5q0 -24 8.5 -40t30.5 -27t58.5 -18.5t92.5 -14.5q111 -15 205 -33.5t163 -55.5q68 -38 107 -103t39 -173q0 -100 -28.5 -171t-92.5 -116q-65 -45 -168.5 -66t-253.5 -21v0z" />
    <glyph glyph-name="Scircumflex" unicode="&#x15c;" horiz-adv-x="1518" 
 />
    <glyph glyph-name="scircumflex" unicode="&#x15d;" horiz-adv-x="1174" 
 />
    <glyph glyph-name="Scedilla" unicode="&#x15e;" horiz-adv-x="1518" 
d="M758 -510q-85 0 -152 18.5t-123 49.5l80 149q47 -23 93.5 -36t88.5 -13q74 0 101.5 20t27.5 64q0 27 -13 42.5t-37 22.5q-24 8 -57 9t-73 -2l-61 39l26 129q-189 11 -344 60t-270 134l168 242q122 -82 260 -122t285 -40q111 0 180 11t108 34q38 22 51 56.5t13 82.5
q0 47 -23.5 76.5t-68.5 49.5q-46 19 -113.5 32t-154.5 25q-152 21 -267.5 49.5t-192.5 78.5q-78 50 -117.5 129.5t-39.5 202.5q0 127 38.5 214.5t117.5 142.5q79 54 197.5 78t279.5 24q116 0 210 -12.5t170 -32.5q75 -21 132.5 -48t101.5 -56l-180 -260q-36 24 -86 45
t-107 37q-58 15 -121 24.5t-124 9.5q-89 0 -146.5 -9t-90.5 -28t-45.5 -49t-12.5 -71q0 -46 23.5 -75t69.5 -48q46 -20 114.5 -32.5t159.5 -25.5t171.5 -28t148.5 -37q67 -22 120.5 -53.5t90.5 -77.5t57 -109.5t20 -148.5q0 -110 -31 -196t-101 -146q-71 -61 -185.5 -95
t-282.5 -40l-13 -66q48 1 94 -2.5t82 -23.5q36 -19 58 -59t22 -110q0 -65 -23.5 -109t-65.5 -71q-43 -26 -103.5 -37.5t-134.5 -11.5v0z" />
    <glyph glyph-name="scedilla" unicode="&#x15f;" horiz-adv-x="1174" 
d="M588 -510q-85 0 -152 18.5t-123 49.5l80 149q47 -23 93.5 -36t88.5 -13q74 0 102 20t28 64q0 27 -13 42.5t-37 22.5q-24 8 -57.5 9t-73.5 -2l-61 39l29 133q-131 8 -251 40.5t-221 100.5l164 235q45 -29 96.5 -51.5t104.5 -37.5t106.5 -23t102.5 -8q61 0 101 3.5t64 14.5
q24 10 34 29t10 49q0 25 -10 41.5t-33 27.5q-24 11 -63.5 18t-98.5 15q-72 10 -137.5 21t-121.5 29q-56 17 -101.5 42.5t-77.5 65.5q-33 39 -50.5 94t-17.5 131q0 88 27.5 156t88.5 114q60 46 156 69.5t234 23.5q70 0 138 -7t131 -20q62 -14 118 -34t102 -46l-153 -250
q-31 16 -69 30t-80 24q-43 10 -88 16t-89 6q-62 0 -100 -5.5t-59 -15.5q-22 -11 -29.5 -26.5t-7.5 -36.5q0 -24 8.5 -40t30.5 -27t58.5 -18.5t92.5 -14.5q111 -15 205 -33.5t163 -55.5q68 -38 107 -103t39 -173q0 -91 -23.5 -158.5t-76.5 -112.5q-53 -46 -137.5 -70.5
t-206.5 -30.5l-13 -70q48 1 94 -2.5t82 -23.5q36 -19 58 -59t22 -110q0 -65 -23.5 -109t-65.5 -71q-43 -26 -103.5 -37.5t-134.5 -11.5v0z" />
    <glyph glyph-name="Scaron" unicode="&#x160;" horiz-adv-x="1518" 
d="M274 1974h301l187 -176l184 176h295l-317 -375h-332zM768 -23q-227 0 -410 51.5t-313 147.5l168 242q122 -82 260 -122t285 -40q111 0 180 11t108 34q38 22 51 56.5t13 82.5q0 47 -23.5 76.5t-68.5 49.5q-46 19 -113.5 32t-154.5 25q-152 21 -267.5 49.5t-192.5 78.5
q-78 50 -117.5 129.5t-39.5 202.5q0 127 38.5 214.5t117.5 142.5q79 54 197.5 78t279.5 24q116 0 210 -12.5t170 -32.5q75 -21 132.5 -48t101.5 -56l-180 -260q-36 24 -86 45t-107 37q-58 15 -121 24.5t-124 9.5q-89 0 -146.5 -9t-90.5 -28t-45.5 -49t-12.5 -71
q0 -46 23.5 -75t69.5 -48q46 -20 114.5 -32.5t159.5 -25.5t171.5 -28t148.5 -37q67 -22 120.5 -53.5t90.5 -77.5t57 -109.5t20 -148.5q0 -115 -34 -204.5t-113 -150.5t-208 -93t-319 -32v0z" />
    <glyph glyph-name="scaron" unicode="&#x161;" horiz-adv-x="1174" 
d="M104 1645h302l186 -177l184 177h295l-317 -375h-332zM573 -18q-74 0 -148 8t-144 26q-71 17 -137 44.5t-124 66.5l164 235q45 -29 96.5 -51.5t104.5 -37.5t106.5 -23t102.5 -8q61 0 101 3.5t64 14.5q24 10 34 29t10 49q0 25 -10 41.5t-33 27.5q-24 11 -63.5 18t-98.5 15
q-72 10 -137.5 21t-121.5 29q-56 17 -101.5 42.5t-77.5 65.5q-33 39 -50.5 94t-17.5 131q0 88 27.5 156t88.5 114q60 46 156 69.5t234 23.5q70 0 138 -7t131 -20q62 -14 118 -34t102 -46l-153 -250q-31 16 -69 30t-80 24q-43 10 -88 16t-89 6q-62 0 -100 -5.5t-59 -15.5
q-22 -11 -29.5 -26.5t-7.5 -36.5q0 -24 8.5 -40t30.5 -27t58.5 -18.5t92.5 -14.5q111 -15 205 -33.5t163 -55.5q68 -38 107 -103t39 -173q0 -100 -28.5 -171t-92.5 -116q-65 -45 -168.5 -66t-253.5 -21v0z" />
    <glyph glyph-name="Tcommaaccent" unicode="&#x162;" horiz-adv-x="1446" 
d="M567 -541q46 22 74.5 38.5t44.5 31.5q15 15 20 32.5t5 43.5h-152v317h324v-225q0 -54 -3.5 -96.5t-12.5 -76.5q-9 -33 -26 -60t-44 -51q-28 -23 -67 -44.5t-93 -44.5zM555 1214h-526v304h1388v-304h-524v-1214h-338v1214z" />
    <glyph glyph-name="Tcommaaccent" unicode="&#x21a;" horiz-adv-x="1446" 
d="M567 -541q46 22 74.5 38.5t44.5 31.5q15 15 20 32.5t5 43.5h-152v317h324v-225q0 -54 -3.5 -96.5t-12.5 -76.5q-9 -33 -26 -60t-44 -51q-28 -23 -67 -44.5t-93 -44.5zM555 1214h-526v304h1388v-304h-524v-1214h-338v1214z" />
    <glyph glyph-name="tcommaaccent" unicode="&#x163;" horiz-adv-x="928" 
d="M258 -541q46 22 74 38.5t44 31.5q15 15 20 32.5t5 43.5h-151v317h323v-225q0 -81 -8 -136.5t-34 -96.5t-74 -73.5t-129 -66.5zM51 1159h205l55 283l250 51v-334h275v-274h-275v-477q0 -34 4 -60t19 -44t45 -27t82 -9h125v-268q-18 -2 -42 -2.5t-50 -1.5h-52h-47
q-117 0 -195 20.5t-124 64.5t-65 113t-19 166v525h-191v274z" />
    <glyph glyph-name="tcommaaccent" unicode="&#x21b;" horiz-adv-x="928" 
d="M258 -541q46 22 74 38.5t44 31.5q15 15 20 32.5t5 43.5h-151v317h323v-225q0 -81 -8 -136.5t-34 -96.5t-74 -73.5t-129 -66.5zM51 1159h205l55 283l250 51v-334h275v-274h-275v-477q0 -34 4 -60t19 -44t45 -27t82 -9h125v-268q-18 -2 -42 -2.5t-50 -1.5h-52h-47
q-117 0 -195 20.5t-124 64.5t-65 113t-19 166v525h-191v274z" />
    <glyph glyph-name="Tcaron" unicode="&#x164;" horiz-adv-x="1446" 
d="M238 1974h301l186 -176l184 176h295l-317 -375h-332zM555 1214h-526v304h1388v-304h-524v-1214h-338v1214z" />
    <glyph glyph-name="tcaron" unicode="&#x165;" horiz-adv-x="928" 
d="M672 1427q43 22 69.5 37t41.5 30t20.5 32t5.5 43h-129v301h291v-215q0 -78 -7.5 -130.5t-32.5 -91.5t-71 -70t-123 -65zM51 1159h205l55 283l250 51v-334h275v-274h-275v-477q0 -34 4 -60t19 -44t45 -27t82 -9h125v-268q-18 -2 -42 -2.5t-50 -1.5h-52h-47
q-117 0 -195 20.5t-124 64.5t-65 113t-19 166v525h-191v274z" />
    <glyph glyph-name="Tbar" unicode="&#x166;" horiz-adv-x="1446" 
 />
    <glyph glyph-name="tbar" unicode="&#x167;" horiz-adv-x="928" 
 />
    <glyph glyph-name="Utilde" unicode="&#x168;" horiz-adv-x="1671" 
 />
    <glyph glyph-name="utilde" unicode="&#x169;" horiz-adv-x="1343" 
 />
    <glyph glyph-name="Umacron" unicode="&#x16a;" horiz-adv-x="1671" 
d="M836 -29q-160 0 -274 25t-191 69q-77 43 -122.5 101.5t-69.5 126.5q-24 67 -31 140.5t-7 146.5v938h336v-895q0 -85 13.5 -151t52.5 -111q39 -46 110 -69.5t187 -23.5q114 0 185.5 22.5t111.5 67.5q39 44 53 110.5t14 154.5v895h326v-938q0 -73 -7 -146.5t-31 -140.5
q-24 -68 -69.5 -126.5t-122.5 -101.5q-77 -44 -190.5 -69t-273.5 -25v0zM403 1835h861v-256h-861v256z" />
    <glyph glyph-name="umacron" unicode="&#x16b;" horiz-adv-x="1343" 
d="M674 -18q-166 0 -273 31.5t-169 99.5q-63 67 -87 173t-24 255v618h321v-624q0 -61 4 -111.5t27 -86.5q22 -37 69.5 -57t133.5 -20q85 0 132 20.5t69 57.5q22 36 26 87t4 112v622h316v-616q0 -149 -23.5 -255.5t-84.5 -174.5q-62 -68 -168.5 -99.5t-272.5 -31.5v0z
M242 1505h860v-256h-860v256z" />
    <glyph glyph-name="Ubreve" unicode="&#x16c;" horiz-adv-x="1671" 
 />
    <glyph glyph-name="ubreve" unicode="&#x16d;" horiz-adv-x="1343" 
 />
    <glyph glyph-name="Uring" unicode="&#x16e;" horiz-adv-x="1671" 
d="M834 1567q-78 0 -134 23t-91 63q-35 39 -51.5 93.5t-16.5 117.5t16.5 118t51.5 96q35 40 91 63.5t134 23.5q74 0 128.5 -23.5t90.5 -63.5q36 -41 53.5 -96t17.5 -118t-17.5 -117.5t-53.5 -93.5q-36 -40 -90.5 -63t-128.5 -23v0zM834 1724q36 0 61 11t41 30q15 19 22 44.5
t7 54.5q0 30 -7 56t-22 45q-16 18 -41 29t-61 11q-37 0 -62.5 -11t-41.5 -29q-16 -19 -23 -45t-7 -56q0 -29 7 -54.5t23 -44.5t41.5 -30t62.5 -11v0zM836 -29q-160 0 -274 25t-191 69q-77 43 -122.5 101.5t-69.5 126.5q-24 67 -31 140.5t-7 146.5v938h336v-895
q0 -85 13.5 -151t52.5 -111q39 -46 110 -69.5t187 -23.5q114 0 185.5 22.5t111.5 67.5q39 44 53 110.5t14 154.5v895h326v-938q0 -73 -7 -146.5t-31 -140.5q-24 -68 -69.5 -126.5t-122.5 -101.5q-77 -44 -190.5 -69t-273.5 -25v0z" />
    <glyph glyph-name="uring" unicode="&#x16f;" horiz-adv-x="1343" 
d="M672 1237q-78 0 -134 23t-91 63q-35 39 -51.5 93.5t-16.5 117.5t16.5 118t51.5 96q35 40 91 63.5t134 23.5q74 0 129 -23.5t91 -63.5q36 -41 53.5 -96t17.5 -118t-17.5 -117.5t-53.5 -93.5q-36 -40 -91 -63t-129 -23v0zM672 1395q36 0 61 10.5t41 29.5q15 19 22 44.5
t7 54.5q0 30 -7 56t-22 45q-16 18 -41 29t-61 11q-37 0 -62.5 -11t-40.5 -29q-16 -19 -23 -45t-7 -56q0 -29 7 -54.5t23 -44.5q15 -19 40.5 -29.5t62.5 -10.5v0zM674 -18q-166 0 -273 31.5t-169 99.5q-63 67 -87 173t-24 255v618h321v-624q0 -61 4 -111.5t27 -86.5
q22 -37 69.5 -57t133.5 -20q85 0 132 20.5t69 57.5q22 36 26 87t4 112v622h316v-616q0 -149 -23.5 -255.5t-84.5 -174.5q-62 -68 -168.5 -99.5t-272.5 -31.5v0z" />
    <glyph glyph-name="Uhungarumlaut" unicode="&#x170;" horiz-adv-x="1671" 
d="M836 -29q-160 0 -274 25t-191 69q-77 43 -122.5 101.5t-69.5 126.5q-24 67 -31 140.5t-7 146.5v938h336v-895q0 -85 13.5 -151t52.5 -111q39 -46 110 -69.5t187 -23.5q114 0 185.5 22.5t111.5 67.5q39 44 53 110.5t14 154.5v895h326v-938q0 -73 -7 -146.5t-31 -140.5
q-24 -68 -69.5 -126.5t-122.5 -101.5q-77 -44 -190.5 -69t-273.5 -25v0zM600 1974h371l-361 -375h-268zM1153 1974h371l-361 -375h-268z" />
    <glyph glyph-name="uhungarumlaut" unicode="&#x171;" horiz-adv-x="1343" 
d="M674 -18q-166 0 -273 31.5t-169 99.5q-63 67 -87 173t-24 255v618h321v-624q0 -61 4 -111.5t27 -86.5q22 -37 69.5 -57t133.5 -20q85 0 132 20.5t69 57.5q22 36 26 87t4 112v622h316v-616q0 -149 -23.5 -255.5t-84.5 -174.5q-62 -68 -168.5 -99.5t-272.5 -31.5v0z
M438 1645h371l-360 -375h-269zM991 1645h371l-361 -375h-268z" />
    <glyph glyph-name="Uogonek" unicode="&#x172;" horiz-adv-x="1671" 
d="M1057 -487q-88 0 -143.5 15t-87.5 43q-32 29 -44 69t-12 90q0 41 14.5 77.5t38.5 67.5q23 31 52.5 56.5t58.5 43.5q-23 -2 -47.5 -3t-50.5 -1q-160 0 -274 25t-191 69q-77 43 -122.5 101.5t-69.5 126.5q-24 67 -31 140.5t-7 146.5v938h336v-895q0 -85 13.5 -151
t52.5 -111q39 -46 110 -69.5t187 -23.5q115 0 186.5 22.5t111.5 67.5q39 44 52.5 110.5t13.5 154.5v895h326v-938q0 -86 -9.5 -165t-38.5 -149q-30 -70 -85 -128t-146 -101q-70 -35 -119.5 -70.5t-80.5 -70.5q-32 -34 -47 -67t-15 -62q0 -19 5 -33.5t19 -24.5
q13 -10 36.5 -15t60.5 -5q48 0 99 12t96 31l51 -148q-75 -34 -151 -52.5t-148 -18.5v0z" />
    <glyph glyph-name="uogonek" unicode="&#x173;" horiz-adv-x="1343" 
d="M840 -487q-88 0 -143.5 15t-87.5 43q-32 29 -44 69t-12 90q0 43 15.5 80t39.5 68q24 32 54.5 57t60.5 45q-8 -2 -25 -2.5t-26 -0.5q-166 0 -273 32t-168 101q-62 68 -86 175t-24 256v618h321v-624q0 -61 4 -111.5t27 -86.5q22 -37 69.5 -57t133.5 -20q85 0 132 20.5
t69 57.5q22 36 26 87t4 112v622h316v-616q0 -110 -11.5 -193t-38.5 -146q-28 -63 -74 -108.5t-114 -81.5q-50 -26 -89.5 -57t-66.5 -64q-28 -32 -42.5 -64.5t-14.5 -61.5q0 -19 5 -33.5t19 -24.5q13 -10 36.5 -15t60.5 -5q48 0 98.5 12t95.5 31l52 -148q-75 -34 -151 -52.5
t-148 -18.5v0z" />
    <glyph glyph-name="Wcircumflex" unicode="&#x174;" horiz-adv-x="2216" 
 />
    <glyph glyph-name="wcircumflex" unicode="&#x175;" horiz-adv-x="1884" 
 />
    <glyph glyph-name="Ycircumflex" unicode="&#x176;" horiz-adv-x="1556" 
 />
    <glyph glyph-name="ycircumflex" unicode="&#x177;" horiz-adv-x="1196" 
 />
    <glyph glyph-name="Ydieresis" unicode="&#x178;" horiz-adv-x="1556" 
d="M610 532l-604 986h361l417 -684l418 684h346l-604 -986v-532h-334v532zM399 1888h291v-278h-291v278zM864 1888h289v-278h-289v278z" />
    <glyph glyph-name="Zacute" unicode="&#x179;" horiz-adv-x="1417" 
d="M786 1974h388l-392 -375h-284zM66 250l833 964h-799v304h1223v-275l-821 -952h844v-291h-1280v250z" />
    <glyph glyph-name="zacute" unicode="&#x17a;" horiz-adv-x="1106" 
d="M633 1645h387l-391 -375h-285zM41 215l575 670h-542v274h975v-219l-580 -682h602v-258h-1030v215z" />
    <glyph glyph-name="Zdotaccent" unicode="&#x17b;" horiz-adv-x="1417" 
d="M66 250l833 964h-799v304h1223v-275l-821 -952h844v-291h-1280v250zM545 1880h325v-285h-325v285z" />
    <glyph glyph-name="zdotaccent" unicode="&#x17c;" horiz-adv-x="1106" 
d="M41 215l575 670h-542v274h975v-219l-580 -682h602v-258h-1030v215zM391 1550h326v-284h-326v284z" />
    <glyph glyph-name="Zcaron" unicode="&#x17d;" horiz-adv-x="1417" 
d="M225 1974h301l187 -176l184 176h295l-318 -375h-331zM66 250l833 964h-799v304h1223v-275l-821 -952h844v-291h-1280v250z" />
    <glyph glyph-name="zcaron" unicode="&#x17e;" horiz-adv-x="1106" 
d="M72 1645h301l186 -177l184 177h295l-317 -375h-332zM41 215l575 670h-542v274h975v-219l-580 -682h602v-258h-1030v215z" />
    <glyph glyph-name="longs" unicode="&#x17f;" horiz-adv-x="909" 
 />
    <glyph glyph-name="florin" unicode="&#x192;" horiz-adv-x="1260" 
d="M172 946h279l49 225q10 51 24 97t36 85q22 38 55.5 68.5t82.5 52.5q49 21 116.5 32.5t158.5 11.5h114v-287h-96q-54 0 -87.5 -11t-53.5 -31q-21 -20 -31.5 -49t-17.5 -65l-29 -129h315v-276h-374l-215 -1010h-322l215 1010h-219v276z" />
    <glyph glyph-name="Ohorn" unicode="&#x1a0;" horiz-adv-x="1747" 
 />
    <glyph glyph-name="ohorn" unicode="&#x1a1;" horiz-adv-x="1386" 
 />
    <glyph glyph-name="Uhorn" unicode="&#x1af;" horiz-adv-x="1733" 
 />
    <glyph glyph-name="uhorn" unicode="&#x1b0;" horiz-adv-x="1489" 
 />
    <glyph glyph-name="Aringacute" unicode="&#x1fa;" horiz-adv-x="1616" 
 />
    <glyph glyph-name="aringacute" unicode="&#x1fb;" horiz-adv-x="1321" 
 />
    <glyph glyph-name="AEacute" unicode="&#x1fc;" horiz-adv-x="2351" 
 />
    <glyph glyph-name="aeacute" unicode="&#x1fd;" horiz-adv-x="2025" 
 />
    <glyph glyph-name="Oslashacute" unicode="&#x1fe;" horiz-adv-x="1747" 
 />
    <glyph glyph-name="oslashacute" unicode="&#x1ff;" horiz-adv-x="1354" 
 />
    <glyph glyph-name="Scommaaccent" unicode="&#x218;" horiz-adv-x="1518" 
 />
    <glyph glyph-name="scommaaccent" unicode="&#x219;" horiz-adv-x="1174" 
 />
    <glyph glyph-name="quoteleft" unicode="&#x2bb;" horiz-adv-x="600" 
d="M113 1071q0 96 10 163t41 117q30 50 86 89.5t149 81.5l78 -158q-53 -26 -85.5 -45.5t-50.5 -39.5t-24 -43.5t-6 -57.5h174v-369h-372v262z" />
    <glyph glyph-name="quoteleft" unicode="&#x2018;" horiz-adv-x="600" 
d="M113 1071q0 96 10 163t41 117q30 50 86 89.5t149 81.5l78 -158q-53 -26 -85.5 -45.5t-50.5 -39.5t-24 -43.5t-6 -57.5h174v-369h-372v262z" />
    <glyph glyph-name="circumflex" unicode="&#x2c6;" horiz-adv-x="1208" 
d="M438 1645h332l317 -375h-301l-186 176l-184 -176h-295z" />
    <glyph glyph-name="caron" unicode="&#x2c7;" horiz-adv-x="1208" 
d="M121 1645h301l186 -177l185 177h294l-317 -375h-332z" />
    <glyph glyph-name="breve" unicode="&#x2d8;" horiz-adv-x="1208" 
d="M604 1239q-114 0 -190 29t-126 82q-50 52 -78 126t-46 164l231 43q12 -52 26.5 -89.5t37.5 -61.5t58 -35.5t87 -11.5t87 11.5t58 35.5t37.5 61.5t26.5 89.5l234 -41q-20 -91 -49 -165.5t-79 -126.5q-50 -53 -126 -82t-189 -29v0z" />
    <glyph glyph-name="dotaccent" unicode="&#x2d9;" horiz-adv-x="1208" 
d="M440 1550h326v-284h-326v284z" />
    <glyph glyph-name="ring" unicode="&#x2da;" horiz-adv-x="1208" 
 />
    <glyph glyph-name="ogonek" unicode="&#x2db;" horiz-adv-x="1208" 
d="M643 -487q-87 0 -146 15t-95 43q-36 29 -51 69t-15 90q0 56 19.5 102t49.5 82q29 37 62.5 63t60.5 41h256q-54 -33 -92.5 -65t-62.5 -61q-25 -29 -36 -54t-11 -45q0 -18 4 -32.5t15 -24.5t31.5 -15.5t53.5 -5.5q21 0 46 3t49 7q24 5 46 10.5t37 10.5l60 -174
q-29 -13 -63.5 -24t-70.5 -19q-37 -7 -75 -11.5t-72 -4.5v0z" />
    <glyph glyph-name="tilde" unicode="&#x2dc;" horiz-adv-x="1208" 
d="M113 1407q83 103 170 162t174 59q54 0 91.5 -17t68.5 -38q30 -21 58.5 -38t63.5 -17t77.5 28.5t94.5 91.5l179 -145q-84 -103 -171 -164t-174 -61q-51 0 -88 17t-68 38t-60.5 38t-65.5 17q-34 0 -77.5 -26.5t-94.5 -89.5z" />
    <glyph glyph-name="hungarumlaut" unicode="&#x2dd;" horiz-adv-x="1208" 
d="M371 1645h370l-360 -375h-268zM924 1645h370l-360 -375h-268z" />
    <glyph glyph-name="hookabovecomb" unicode="&#x309;" horiz-adv-x="1208" 
 />
    <glyph glyph-name="dotbelowcomb" unicode="&#x323;" horiz-adv-x="1208" 
 />
    <glyph glyph-name="uni0340" unicode="&#x340;" horiz-adv-x="1208" 
 />
    <glyph glyph-name="uni0341" unicode="&#x341;" horiz-adv-x="1208" 
 />
    <glyph glyph-name="tonos" unicode="&#x384;" horiz-adv-x="1208" 
d="M637 1645h297l-217 -375h-242z" />
    <glyph glyph-name="dieresistonos" unicode="&#x385;" horiz-adv-x="1208" 
d="M127 1548h227v-278h-227v278zM856 1548h227v-278h-227v278zM563 1645h281l-201 -375h-225z" />
    <glyph glyph-name="Alphatonos" unicode="&#x386;" horiz-adv-x="1647" 
d="M205 1526h297l-217 -375h-242zM668 1528h340l612 -1528h-348l-98 250h-689l-98 -250h-328zM1067 526l-238 604l-237 -604h475z" />
    <glyph glyph-name="Epsilontonos" unicode="&#x388;" horiz-adv-x="1841" 
d="M205 1518h297l-217 -375h-242zM584 1518h1140v-304h-804v-294h784v-293h-784v-336h813v-291h-1149v1518z" />
    <glyph glyph-name="Etatonos" unicode="&#x389;" horiz-adv-x="2103" 
d="M205 1518h297l-217 -375h-242zM584 1518h336v-582h694v582h336v-1518h-336v623h-694v-623h-336v1518z" />
    <glyph glyph-name="Iotatonos" unicode="&#x38a;" horiz-adv-x="1114" 
d="M205 1518h297l-217 -375h-242zM602 1518h334v-1518h-334v1518z" />
    <glyph glyph-name="Omicrontonos" unicode="&#x38c;" horiz-adv-x="2077" 
d="M205 1518h297l-217 -375h-242zM1202 -25q-181 0 -329 42t-253 136q-106 94 -163.5 243t-57.5 364q0 213 57.5 362t163.5 243q105 93 253 135t329 42t329.5 -42t254.5 -135q106 -94 163.5 -243t57.5 -362q0 -215 -57.5 -364t-163.5 -243t-254.5 -136t-329.5 -42v0z
M1202 270q130 0 219 34t144 97t78.5 152.5t23.5 200.5t-23.5 200.5t-78.5 151.5t-144 95.5t-219 33.5q-131 0 -219.5 -33.5t-143.5 -95.5t-78.5 -151.5t-23.5 -200.5t23.5 -200.5t78.5 -152.5t143.5 -97t219.5 -34v0z" />
    <glyph glyph-name="Upsilontonos" unicode="&#x38e;" horiz-adv-x="2111" 
d="M205 1518h297l-217 -375h-242zM1165 532l-604 986h361l417 -684l418 684h346l-604 -986v-532h-334v532z" />
    <glyph glyph-name="Omegatonos" unicode="&#x38f;" horiz-adv-x="2130" 
d="M1221 1542q208 0 359.5 -54t250.5 -146q99 -93 146.5 -215.5t47.5 -260.5q0 -224 -108 -360.5t-326 -177.5v-54h457v-274h-696v440q94 18 158 50.5t103 79.5q39 46 56 107t17 136q0 97 -29 175t-87 133q-59 55 -146 84.5t-203 29.5q-117 0 -204.5 -29.5t-145.5 -84.5
q-59 -55 -88 -133t-29 -175q0 -75 17 -136t56 -107q39 -47 103 -79.5t157 -50.5v-440h-696v274h457v54q-218 42 -325 177t-107 361q0 138 47.5 260.5t146.5 215.5q98 92 250 146t361 54v0zM205 1518h297l-217 -375h-242z" />
    <glyph glyph-name="iotadieresistonos" unicode="&#x390;" horiz-adv-x="600" 
d="M-176 1548h227v-278h-227v278zM553 1548h227v-278h-227v278zM260 1645h281l-201 -375h-225zM139 1159h320v-1159h-320v1159z" />
    <glyph glyph-name="Alpha" unicode="&#x391;" horiz-adv-x="1616" 
d="M637 1528h340l612 -1528h-348l-98 250h-688l-99 -250h-327zM1036 526l-237 604l-238 -604h475z" />
    <glyph glyph-name="Beta" unicode="&#x392;" horiz-adv-x="1546" 
d="M152 1518h704q151 0 260 -22t180 -69q70 -48 103 -122t33 -179q0 -133 -49 -215.5t-154 -119.5q67 -16 113.5 -46t75.5 -76t42 -108t13 -143q0 -124 -39.5 -204.5t-117.5 -127.5q-79 -48 -195 -67t-269 -19h-700v1518zM891 279q64 0 110 9.5t76 30.5q29 20 42.5 52.5
t13.5 79.5q0 46 -13.5 78.5t-42.5 53.5q-29 20 -75 29t-111 9h-410v-342h410zM868 911q67 0 110.5 11t68.5 32t35 52t10 71t-11 69.5t-37 48.5t-69 28.5t-107 9.5h-387v-322h387z" />
    <glyph glyph-name="Gamma" unicode="&#x393;" horiz-adv-x="1335" 
d="M487 0h-335v1518h1103v-304h-768v-1214z" />
    <glyph glyph-name="Delta" unicode="&#x394;" horiz-adv-x="1616" 
d="M637 1528h340l610 -1528h-1558zM1133 276l-336 854l-334 -854h670z" />
    <glyph glyph-name="Delta" unicode="&#x2206;" horiz-adv-x="1616" 
d="M637 1528h340l610 -1528h-1558zM1133 276l-336 854l-334 -854h670z" />
    <glyph glyph-name="Epsilon" unicode="&#x395;" horiz-adv-x="1407" 
d="M152 1518h1140v-304h-805v-294h785v-293h-785v-336h813v-291h-1148v1518z" />
    <glyph glyph-name="Zeta" unicode="&#x396;" horiz-adv-x="1417" 
d="M66 250l833 964h-799v304h1223v-275l-821 -952h844v-291h-1280v250z" />
    <glyph glyph-name="Eta" unicode="&#x397;" horiz-adv-x="1669" 
d="M152 1518h335v-582h695v582h336v-1518h-336v623h-695v-623h-335v1518z" />
    <glyph glyph-name="Theta" unicode="&#x398;" horiz-adv-x="1747" 
d="M573 903h598v-293h-598v293zM872 -25q-181 0 -329 42t-253 136t-162.5 243t-57.5 364q0 213 57.5 362t162.5 243q105 93 253 135t329 42t329.5 -42t254.5 -135q106 -94 163.5 -243t57.5 -362q0 -215 -57.5 -364t-163.5 -243t-254.5 -136t-329.5 -42v0zM872 270
q131 0 220 34t144 97q54 63 77.5 152.5t23.5 200.5t-23.5 200.5t-77.5 151.5q-55 62 -144 95.5t-220 33.5t-219.5 -33.5t-142.5 -95.5q-55 -62 -78.5 -151.5t-23.5 -200.5t23.5 -200.5t78.5 -152.5q54 -63 142.5 -97t219.5 -34v0z" />
    <glyph glyph-name="Iota" unicode="&#x399;" horiz-adv-x="682" 
d="M174 1518h334v-1518h-334v1518z" />
    <glyph glyph-name="Kappa" unicode="&#x39a;" horiz-adv-x="1556" 
d="M698 662l-215 -254v-408h-331v1518h331v-687l576 687h371l-515 -600l588 -918h-379z" />
    <glyph glyph-name="Lambda" unicode="&#x39b;" horiz-adv-x="1599" 
d="M1569 0h-352l-424 1110l-422 -1110h-346l604 1528h340z" />
    <glyph glyph-name="Mu" unicode="&#x39c;" horiz-adv-x="2003" 
d="M152 1518h438l411 -1037l412 1037h436v-1518h-327v1014l-408 -1014h-254l-405 1008v-1008h-303v1518z" />
    <glyph glyph-name="Nu" unicode="&#x39d;" horiz-adv-x="1686" 
d="M152 1518h362l698 -957v957h320v-1518h-307l-752 1024v-1024h-321v1518z" />
    <glyph glyph-name="Xi" unicode="&#x39e;" horiz-adv-x="1399" 
d="M113 1518h1169v-304h-1169v304zM227 924h947v-293h-947v293zM104 291h1190v-291h-1190v291z" />
    <glyph glyph-name="Omicron" unicode="&#x39f;" horiz-adv-x="1747" 
d="M872 -25q-181 0 -329 42t-253 136t-162.5 243t-57.5 364q0 213 57.5 362t162.5 243q105 93 253 135t329 42t329.5 -42t254.5 -135q106 -94 163.5 -243t57.5 -362q0 -215 -57.5 -364t-163.5 -243t-254.5 -136t-329.5 -42v0zM872 270q131 0 220 34t144 97q54 63 77.5 152.5
t23.5 200.5t-23.5 200.5t-77.5 151.5q-55 62 -144 95.5t-220 33.5t-219.5 -33.5t-142.5 -95.5q-55 -62 -78.5 -151.5t-23.5 -200.5t23.5 -200.5t78.5 -152.5q54 -63 142.5 -97t219.5 -34v0z" />
    <glyph glyph-name="Pi" unicode="&#x3a0;" horiz-adv-x="1618" 
d="M152 1518h1312v-1518h-336v1219h-645v-1219h-331v1518z" />
    <glyph glyph-name="Rho" unicode="&#x3a1;" horiz-adv-x="1556" 
d="M152 1518h729q175 0 291.5 -35.5t186.5 -101.5t99 -160t29 -211q0 -78 -12 -148.5t-40 -131.5t-75 -109.5t-116 -83.5t-163 -53.5t-217 -18.5h-385v-465h-327v1518zM879 752q71 0 122.5 13t84.5 42q33 28 49 74t16 112q0 69 -15.5 114.5t-48.5 73.5q-33 27 -85.5 38.5
t-127.5 11.5h-395v-479h400z" />
    <glyph glyph-name="Sigma" unicode="&#x3a3;" horiz-adv-x="1356" 
d="M66 250l464 508l-442 485v275h1161v-304h-735l416 -456l-428 -467h782v-291h-1218v250z" />
    <glyph glyph-name="Tau" unicode="&#x3a4;" horiz-adv-x="1446" 
d="M555 1214h-526v304h1388v-304h-524v-1214h-338v1214z" />
    <glyph glyph-name="Upsilon" unicode="&#x3a5;" horiz-adv-x="1556" 
d="M610 532l-604 986h361l417 -684l418 684h346l-604 -986v-532h-334v532z" />
    <glyph glyph-name="Phi" unicode="&#x3a6;" horiz-adv-x="1872" 
d="M770 96q-166 13 -300 58t-228 126q-95 81 -146 200t-51 280q0 160 51 278.5t146 198.5q94 80 228 125t300 59v97h334v-97q165 -14 299 -59t229 -125q94 -81 145.5 -199t51.5 -278q0 -161 -51.5 -280t-145.5 -199q-95 -81 -229 -126t-299 -59v-96h-334v96zM383 754
q0 -69 19.5 -129t65.5 -106q45 -47 119 -78.5t183 -45.5v717q-109 -14 -183 -45.5t-119 -77.5q-46 -47 -65.5 -106.5t-19.5 -128.5v0zM1489 754q0 69 -20 128.5t-65 106.5q-45 46 -118.5 77.5t-181.5 45.5v-717q108 14 181.5 45.5t118.5 78.5q45 46 65 106t20 129v0z" />
    <glyph glyph-name="Chi" unicode="&#x3a7;" horiz-adv-x="1599" 
d="M784 547l-360 -547h-371l557 797l-499 721h376l326 -467l307 467h371l-506 -715l561 -803h-381z" />
    <glyph glyph-name="Psi" unicode="&#x3a8;" horiz-adv-x="1665" 
d="M666 506q-161 12 -267.5 51t-169.5 107t-88.5 167t-25.5 232v455h319v-461q0 -50 5.5 -93t28.5 -77q22 -35 68.5 -59t129.5 -35v725h335v-725q83 11 130 35t70 59q22 34 27 77.5t5 94.5v459h317v-453q0 -133 -27 -232t-91 -167q-64 -69 -169 -108.5t-262 -51.5v-506h-335
v506z" />
    <glyph glyph-name="Omega" unicode="&#x3a9;" horiz-adv-x="1817" 
d="M909 1542q208 0 360 -54t251 -146q99 -93 146.5 -215.5t47.5 -260.5q0 -224 -108 -360.5t-326 -177.5v-54h457v-274h-697v440q94 18 158 50.5t103 79.5q39 46 56 107t17 136q0 97 -29 175t-87 133t-145.5 84.5t-203.5 29.5q-117 0 -204.5 -29.5t-145.5 -84.5
q-59 -55 -88 -133t-29 -175q0 -75 17 -136t56 -107q39 -47 103 -79.5t158 -50.5v-440h-696v274h457v54q-218 42 -325.5 177t-107.5 361q0 138 47.5 260.5t146.5 215.5q98 92 250 146t361 54v0z" />
    <glyph glyph-name="Omega" unicode="&#x2126;" horiz-adv-x="1817" 
d="M909 1542q208 0 360 -54t251 -146q99 -93 146.5 -215.5t47.5 -260.5q0 -224 -108 -360.5t-326 -177.5v-54h457v-274h-697v440q94 18 158 50.5t103 79.5q39 46 56 107t17 136q0 97 -29 175t-87 133t-145.5 84.5t-203.5 29.5q-117 0 -204.5 -29.5t-145.5 -84.5
q-59 -55 -88 -133t-29 -175q0 -75 17 -136t56 -107q39 -47 103 -79.5t158 -50.5v-440h-696v274h457v54q-218 42 -325.5 177t-107.5 361q0 138 47.5 260.5t146.5 215.5q98 92 250 146t361 54v0z" />
    <glyph glyph-name="Iotadieresis" unicode="&#x3aa;" horiz-adv-x="682" 
d="M-35 1894h291v-278h-291v278zM430 1894h289v-278h-289v278zM174 1518h334v-1518h-334v1518z" />
    <glyph glyph-name="Upsilondieresis" unicode="&#x3ab;" horiz-adv-x="1556" 
d="M399 1894h291v-278h-291v278zM864 1894h289v-278h-289v278zM610 532l-604 986h361l417 -684l418 684h346l-604 -986v-532h-334v532z" />
    <glyph glyph-name="alphatonos" unicode="&#x3ac;" horiz-adv-x="1427" 
d="M696 1645h297l-217 -375h-241zM651 254q81 0 135 20.5t87 61.5t47 103.5t14 146.5q0 82 -12 141t-44 97q-32 37 -87 55t-140 18q-79 0 -128.5 -22.5t-77.5 -63.5q-28 -42 -38 -99t-10 -126q0 -70 10 -130.5t38 -105.5t77.5 -70.5t128.5 -25.5v0zM995 125
q-28 -38 -65.5 -65t-88.5 -44t-116.5 -25.5t-149.5 -8.5q-149 0 -246 47.5t-154 129.5t-80 192t-23 235q0 83 10 159.5t33 143.5q23 66 61.5 120.5t95.5 93.5t134.5 60t179.5 21q79 0 141.5 -8t110.5 -23q47 -15 81.5 -37.5t57.5 -50.5l63 100l217 -18v-774q0 -35 2.5 -56
t12.5 -32t30.5 -15t55.5 -4v-262q-17 -5 -49 -6.5t-86 -1.5q-46 0 -82 6t-63 21q-28 14 -48 39t-35 63v0z" />
    <glyph glyph-name="epsilontonos" unicode="&#x3ad;" horiz-adv-x="1069" 
d="M596 1645h297l-217 -375h-242zM553 -27q-136 0 -229 24t-150 70t-81.5 113.5t-24.5 153.5q0 123 45.5 186t134.5 86q-38 14 -66 35t-46 52q-18 30 -27 70.5t-9 94.5q0 86 30.5 148t87.5 103q57 40 139 59.5t184 19.5q165 0 293 -40t215 -106l-164 -200
q-57 35 -126.5 55.5t-170.5 20.5q-47 0 -79.5 -8t-52.5 -21q-20 -14 -29 -33t-9 -41q0 -24 6 -42.5t25 -30.5q19 -13 54.5 -20t94.5 -7h176v-230h-164q-77 0 -122 -8.5t-69 -23.5t-31 -36.5t-7 -47.5q0 -32 10 -56t34 -41q23 -17 62 -25.5t97 -8.5q53 0 95.5 6t79.5 18
t70 30t68 42l174 -197q-51 -45 -108 -76t-120 -50q-64 -20 -136 -29t-154 -9v0z" />
    <glyph glyph-name="etatonos" unicode="&#x3ae;" horiz-adv-x="1360" 
d="M727 1645h297l-217 -375h-242zM127 1141l250 18l26 -100q23 25 57 48t84 41q50 17 118.5 27.5t160.5 10.5q132 0 213.5 -35t126.5 -98q45 -64 60.5 -153.5t15.5 -197.5v-1040h-319v977q0 53 -5.5 97.5t-26.5 77.5q-22 32 -64 50.5t-115 18.5q-84 0 -135 -19t-79 -53
t-37 -81.5t-9 -104.5v-625h-322v1141z" />
    <glyph glyph-name="iotatonos" unicode="&#x3af;" horiz-adv-x="600" 
d="M336 1645h297l-217 -375h-242zM139 1159h320v-1159h-320v1159z" />
    <glyph glyph-name="upsilondieresistonos" unicode="&#x3b0;" horiz-adv-x="1343" 
d="M195 1548h227v-278h-227v278zM924 1548h227v-278h-227v278zM631 1645h280l-200 -375h-226zM674 -18q-166 0 -273 31.5t-169 99.5q-63 67 -87 173t-24 255v618h321v-624q0 -61 4 -111.5t27 -86.5q22 -37 69.5 -57t133.5 -20q85 0 132 20.5t69 57.5q22 36 26 87t4 112v622
h316v-616q0 -149 -23.5 -255.5t-84.5 -174.5q-62 -68 -168.5 -99.5t-272.5 -31.5v0z" />
    <glyph glyph-name="alpha" unicode="&#x3b1;" horiz-adv-x="1427" 
d="M651 254q81 0 135 20.5t87 61.5t47 103.5t14 146.5q0 82 -12 141t-44 97q-32 37 -87 55t-140 18q-79 0 -128.5 -22.5t-77.5 -63.5q-28 -42 -38 -99t-10 -126q0 -70 10 -130.5t38 -105.5t77.5 -70.5t128.5 -25.5v0zM995 125q-28 -38 -65.5 -65t-88.5 -44t-116.5 -25.5
t-149.5 -8.5q-149 0 -246 47.5t-154 129.5t-80 192t-23 235q0 83 10 159.5t33 143.5q23 66 61.5 120.5t95.5 93.5t134.5 60t179.5 21q79 0 141.5 -8t110.5 -23q47 -15 81.5 -37.5t57.5 -50.5l63 100l217 -18v-774q0 -35 2.5 -56t12.5 -32t30.5 -15t55.5 -4v-262
q-17 -5 -49 -6.5t-86 -1.5q-46 0 -82 6t-63 21q-28 14 -48 39t-35 63v0z" />
    <glyph glyph-name="beta" unicode="&#x3b2;" horiz-adv-x="1423" 
d="M127 1063q0 68 9 135t33 128q24 60 65.5 111.5t106.5 89.5q64 37 154 58t212 21q135 0 234.5 -27.5t165.5 -79.5q66 -53 98 -130t32 -177q0 -81 -10 -140t-31 -101q-21 -43 -54.5 -71.5t-80.5 -48.5q70 -14 125.5 -39t93.5 -69q38 -45 58 -111.5t20 -162.5
q0 -118 -25.5 -203t-95.5 -139q-70 -55 -195.5 -81t-324.5 -26h-123v272h113q109 0 174.5 14t100.5 40q35 25 46.5 62t11.5 83q0 54 -16 89.5t-60 57.5q-45 21 -122.5 30t-200.5 9v252q84 0 138 11t86 35q31 24 43 61.5t12 89.5q0 45 -11 80t-36 59q-26 24 -68.5 36.5
t-104.5 12.5q-138 0 -197 -60.5t-59 -182.5v-1389h-317v1401z" />
    <glyph glyph-name="gamma" unicode="&#x3b3;" horiz-adv-x="1255" 
d="M459 -12l-461 1171h346l293 -786l293 786h325l-460 -1171v-328h-336v328z" />
    <glyph glyph-name="delta" unicode="&#x3b4;" horiz-adv-x="1354" 
d="M678 -23q-164 0 -279 41t-187 114q-73 72 -106.5 171.5t-33.5 216.5q0 108 28 200.5t89 163.5q61 70 157.5 115.5t233.5 57.5l-379 315v217h950v-272h-485l430 -365q99 -71 142.5 -181t43.5 -251q0 -117 -33 -216.5t-105 -171.5q-73 -73 -188 -114t-278 -41v0zM678 252
q83 0 137.5 21t87.5 57q32 35 45 82t13 98q0 58 -13 108t-45 87q-33 37 -87.5 58t-137.5 21q-84 0 -138.5 -21t-86.5 -58t-45 -87t-13 -108q0 -51 13 -98t45 -82q32 -36 86.5 -57t138.5 -21v0z" />
    <glyph glyph-name="epsilon" unicode="&#x3b5;" horiz-adv-x="1094" 
d="M553 -27q-136 0 -229 24t-150 70t-81.5 113.5t-24.5 153.5q0 123 45.5 186t134.5 86q-38 14 -66 35t-46 52q-18 30 -27 70.5t-9 94.5q0 86 30.5 148t87.5 103q57 40 139 59.5t184 19.5q165 0 293 -40t215 -106l-164 -200q-57 35 -126.5 55.5t-170.5 20.5q-47 0 -79.5 -8
t-52.5 -21q-20 -14 -29 -33t-9 -41q0 -24 6 -42.5t25 -30.5q19 -13 54.5 -20t94.5 -7h176v-230h-164q-77 0 -122 -8.5t-69 -23.5t-31 -36.5t-7 -47.5q0 -32 10 -56t34 -41q23 -17 62 -25.5t97 -8.5q53 0 95.5 6t79.5 18t70 30t68 42l174 -197q-51 -45 -108 -76t-120 -50
q-64 -20 -136 -29t-154 -9v0z" />
    <glyph glyph-name="zeta" unicode="&#x3b6;" horiz-adv-x="1106" 
d="M684 -330q-85 0 -151 19.5t-121 50.5l77 149q48 -24 95 -37.5t88 -13.5q73 0 101 20t28 58q0 40 -37 55.5t-119 20.5q-115 2 -202 22.5t-150 55.5q-64 35 -106.5 81.5t-67.5 101.5q-26 54 -36.5 113.5t-10.5 120.5q0 119 35 220.5t104 198.5q68 96 169.5 195.5
t235.5 215.5h-542v272h975v-219q-130 -102 -229 -189.5t-171 -163.5q-73 -76 -121.5 -142.5t-77.5 -126.5q-30 -61 -42.5 -117t-12.5 -111q0 -49 12 -93.5t43 -80.5t84.5 -60.5t135.5 -33.5q98 -10 165 -31.5t108 -55.5q40 -35 57.5 -84.5t17.5 -115.5q0 -148 -80 -221.5
t-254 -73.5v0z" />
    <glyph glyph-name="eta" unicode="&#x3b7;" horiz-adv-x="1360" 
d="M127 1141l250 18l26 -100q23 25 57 48t84 41q50 17 118.5 27.5t160.5 10.5q132 0 213.5 -35t126.5 -98q45 -64 60.5 -153.5t15.5 -197.5v-1040h-319v977q0 53 -5.5 97.5t-26.5 77.5q-22 32 -64 50.5t-115 18.5q-84 0 -135 -19t-79 -53t-37 -81.5t-9 -104.5v-625h-322
v1141z" />
    <glyph glyph-name="theta" unicode="&#x3b8;" horiz-adv-x="1581" 
d="M793 -23q-183 0 -310 56t-206 161t-114.5 256.5t-35.5 342.5q0 192 35.5 343.5t114.5 256.5q79 104 206 159.5t310 55.5q180 0 305.5 -55.5t204.5 -159.5q79 -105 115 -256.5t36 -343.5q0 -191 -36 -342.5t-115 -256.5t-204.5 -161t-305.5 -56v0zM793 1317
q-89 0 -149.5 -29t-98.5 -83q-39 -54 -58.5 -131.5t-25.5 -174.5h657q-5 97 -24 174.5t-56 131.5q-38 54 -98 83t-147 29v0zM793 256q86 0 145 29.5t97 84.5q37 54 56.5 130.5t26.5 171.5h-655q6 -95 25.5 -171.5t58.5 -130.5q39 -55 99 -84.5t147 -29.5v0z" />
    <glyph glyph-name="iota" unicode="&#x3b9;" horiz-adv-x="600" 
d="M139 1159h320v-1159h-320v1159z" />
    <glyph glyph-name="kappa" unicode="&#x3ba;" horiz-adv-x="1239" 
d="M127 1159h317v-479l396 479h350l-389 -473l424 -686h-357l-284 446l-140 -165v-281h-317v1159z" />
    <glyph glyph-name="lambda" unicode="&#x3bb;" horiz-adv-x="1251" 
d="M274 1591q105 0 183 -16t135 -51q57 -36 97 -92.5t71 -137.5l493 -1294h-346l-286 801l-297 -801h-326l465 1176l-33 84q-10 24 -22 40.5t-32 26.5t-51 14.5t-79 4.5h-86v241q13 1 29 1.5t32 1.5q16 0 30 0.5t23 0.5v0z" />
    <glyph glyph-name="uni03BC" unicode="&#x3bc;" horiz-adv-x="1364" 
d="M549 -23q-35 0 -67 3t-60 8v-326h-295v1497h322v-649q0 -57 6.5 -103t28.5 -79t63 -50.5t110 -17.5q84 0 134 19t77 54q27 34 35 82.5t8 106.5v637h324v-1147l-246 -22l-31 116q-55 -65 -161 -97t-248 -32v0z" />
    <glyph glyph-name="nu" unicode="&#x3bd;" horiz-adv-x="1255" 
d="M-2 1159h346l293 -786l293 786h325l-460 -1171h-336z" />
    <glyph glyph-name="xi" unicode="&#x3be;" horiz-adv-x="1106" 
d="M684 -330q-85 0 -151 19.5t-121 50.5l77 149q48 -24 95 -37.5t88 -13.5q73 0 101 20t28 58q0 40 -37.5 55.5t-118.5 20.5q-171 2 -281.5 35.5t-175.5 90.5t-90.5 134.5t-25.5 169.5q0 91 24.5 160t69.5 118t108.5 78.5t141.5 42.5q-62 11 -106 33t-72 55t-41 76.5
t-13 97.5q0 45 11.5 82.5t31.5 67.5t47.5 51t59.5 33h-260v272h975v-272h-258q-82 0 -139 -11.5t-92 -35.5q-36 -24 -52 -60.5t-16 -85.5q0 -47 12.5 -83t48.5 -61t100 -39t168 -15v-221h-13.5h-22.5q-13 -1 -23.5 -1.5t-13.5 -1.5q-113 -2 -183.5 -18.5t-109.5 -44.5
q-39 -29 -52.5 -68t-13.5 -86q0 -55 14 -95.5t47 -67.5q32 -28 86 -45t134 -25q99 -9 165.5 -30.5t107.5 -56.5q40 -35 57.5 -84.5t17.5 -115.5q0 -148 -80 -221.5t-254 -73.5v0z" />
    <glyph glyph-name="omicron" unicode="&#x3bf;" horiz-adv-x="1354" 
d="M678 -23q-164 0 -279 40t-187 117q-73 77 -106.5 189.5t-33.5 258.5t33.5 258.5t106.5 189.5q72 77 187 116.5t279 39.5q163 0 278 -39.5t188 -116.5q72 -77 105 -189.5t33 -258.5t-33 -258.5t-105 -189.5q-73 -77 -188 -117t-278 -40v0zM678 252q83 0 137.5 22.5
t87.5 64.5q32 42 45 101t13 133t-13 133t-45 101q-33 41 -87.5 63.5t-137.5 22.5q-84 0 -138.5 -22.5t-86.5 -63.5q-32 -42 -45 -101t-13 -133t13 -133t45 -101t86.5 -64.5t138.5 -22.5v0z" />
    <glyph glyph-name="pi" unicode="&#x3c0;" horiz-adv-x="1370" 
d="M127 1159h1116v-1159h-321v891h-478v-891h-317v1159z" />
    <glyph glyph-name="rho" unicode="&#x3c1;" horiz-adv-x="1395" 
d="M125 582q0 147 33 259.5t106 189.5q73 76 188.5 115.5t280.5 39.5q120 0 210.5 -21.5t156.5 -60.5q65 -40 108 -95t69 -122q25 -68 35.5 -145t10.5 -160q0 -125 -22.5 -234.5t-80.5 -190.5t-157.5 -128t-253.5 -47q-78 0 -136 6.5t-100 20.5q-43 13 -72.5 33.5
t-51.5 47.5v-428h-322zM745 254q78 0 127 23.5t77 65.5q27 41 37.5 99t10.5 127q0 70 -9.5 129.5t-36.5 102.5q-28 43 -77.5 67.5t-128.5 24.5q-83 0 -139.5 -20.5t-91.5 -60.5q-35 -41 -50 -101.5t-15 -141.5q0 -83 13.5 -142.5t47.5 -97.5q33 -39 90.5 -57t144.5 -18v0z
" />
    <glyph glyph-name="sigma1" unicode="&#x3c2;" horiz-adv-x="1202" 
d="M705 -330q-85 0 -151.5 19.5t-123.5 50.5l80 149q46 -24 94 -37.5t88 -13.5q74 0 101.5 20t27.5 58q0 43 -38.5 56.5t-116.5 13.5q-180 0 -295.5 44.5t-181.5 124.5q-66 79 -91.5 188.5t-25.5 238.5q0 85 10.5 163t36.5 145q25 67 69.5 121.5t112.5 93.5q67 39 160.5 60
t218.5 21q158 0 275.5 -49.5t195.5 -139.5l-225 -213q-18 19 -40.5 38.5t-51.5 34.5q-30 15 -67.5 24.5t-86.5 9.5q-86 0 -141 -22t-87 -63t-44.5 -100t-12.5 -133t11.5 -131t44.5 -98q32 -41 88.5 -65t146.5 -31q91 -9 157.5 -27t110.5 -51q43 -33 63.5 -83t20.5 -124
q0 -146 -79 -219.5t-254 -73.5v0z" />
    <glyph glyph-name="sigma" unicode="&#x3c3;" horiz-adv-x="1419" 
d="M678 -23q-164 0 -279 40t-187 117q-73 77 -106.5 189.5t-33.5 258.5t33.5 258.5t106.5 189.5q72 77 187 116.5t279 39.5q100 0 181.5 -15.5t146.5 -44.5h409v-274h-170q19 -57 28 -124.5t9 -145.5q0 -146 -33 -258.5t-105 -189.5q-73 -77 -188 -117t-278 -40v0zM678 252
q83 0 137.5 22.5t87.5 64.5q32 42 45 101t13 133t-13 133t-45 101q-33 41 -87.5 63.5t-137.5 22.5q-84 0 -138.5 -22.5t-86.5 -63.5q-32 -42 -45 -101t-13 -133t13 -133t45 -101t86.5 -64.5t138.5 -22.5v0z" />
    <glyph glyph-name="tau" unicode="&#x3c4;" horiz-adv-x="1214" 
d="M20 1159h1174v-274h-426v-885h-322v885h-426v274z" />
    <glyph glyph-name="upsilon" unicode="&#x3c5;" horiz-adv-x="1343" 
d="M674 -18q-166 0 -273 31.5t-169 99.5q-63 67 -87 173t-24 255v618h321v-624q0 -61 4 -111.5t27 -86.5q22 -37 69.5 -57t133.5 -20q85 0 132 20.5t69 57.5q22 36 26 87t4 112v622h316v-616q0 -149 -23.5 -255.5t-84.5 -174.5q-62 -68 -168.5 -99.5t-272.5 -31.5v0z" />
    <glyph glyph-name="phi" unicode="&#x3c6;" horiz-adv-x="1632" 
d="M72 582q0 210 70.5 345t224.5 195l114 -286q-48 -38 -67 -103.5t-19 -159.5q0 -70 11 -126t39 -97t76 -65.5t122 -30.5v932h336q157 -5 267.5 -46.5t180.5 -117.5q69 -77 100.5 -187.5t31.5 -252.5q0 -143 -31.5 -253.5t-100.5 -186.5q-70 -77 -180.5 -118.5
t-267.5 -46.5v-315h-336v318q-155 5 -264 47t-177 118t-99 186t-31 251v0zM1237 573q0 71 -11.5 128t-40.5 98q-29 40 -79 63.5t-127 28.5v-639q77 4 127 28t79 66q29 41 40.5 98.5t11.5 128.5v0z" />
    <glyph glyph-name="chi" unicode="&#x3c7;" horiz-adv-x="1227" 
d="M596 373l-248 -373h-338l424 606l-385 553h359l223 -321l211 321h338l-385 -555l422 -604h-361z" />
    <glyph glyph-name="psi" unicode="&#x3c8;" horiz-adv-x="1651" 
d="M662 -23q-164 3 -269 37t-165 103q-61 68 -84 173t-23 251v618h321v-624q0 -59 3.5 -107.5t24.5 -84.5t65.5 -57.5t126.5 -25.5v899h333v-899q81 4 125 25.5t65 58.5q21 36 25 85t4 108v622h316v-616q0 -145 -23 -250.5t-83 -174.5t-164 -103.5t-265 -37.5v-315h-333v315
z" />
    <glyph glyph-name="omega" unicode="&#x3c9;" horiz-adv-x="1849" 
d="M1083 500q3 -71 16 -118t37 -75q23 -29 55.5 -41t74.5 -12q46 0 79.5 13.5t55.5 45.5q22 31 32.5 82t10.5 125q0 45 -8 99t-27 117q-19 62 -50 132t-77 148l260 160q59 -96 100.5 -184t68.5 -173q26 -85 38 -170t12 -174q0 -135 -36.5 -229.5t-98.5 -154.5t-144.5 -87
t-174.5 -27q-85 0 -148.5 17.5t-109.5 53.5q-47 35 -77 89.5t-48 128.5q-17 -74 -47 -128.5t-76 -89.5q-46 -36 -110 -53.5t-148 -17.5q-92 0 -175 27t-145 87t-98.5 154.5t-36.5 229.5q0 89 12 174t39 170q26 85 67.5 173t100.5 184l260 -160q-46 -78 -76.5 -148
t-48.5 -132q-19 -63 -26.5 -117t-7.5 -99q0 -74 10.5 -125t32.5 -82q21 -32 54.5 -45.5t78.5 -13.5q41 0 74.5 12t57.5 41q24 28 37 75t13 118v487h317v-487z" />
    <glyph glyph-name="iotadieresis" unicode="&#x3ca;" horiz-adv-x="600" 
d="M-33 1559h258v-279h-258v279zM375 1559h258v-279h-258v279zM139 1159h320v-1159h-320v1159z" />
    <glyph glyph-name="upsilondieresis" unicode="&#x3cb;" horiz-adv-x="1343" 
d="M295 1559h291v-279h-291v279zM760 1559h289v-279h-289v279zM674 -18q-166 0 -273 31.5t-169 99.5q-63 67 -87 173t-24 255v618h321v-624q0 -61 4 -111.5t27 -86.5q22 -37 69.5 -57t133.5 -20q85 0 132 20.5t69 57.5q22 36 26 87t4 112v622h316v-616q0 -149 -23.5 -255.5
t-84.5 -174.5q-62 -68 -168.5 -99.5t-272.5 -31.5v0z" />
    <glyph glyph-name="omicrontonos" unicode="&#x3cc;" horiz-adv-x="1354" 
d="M698 1645h297l-217 -375h-241zM678 -23q-164 0 -279 40t-187 117q-73 77 -106.5 189.5t-33.5 258.5t33.5 258.5t106.5 189.5q72 77 187 116.5t279 39.5q163 0 278 -39.5t188 -116.5q72 -77 105 -189.5t33 -258.5t-33 -258.5t-105 -189.5q-73 -77 -188 -117t-278 -40v0z
M678 252q83 0 137.5 22.5t87.5 64.5q32 42 45 101t13 133t-13 133t-45 101q-33 41 -87.5 63.5t-137.5 22.5q-84 0 -138.5 -22.5t-86.5 -63.5q-32 -42 -45 -101t-13 -133t13 -133t45 -101t86.5 -64.5t138.5 -22.5v0z" />
    <glyph glyph-name="upsilontonos" unicode="&#x3cd;" horiz-adv-x="1343" 
d="M711 1645h297l-217 -375h-242zM674 -18q-166 0 -273 31.5t-169 99.5q-63 67 -87 173t-24 255v618h321v-624q0 -61 4 -111.5t27 -86.5q22 -37 69.5 -57t133.5 -20q85 0 132 20.5t69 57.5q22 36 26 87t4 112v622h316v-616q0 -149 -23.5 -255.5t-84.5 -174.5
q-62 -68 -168.5 -99.5t-272.5 -31.5v0z" />
    <glyph glyph-name="omegatonos" unicode="&#x3ce;" horiz-adv-x="1890" 
d="M995 1645h297l-217 -375h-241zM1110 500q2 -71 15.5 -118t36.5 -75q23 -29 56 -41t74 -12q46 0 79.5 13.5t55.5 45.5q22 31 32.5 82t10.5 125q0 45 -8 99t-26 117q-19 62 -50 132t-77 148l260 160q59 -96 100.5 -184t68.5 -173q26 -85 38 -170t12 -174
q0 -135 -36.5 -229.5t-98.5 -154.5q-63 -60 -145.5 -87t-174.5 -27q-84 0 -148 17.5t-110 53.5q-47 35 -77 89.5t-48 128.5q-17 -74 -47 -128.5t-76 -89.5q-46 -36 -109.5 -53.5t-148.5 -17.5q-92 0 -174.5 27t-144.5 87t-98.5 154.5t-36.5 229.5q0 89 12 174t38 170t68 173
t101 184l260 -160q-46 -78 -77 -148t-49 -132q-19 -63 -26.5 -117t-7.5 -99q0 -74 10.5 -125t32.5 -82q21 -32 54.5 -45.5t78.5 -13.5q42 0 75.5 12t57.5 41q24 28 37 75t13 118v487h317v-487z" />
    <glyph glyph-name="afii10023" unicode="&#x401;" horiz-adv-x="1407" 
d="M326 1888h290v-278h-290v278zM791 1888h288v-278h-288v278zM152 1518h1140v-304h-805v-294h785v-293h-785v-336h813v-291h-1148v1518z" />
    <glyph glyph-name="afii10051" unicode="&#x402;" horiz-adv-x="1815" 
d="M1212 -102h27q36 0 57 6.5t33 22.5q11 17 14 46t3 74v436q0 53 -4.5 98t-24.5 78q-20 32 -60.5 50t-113.5 18q-83 0 -132.5 -18.5t-75.5 -51.5t-34 -80t-8 -104v-473h-338v1214h-526v304h1388v-304h-524v-288q18 19 46.5 37.5t72.5 33.5q43 15 103.5 24t141.5 9
q132 0 215 -35t130 -98q47 -64 64 -153t17 -197v-498q0 -117 -20 -193.5t-68 -121.5t-127 -62.5t-196 -17.5h-60v244z" />
    <glyph glyph-name="afii10052" unicode="&#x403;" horiz-adv-x="1266" 
d="M709 1974h387l-391 -375h-285zM152 1518h1083v-304h-748v-1214h-335v1518z" />
    <glyph glyph-name="afii10053" unicode="&#x404;" horiz-adv-x="1550" 
d="M846 -23q-210 0 -357.5 51.5t-240.5 151.5t-135.5 246t-42.5 334q0 204 54 352t155 244q101 95 244.5 140.5t322.5 45.5q106 0 195.5 -14t165.5 -41q76 -28 139 -69t116 -95l-229 -231q-35 34 -73.5 60.5t-83.5 45.5q-45 18 -97.5 27.5t-114.5 9.5q-194 0 -305 -80.5
t-145 -236.5h743v-291h-751q13 -85 45 -150.5t86 -109.5q53 -45 130 -68t179 -23q81 0 141.5 11.5t107.5 32.5t85 49t73 61l220 -217q-45 -47 -100.5 -89.5t-129.5 -74.5q-75 -33 -172 -52.5t-225 -19.5v0z" />
    <glyph glyph-name="afii10054" unicode="&#x405;" horiz-adv-x="1518" 
d="M768 -23q-227 0 -410 51.5t-313 147.5l168 242q122 -82 260 -122t285 -40q111 0 180 11t108 34q38 22 51 56.5t13 82.5q0 47 -23.5 76.5t-68.5 49.5q-46 19 -113.5 32t-154.5 25q-152 21 -267.5 49.5t-192.5 78.5q-78 50 -117.5 129.5t-39.5 202.5q0 127 38.5 214.5
t117.5 142.5q79 54 197.5 78t279.5 24q116 0 210 -12.5t170 -32.5q75 -21 132.5 -48t101.5 -56l-180 -260q-36 24 -86 45t-107 37q-58 15 -121 24.5t-124 9.5q-89 0 -146.5 -9t-90.5 -28t-45.5 -49t-12.5 -71q0 -46 23.5 -75t69.5 -48q46 -20 114.5 -32.5t159.5 -25.5
t171.5 -28t148.5 -37q67 -22 120.5 -53.5t90.5 -77.5t57 -109.5t20 -148.5q0 -115 -34 -204.5t-113 -150.5t-208 -93t-319 -32v0z" />
    <glyph glyph-name="afii10055" unicode="&#x406;" horiz-adv-x="682" 
d="M174 1518h334v-1518h-334v1518z" />
    <glyph glyph-name="afii10056" unicode="&#x407;" horiz-adv-x="682" 
d="M174 1518h334v-1518h-334v1518zM-35 1888h291v-278h-291v278zM430 1888h289v-278h-289v278z" />
    <glyph glyph-name="afii10057" unicode="&#x408;" horiz-adv-x="932" 
d="M268 -4h-80h-54q-23 1 -43 1.5t-46 2.5v291h182q65 0 109 11t71 36q26 24 37 62t11 92v1026h333v-1039q0 -144 -38.5 -237t-107.5 -148t-164.5 -76.5t-209.5 -21.5v0z" />
    <glyph glyph-name="afii10058" unicode="&#x409;" horiz-adv-x="2664" 
d="M84 291h39q36 0 58 5.5t35 19.5q12 13 16 36t4 58v1108h1351v-482h402q175 0 291.5 -35t186.5 -100t99 -158.5t29 -210.5q0 -78 -12 -147.5t-40 -128.5t-75 -106.5t-116 -80.5t-163 -51t-217 -18h-710v1219h-691v-869q0 -103 -22.5 -171t-64.5 -108q-43 -41 -104.5 -58
t-139.5 -17q-22 0 -46 0.5t-45 1.5q-22 2 -39.5 3t-25.5 3v287zM1987 279q71 0 122.5 12.5t84.5 40.5q33 27 49 72.5t16 111.5q0 67 -15.5 112.5t-48.5 73.5q-33 27 -85.5 38.5t-127.5 11.5h-395v-473h400z" />
    <glyph glyph-name="afii10059" unicode="&#x40a;" horiz-adv-x="2585" 
d="M152 1518h335v-582h695v582h325v-482h402q175 0 291.5 -35t186.5 -100t99 -158.5t29 -210.5q0 -78 -12 -147.5t-40 -128.5t-75 -106.5t-116 -80.5t-163 -51t-217 -18h-710v623h-695v-623h-335v1518zM1907 279q71 0 122.5 12.5t84.5 40.5q33 27 49 72.5t16 111.5
q0 67 -15.5 112.5t-48.5 73.5q-33 27 -85.5 38.5t-126.5 11.5h-396v-473h400z" />
    <glyph glyph-name="afii10060" unicode="&#x40b;" horiz-adv-x="1815" 
d="M555 1214h-526v304h1388v-304h-524v-288q18 19 46.5 37.5t72.5 33.5q43 15 103.5 24t141.5 9q132 0 215 -35t130 -98q47 -64 64 -153t17 -197v-547h-337v483q0 53 -4.5 98t-24.5 78q-20 32 -60.5 50t-113.5 18q-83 0 -132.5 -18.5t-75.5 -51.5t-34 -80t-8 -104v-473h-338
v1214z" />
    <glyph glyph-name="afii10061" unicode="&#x40c;" horiz-adv-x="1556" 
d="M854 1974h387l-391 -375h-285zM639 672h-156v-672h-329v1518h329v-566h140l438 566h383l-543 -676l617 -842h-394z" />
    <glyph glyph-name="afii10062" unicode="&#x40e;" horiz-adv-x="1473" 
d="M453 -4q-21 0 -46 0.5t-49 0.5q-25 1 -46.5 1.5t-35.5 1.5v281h119q48 0 78 2.5t49 11.5t30.5 26t22.5 46l11 26l-563 1125h360l393 -805l354 805h340l-571 -1225q-40 -85 -77 -142t-85 -91q-49 -35 -116.5 -49.5t-167.5 -14.5v0zM735 1569q-114 0 -190 29t-126 82
q-50 52 -78 126t-46 164l231 43q12 -52 26.5 -89.5t37.5 -61.5t58 -35.5t87 -11.5t87 11.5t58 35.5t37.5 61.5t26.5 89.5l234 -41q-20 -91 -49 -165.5t-79 -126.5q-50 -53 -126 -82t-189 -29v0z" />
    <glyph glyph-name="afii10145" unicode="&#x40f;" horiz-adv-x="1661" 
d="M664 0h-512v1518h335v-1233h691v1233h331v-1518h-510v-340h-335v340z" />
    <glyph glyph-name="afii10017" unicode="&#x410;" horiz-adv-x="1616" 
d="M637 1528h340l612 -1528h-348l-98 250h-688l-99 -250h-327zM1036 526l-237 604l-238 -604h475z" />
    <glyph glyph-name="afii10018" unicode="&#x411;" horiz-adv-x="1559" 
d="M152 1518h1146v-304h-827v-227h410q175 0 291.5 -31t186.5 -91t99 -149t29 -206t-28 -211t-99 -160q-71 -67 -191.5 -103t-304.5 -36h-712v1518zM879 276q71 0 122.5 9t84.5 33t49 66t16 108q0 68 -15.5 110t-48.5 65t-85.5 30.5t-127.5 7.5h-403v-429h408z" />
    <glyph glyph-name="afii10019" unicode="&#x412;" horiz-adv-x="1546" 
d="M152 1518h704q151 0 260 -22t180 -69q70 -48 103 -122t33 -179q0 -133 -49 -215.5t-154 -119.5q67 -16 113.5 -46t75.5 -76t42 -108t13 -143q0 -124 -39.5 -204.5t-117.5 -127.5q-79 -48 -195 -67t-269 -19h-700v1518zM891 279q64 0 110 9.5t76 30.5q29 20 42.5 52.5
t13.5 79.5q0 46 -13.5 78.5t-42.5 53.5q-29 20 -75 29t-111 9h-410v-342h410zM868 911q67 0 110.5 11t68.5 32t35 52t10 71t-11 69.5t-37 48.5t-69 28.5t-107 9.5h-387v-322h387z" />
    <glyph glyph-name="afii10020" unicode="&#x413;" horiz-adv-x="1266" 
d="M152 1518h1083v-304h-748v-1214h-335v1518z" />
    <glyph glyph-name="afii10021" unicode="&#x414;" horiz-adv-x="1837" 
d="M86 291h45q36 0 59 5.5t36 19.5q12 13 17 36t5 58v1108h1354v-1227h149v-631h-338v340h-991v-340h-336v631zM1264 283v936h-686v-822q0 -35 -4 -65.5t-29 -48.5h719z" />
    <glyph glyph-name="afii10022" unicode="&#x415;" horiz-adv-x="1407" 
d="M152 1518h1140v-304h-805v-294h785v-293h-785v-336h813v-291h-1148v1518z" />
    <glyph glyph-name="afii10024" unicode="&#x416;" horiz-adv-x="2494" 
d="M1565 670h-158v-670h-320v670h-157l-484 -670h-395l617 842l-543 676h385l436 -566h141v566h320v-566h141l437 566h385l-543 -676l616 -842h-395z" />
    <glyph glyph-name="afii10025" unicode="&#x417;" horiz-adv-x="1460" 
d="M719 -25q-220 0 -389.5 40.5t-302.5 123.5l161 262q118 -66 249 -101.5t268 -35.5q92 0 157.5 5.5t107.5 26.5q42 20 61.5 59t19.5 106q0 51 -16 86.5t-57 57.5q-42 21 -113.5 30.5t-182.5 9.5h-365v285h361q83 0 145 7t103 26t61.5 52t20.5 85q0 48 -19 77t-57 45
q-39 16 -97.5 21.5t-138.5 5.5q-56 0 -120.5 -7.5t-126.5 -21.5q-63 -14 -118.5 -33t-92.5 -42l-175 254q57 34 135 61t166 45t181.5 27.5t181.5 9.5q137 0 251 -18.5t196 -60.5q81 -43 126.5 -112.5t45.5 -172.5q0 -80 -10 -137t-32 -97q-23 -41 -58 -68.5t-85 -46.5
q59 -21 101.5 -49t70.5 -72q27 -44 40 -109t13 -159q0 -139 -53.5 -229t-144.5 -142q-92 -53 -213 -73.5t-256 -20.5v0z" />
    <glyph glyph-name="afii10026" unicode="&#x418;" horiz-adv-x="1686" 
d="M152 1518h321v-957l698 957h361v-1518h-320v1024l-751 -1024h-309v1518z" />
    <glyph glyph-name="afii10027" unicode="&#x419;" horiz-adv-x="1686" 
d="M152 1518h321v-957l698 957h361v-1518h-320v1024l-751 -1024h-309v1518zM840 1569q-114 0 -190.5 29t-125.5 82q-50 52 -78.5 126t-46.5 164l232 43q12 -52 26 -89.5t38 -61.5q23 -24 57.5 -35.5t87.5 -11.5q52 0 87 11.5t58 35.5t37.5 61.5t26.5 89.5l233 -41
q-19 -91 -48 -165.5t-79 -126.5q-50 -53 -126 -82t-189 -29v0z" />
    <glyph glyph-name="afii10028" unicode="&#x41a;" horiz-adv-x="1571" 
d="M639 672h-156v-672h-329v1518h329v-566h140l438 566h383l-543 -676l617 -842h-394z" />
    <glyph glyph-name="afii10029" unicode="&#x41b;" horiz-adv-x="1753" 
d="M86 291h41q35 0 57 5.5t35 19.5q12 13 16.5 36t4.5 58v1108h1362v-1518h-338v1219h-691v-869q0 -103 -22.5 -171t-64.5 -108q-43 -41 -104.5 -58t-139.5 -17q-22 0 -45.5 0.5t-44.5 1.5q-22 2 -39.5 3t-26.5 3v287z" />
    <glyph glyph-name="afii10030" unicode="&#x41c;" horiz-adv-x="2003" 
d="M152 1518h438l411 -1037l412 1037h436v-1518h-327v1014l-408 -1014h-254l-405 1008v-1008h-303v1518z" />
    <glyph glyph-name="afii10031" unicode="&#x41d;" horiz-adv-x="1669" 
d="M152 1518h335v-582h695v582h336v-1518h-336v623h-695v-623h-335v1518z" />
    <glyph glyph-name="afii10032" unicode="&#x41e;" horiz-adv-x="1747" 
d="M872 -25q-181 0 -329 42t-253 136t-162.5 243t-57.5 364q0 213 57.5 362t162.5 243q105 93 253 135t329 42t329.5 -42t254.5 -135q106 -94 163.5 -243t57.5 -362q0 -215 -57.5 -364t-163.5 -243t-254.5 -136t-329.5 -42v0zM872 270q131 0 220 34t144 97q54 63 77.5 152.5
t23.5 200.5t-23.5 200.5t-77.5 151.5q-55 62 -144 95.5t-220 33.5t-219.5 -33.5t-142.5 -95.5q-55 -62 -78.5 -151.5t-23.5 -200.5t23.5 -200.5t78.5 -152.5q54 -63 142.5 -97t219.5 -34v0z" />
    <glyph glyph-name="afii10033" unicode="&#x41f;" horiz-adv-x="1663" 
d="M152 1518h1357v-1518h-335v1219h-691v-1219h-331v1518z" />
    <glyph glyph-name="afii10034" unicode="&#x420;" horiz-adv-x="1556" 
d="M152 1518h729q175 0 291.5 -35.5t186.5 -101.5t99 -160t29 -211q0 -78 -12 -148.5t-40 -131.5t-75 -109.5t-116 -83.5t-163 -53.5t-217 -18.5h-385v-465h-327v1518zM879 752q71 0 122.5 13t84.5 42q33 28 49 74t16 112q0 69 -15.5 114.5t-48.5 73.5q-33 27 -85.5 38.5
t-127.5 11.5h-395v-479h400z" />
    <glyph glyph-name="afii10035" unicode="&#x421;" horiz-adv-x="1554" 
d="M850 -23q-213 0 -361.5 51.5t-241.5 151.5t-135 246t-42 334q0 204 54.5 352t157.5 244q102 95 250.5 140.5t337.5 45.5q104 0 190 -14t159 -41q72 -28 132.5 -69t114.5 -95l-231 -231q-35 34 -73 60.5t-82 45.5q-45 18 -97.5 27.5t-114.5 9.5q-121 0 -208 -30.5
t-143 -90.5q-56 -61 -82.5 -150.5t-26.5 -207.5q0 -114 23 -203.5t77 -150.5q54 -62 142.5 -94t219.5 -32q74 0 130 11.5t101 32.5t82 49t72 61l222 -217q-45 -47 -100.5 -89.5t-129.5 -74.5q-74 -33 -171 -52.5t-226 -19.5v0z" />
    <glyph glyph-name="afii10036" unicode="&#x422;" horiz-adv-x="1446" 
d="M555 1214h-526v304h1388v-304h-524v-1214h-338v1214z" />
    <glyph glyph-name="afii10037" unicode="&#x423;" horiz-adv-x="1473" 
d="M453 -4q-21 0 -46 0.5t-49 0.5q-25 1 -46.5 1.5t-35.5 1.5v281h119q48 0 78 2.5t49 11.5t30.5 26t22.5 46l11 26l-563 1125h360l393 -805l354 805h340l-571 -1225q-40 -85 -77 -142t-85 -91q-49 -35 -116.5 -49.5t-167.5 -14.5v0z" />
    <glyph glyph-name="afii10038" unicode="&#x424;" horiz-adv-x="1923" 
d="M795 96q-166 13 -300 58t-228 126q-95 81 -146 200t-51 280q0 160 51 278.5t146 198.5q94 80 228 125t300 59v97h333v-97q165 -14 299 -59t229 -125q94 -81 145.5 -199t51.5 -278q0 -161 -51.5 -280t-145.5 -199q-95 -81 -229 -126t-299 -59v-96h-333v96zM408 754
q0 -69 19.5 -129t65.5 -106q45 -47 119 -78.5t183 -45.5v717q-109 -14 -183 -45.5t-119 -77.5q-46 -47 -65.5 -106.5t-19.5 -128.5v0zM1513 754q0 69 -20 128.5t-65 106.5q-45 46 -118.5 77.5t-181.5 45.5v-717q108 14 181.5 45.5t118.5 78.5q45 46 65 106t20 129v0z" />
    <glyph glyph-name="afii10039" unicode="&#x425;" horiz-adv-x="1599" 
d="M784 547l-360 -547h-371l557 797l-499 721h376l326 -467l307 467h371l-506 -715l561 -803h-381z" />
    <glyph glyph-name="afii10040" unicode="&#x426;" horiz-adv-x="1751" 
d="M1327 0h-1175v1518h335v-1233h691v1233h331v-1227h156v-631h-338v340z" />
    <glyph glyph-name="afii10041" unicode="&#x427;" horiz-adv-x="1602" 
d="M1114 514q-18 -19 -54.5 -38.5t-94.5 -34.5q-58 -16 -139 -25.5t-187 -9.5q-160 0 -262 37t-160 104q-59 66 -81.5 157.5t-22.5 200.5v613h333v-543q0 -62 11 -110.5t44 -81.5q33 -34 93.5 -52t159.5 -18q115 0 185.5 21.5t109.5 58.5t52 87.5t13 108.5v529h334v-1518
h-334v514z" />
    <glyph glyph-name="afii10042" unicode="&#x428;" horiz-adv-x="2478" 
d="M152 1536h335v-1251h584v1251h338v-1251h584v1251h331v-1536h-2172v1536z" />
    <glyph glyph-name="afii10043" unicode="&#x429;" horiz-adv-x="2564" 
d="M2142 0h-1990v1536h335v-1251h584v1251h338v-1251h584v1251h331v-1245h154v-631h-336v340z" />
    <glyph glyph-name="afii10044" unicode="&#x42a;" horiz-adv-x="1636" 
d="M231 1214h-151v304h479v-482h402q175 0 291.5 -35t186.5 -100t99 -158.5t29 -210.5q0 -78 -12 -147.5t-40 -128.5t-75 -106.5t-116 -80.5t-163 -51t-217 -18h-713v1214zM958 279q72 0 123.5 12.5t84.5 40.5q33 27 49 72.5t16 111.5q0 67 -15.5 112.5t-48.5 73.5
q-33 27 -85.5 38.5t-127.5 11.5h-395v-473h399z" />
    <glyph glyph-name="afii10045" unicode="&#x42b;" horiz-adv-x="2097" 
d="M152 1518h327v-482h402q175 0 291.5 -35t186.5 -100t99 -158.5t29 -210.5q0 -78 -12 -147.5t-40 -128.5t-75 -106.5t-116 -80.5t-163 -51t-217 -18h-712v1518zM879 279q71 0 122.5 12.5t84.5 40.5q33 27 49 72.5t16 111.5q0 67 -15.5 112.5t-48.5 73.5q-33 27 -85.5 38.5
t-127.5 11.5h-395v-473h400zM1610 1518h336v-1518h-336v1518z" />
    <glyph glyph-name="afii10046" unicode="&#x42c;" horiz-adv-x="1556" 
d="M152 1518h327v-482h402q175 0 291.5 -35t186.5 -100t99 -158.5t29 -210.5q0 -78 -12 -147.5t-40 -128.5t-75 -106.5t-116 -80.5t-163 -51t-217 -18h-712v1518zM879 279q71 0 122.5 12.5t84.5 40.5q33 27 49 72.5t16 111.5q0 67 -15.5 112.5t-48.5 73.5q-33 27 -85.5 38.5
t-127.5 11.5h-395v-473h400z" />
    <glyph glyph-name="afii10047" unicode="&#x42d;" horiz-adv-x="1550" 
d="M705 -23q-129 0 -226 19.5t-171 52.5q-74 32 -129.5 74.5t-100.5 89.5l221 217q35 -33 72.5 -61t84.5 -49t107.5 -32.5t141.5 -11.5q102 0 178.5 23t130.5 68q53 44 85 109.5t44 150.5h-750v291h744q-35 156 -146.5 236.5t-304.5 80.5q-62 0 -113.5 -9.5t-96.5 -27.5
q-45 -19 -83.5 -45.5t-73.5 -60.5l-231 231q107 109 256 164t361 55q180 0 323.5 -45.5t244.5 -140.5q100 -96 154 -244t54 -352q0 -188 -42 -334t-135 -246t-240.5 -151.5t-358.5 -51.5v0z" />
    <glyph glyph-name="afii10048" unicode="&#x42e;" horiz-adv-x="2398" 
d="M152 1518h335v-592h261q21 166 83.5 283.5t162.5 191.5q100 73 233.5 107t296.5 34q181 0 329.5 -42t254.5 -135q105 -94 163 -243t58 -362q0 -215 -58 -364t-163 -243q-106 -94 -254.5 -136t-329.5 -42q-167 0 -303.5 35.5t-236.5 113.5q-101 78 -162.5 202t-78.5 301
h-256v-627h-335v1518zM1524 270q130 0 219 34t144 97t78.5 152.5t23.5 200.5t-23.5 200.5t-78.5 151.5t-144 95.5t-219 33.5q-131 0 -219.5 -33.5t-143.5 -95.5t-78.5 -151.5t-23.5 -200.5t23.5 -200.5t78.5 -152.5t143.5 -97t219.5 -34v0z" />
    <glyph glyph-name="afii10049" unicode="&#x42f;" horiz-adv-x="1581" 
d="M424 541q-95 30 -157.5 79.5t-98.5 112.5q-37 63 -51.5 137t-14.5 152q0 109 25.5 200t92.5 157q66 66 181 102.5t295 36.5h731v-1518h-327v504h-340l-279 -504h-360zM1100 793v438h-391q-71 0 -122 -10t-83 -34q-33 -25 -48.5 -68t-15.5 -109q0 -65 16 -106.5t49 -66.5
q32 -25 82 -34.5t118 -9.5h395z" />
    <glyph glyph-name="afii10065" unicode="&#x430;" horiz-adv-x="1321" 
d="M487 -18q-134 0 -219 27.5t-133 75.5t-66 113.5t-18 141.5q0 123 44 201.5t136 124.5q91 45 231 62t333 17h47q-1 39 -8.5 69t-31.5 50q-24 19 -69.5 29t-120.5 10q-53 0 -102 -8.5t-92 -21.5q-44 -14 -80 -31t-62 -33l-159 235q31 21 83 46t121 46t151.5 35.5
t174.5 14.5q157 0 255 -26t154 -81q55 -56 75 -143.5t20 -210.5v-352q0 -35 2.5 -56t12.5 -32t30 -15t55 -4v-262q-17 -5 -49 -6.5t-86 -1.5q-46 0 -80 5t-59 18q-26 13 -45.5 35.5t-36.5 56.5q-45 -60 -143.5 -94.5t-264.5 -34.5v0zM551 240q76 0 131 13.5t91 43.5
q35 29 52 74.5t17 109.5v43h-27q-102 0 -176 -3t-125 -10t-82 -18.5t-48 -28.5q-17 -18 -22.5 -42t-5.5 -55q0 -32 9.5 -56t32.5 -40t60 -23.5t93 -7.5v0z" />
    <glyph glyph-name="afii10066" unicode="&#x431;" horiz-adv-x="1356" 
d="M680 -23q-152 0 -266 36t-190 114t-114 201.5t-38 298.5v180q0 226 38 376.5t121 240.5q82 90 210.5 127.5t310.5 37.5h209v-284h-193q-95 0 -165 -16.5t-116 -53.5q-46 -38 -69 -98t-23 -148q41 63 133.5 98t247.5 35q109 0 188.5 -21.5t136.5 -59.5q56 -39 91.5 -93
t56.5 -118q20 -65 27.5 -138t7.5 -151q0 -126 -32.5 -230t-104.5 -178t-187 -115t-280 -41v0zM680 252q78 0 132 21t87 60q33 38 47.5 93t14.5 123q0 69 -14.5 123t-47.5 91q-33 36 -87 55.5t-132 19.5q-80 0 -134.5 -19.5t-87.5 -55.5q-34 -37 -48.5 -91t-14.5 -123
q0 -68 14.5 -123t48.5 -93q33 -39 87.5 -60t134.5 -21v0z" />
    <glyph glyph-name="afii10067" unicode="&#x432;" horiz-adv-x="1333" 
d="M127 1159h594q124 0 216.5 -13.5t153.5 -45.5q61 -33 91 -88t30 -138q0 -103 -36 -172.5t-117 -97.5q51 -12 86.5 -35t57.5 -57q21 -35 30.5 -83t9.5 -110q0 -98 -32.5 -160t-98.5 -97t-164.5 -48.5t-230.5 -13.5h-590v1159zM750 242q48 0 82.5 5t56.5 18q21 13 31 35.5
t10 57.5q0 33 -10 55t-32 35q-22 12 -56.5 17.5t-83.5 5.5h-318v-229h320zM729 700q51 0 84.5 6.5t53.5 19.5q19 13 26.5 33t7.5 48q0 29 -8.5 48.5t-28.5 31.5q-20 11 -53 15.5t-82 4.5h-299v-207h299z" />
    <glyph glyph-name="afii10068" unicode="&#x433;" horiz-adv-x="1110" 
d="M127 1159h938v-274h-616v-885h-322v1159z" />
    <glyph glyph-name="afii10069" unicode="&#x434;" horiz-adv-x="1587" 
d="M84 268h39q36 0 58 5.5t35 19.5q12 14 16 37.5t4 58.5v770h1116v-891h151v-608h-299v340h-819v-340h-301v608zM1036 252v639h-479v-524q0 -47 -7 -72.5t-26 -42.5h512z" />
    <glyph glyph-name="afii10070" unicode="&#x435;" horiz-adv-x="1268" 
d="M676 -23q-125 0 -219 22t-161 62q-67 39 -110.5 94.5t-68.5 123.5q-25 67 -35 143.5t-10 159.5q0 81 10 157t36 143q25 67 69 123t111 96q66 40 159 62.5t217 22.5q127 0 216 -27t147 -75q58 -49 90 -116.5t47 -147.5q15 -81 16.5 -172.5t-0.5 -188.5h-807
q7 -53 24.5 -94t51.5 -69q33 -28 86 -43t131 -15q67 0 120 7.5t97 21.5q43 14 79 33.5t68 43.5l162 -209q-56 -42 -113 -72t-120 -49t-135 -28t-158 -9v0zM664 918q-75 0 -126 -16t-83 -46q-33 -30 -49.5 -72.5t-22.5 -95.5h514q-3 50 -12 92t-33 73q-25 31 -69.5 48
t-118.5 17v0z" />
    <glyph glyph-name="afii10072" unicode="&#x436;" horiz-adv-x="1923" 
d="M1217 479h-105v-479h-301v479h-104l-320 -479h-373l445 631l-410 528h367l297 -405h98v405h301v-405h98l297 405h367l-412 -530l447 -629h-373z" />
    <glyph glyph-name="afii10073" unicode="&#x437;" horiz-adv-x="1245" 
d="M598 -25q-173 0 -320.5 31t-252.5 96l137 232q90 -50 188.5 -75.5t204.5 -25.5q78 0 130.5 3.5t84.5 16.5q31 13 44 39t13 70q0 38 -11 61t-42 36q-32 12 -88.5 16t-146.5 4h-263v248h259q76 0 125.5 2t79.5 12q29 10 41 30.5t12 57.5q0 33 -13 52.5t-41 29.5
q-29 10 -76 12.5t-114 2.5q-45 0 -93.5 -6t-94.5 -16t-87 -24t-69 -30l-154 223q45 27 111 48t141 36q75 14 153 21.5t148 7.5q124 0 220.5 -14t162.5 -47t100.5 -87t34.5 -135q0 -62 -9.5 -106t-27.5 -75q-19 -32 -47.5 -52.5t-66.5 -34.5q48 -12 82 -34t57 -57
q22 -35 32.5 -86.5t10.5 -123.5q0 -108 -40 -178t-112 -110q-73 -40 -175.5 -55.5t-227.5 -15.5v0z" />
    <glyph glyph-name="afii10074" unicode="&#x438;" horiz-adv-x="1380" 
d="M127 1159h313v-651l469 651h344v-1159h-313v723l-522 -723h-291v1159z" />
    <glyph glyph-name="afii10075" unicode="&#x439;" horiz-adv-x="1380" 
d="M127 1159h313v-651l469 651h344v-1159h-313v723l-522 -723h-291v1159zM688 1239q-114 0 -190 29t-126 82q-50 52 -78 126t-46 164l231 43q12 -52 26.5 -89.5t37.5 -61.5t58 -35.5t87 -11.5t87 11.5t58 35.5t37.5 61.5t26.5 89.5l233 -41q-19 -91 -48 -165.5t-79 -126.5
q-50 -53 -126 -82t-189 -29v0z" />
    <glyph glyph-name="afii10076" unicode="&#x43a;" horiz-adv-x="1255" 
d="M444 754h101l295 405h368l-411 -530l446 -629h-375l-319 479h-105v-479h-317v1159h317v-405z" />
    <glyph glyph-name="afii10077" unicode="&#x43b;" horiz-adv-x="1483" 
d="M84 268h39q36 0 59 5.5t37 19.5q13 14 18 37.5t5 58.5v770h1114v-1159h-320v891h-479v-541q0 -103 -20 -171t-60 -108q-40 -41 -99.5 -58t-137.5 -17q-22 0 -46 0.5t-45 1.5q-22 2 -39.5 3t-25.5 3v264z" />
    <glyph glyph-name="afii10078" unicode="&#x43c;" horiz-adv-x="1683" 
d="M127 1159h405l316 -756l315 756h402v-1159h-320v692l-278 -692h-262l-277 694v-694h-301v1159z" />
    <glyph glyph-name="afii10079" unicode="&#x43d;" horiz-adv-x="1374" 
d="M127 1159h322v-416h477v416h321v-1159h-321v455h-477v-455h-322v1159z" />
    <glyph glyph-name="afii10080" unicode="&#x43e;" horiz-adv-x="1354" 
d="M678 -23q-164 0 -279 40t-187 117q-73 77 -106.5 189.5t-33.5 258.5t33.5 258.5t106.5 189.5q72 77 187 116.5t279 39.5q163 0 278 -39.5t188 -116.5q72 -77 105 -189.5t33 -258.5t-33 -258.5t-105 -189.5q-73 -77 -188 -117t-278 -40v0zM678 252q83 0 137.5 22.5
t87.5 64.5q32 42 45 101t13 133t-13 133t-45 101q-33 41 -87.5 63.5t-137.5 22.5q-84 0 -138.5 -22.5t-86.5 -63.5q-32 -42 -45 -101t-13 -133t13 -133t45 -101t86.5 -64.5t138.5 -22.5v0z" />
    <glyph glyph-name="afii10081" unicode="&#x43f;" horiz-adv-x="1370" 
d="M127 1159h1116v-1159h-321v891h-478v-891h-317v1159z" />
    <glyph glyph-name="afii10082" unicode="&#x440;" horiz-adv-x="1395" 
d="M127 1141l250 18l26 -102q23 27 58 51t86 41q50 17 119 27t161 10q149 0 245.5 -47.5t152.5 -129.5q55 -82 76.5 -192t21.5 -235t-22.5 -234.5t-80.5 -190.5t-157.5 -128t-253.5 -47q-78 0 -137 7.5t-101 21.5q-43 14 -72.5 34t-49.5 45v-428h-322v1479zM745 254
q78 0 127 23.5t77 65.5q27 41 37.5 99t10.5 127q0 70 -9.5 129.5t-36.5 102.5q-28 43 -77.5 67.5t-128.5 24.5q-83 0 -139.5 -19t-91.5 -59t-50 -101t-15 -145q0 -83 13.5 -142.5t47.5 -97.5q33 -39 90.5 -57t144.5 -18v0z" />
    <glyph glyph-name="afii10083" unicode="&#x441;" horiz-adv-x="1202" 
d="M666 -18q-180 0 -295.5 46t-181.5 127q-66 80 -91.5 189.5t-25.5 237.5q0 84 10.5 161.5t36.5 144.5q25 67 69.5 122t112.5 94q67 39 160.5 60.5t218.5 21.5q158 0 274 -49.5t197 -139.5l-225 -213q-18 19 -40.5 38.5t-51.5 34.5q-30 15 -67.5 24.5t-86.5 9.5
q-86 0 -141 -22.5t-87 -63.5q-32 -42 -44.5 -101t-12.5 -131t11.5 -131t43.5 -101q32 -43 87.5 -66t144.5 -23q41 0 75.5 6.5t65.5 20.5t60.5 35.5t60.5 50.5l205 -197q-51 -47 -100 -82t-105 -58t-123.5 -34.5t-154.5 -11.5v0z" />
    <glyph glyph-name="afii10084" unicode="&#x442;" horiz-adv-x="1219" 
d="M449 885h-402v274h1124v-274h-401v-885h-321v885z" />
    <glyph glyph-name="afii10085" unicode="&#x443;" horiz-adv-x="1196" 
d="M274 -348q-9 0 -23 0.5t-30 0.5q-16 1 -32 1.5t-29 1.5v242h86q48 0 79.5 4t51.5 13q20 10 30.5 26.5t18.5 42.5l14 43l-442 1132h346l268 -737l260 737h326l-465 -1210q-30 -81 -66 -137.5t-88 -92.5q-52 -35 -126 -51t-179 -16v0z" />
    <glyph glyph-name="afii10086" unicode="&#x444;" horiz-adv-x="2198" 
d="M946 92q-54 -56 -142.5 -84t-228.5 -28q-150 0 -247 47.5t-154 130.5q-57 82 -79.5 192.5t-22.5 235.5q0 124 23 233.5t82 191.5q58 81 157.5 128t251.5 47q79 0 138.5 -8.5t102.5 -22.5q43 -15 72 -35t47 -43v512h303v-514q48 56 140 83.5t241 27.5t245.5 -47.5
t152.5 -129.5q55 -82 76.5 -192t21.5 -235q0 -83 -9.5 -160t-32.5 -144t-61.5 -121.5t-95.5 -93.5t-135 -60t-180 -21q-78 0 -137 7.5t-102 21.5t-72.5 34t-49.5 45v-428h-305v430zM651 254q83 0 139.5 20.5t91.5 61.5q34 41 49 103.5t15 146.5q0 82 -13 141t-46 97
q-34 37 -91 55t-145 18q-79 0 -128.5 -22.5t-77.5 -63.5q-28 -42 -38 -99t-10 -126q0 -70 10 -130.5t38 -105.5t77.5 -70.5t128.5 -25.5v0zM1548 254q78 0 127 23.5t77 65.5q27 41 37.5 99t10.5 127q0 70 -9.5 129.5t-36.5 102.5q-28 43 -77.5 67.5t-128.5 24.5
q-83 0 -139.5 -19t-91.5 -59t-50.5 -101t-15.5 -145q0 -83 13.5 -142.5t47.5 -97.5q34 -39 91.5 -57t144.5 -18v0z" />
    <glyph glyph-name="afii10087" unicode="&#x445;" horiz-adv-x="1227" 
d="M596 373l-248 -373h-338l424 606l-385 553h359l223 -321l211 321h338l-385 -555l422 -604h-361z" />
    <glyph glyph-name="afii10088" unicode="&#x446;" horiz-adv-x="1479" 
d="M1094 0h-967v1159h322v-899h477v899h317v-891h152v-608h-301v340z" />
    <glyph glyph-name="afii10089" unicode="&#x447;" horiz-adv-x="1343" 
d="M897 383q-18 -23 -49 -45t-78 -39q-47 -18 -110.5 -28.5t-145.5 -10.5q-131 0 -212.5 35t-127.5 99q-47 63 -63.5 152t-16.5 197v416h322v-352q0 -53 6 -97.5t28 -76.5q22 -33 65 -51.5t116 -18.5q84 0 135.5 19t80.5 53q28 34 38 81.5t10 104.5v338h322v-1159h-320v383z
" />
    <glyph glyph-name="afii10090" unicode="&#x448;" horiz-adv-x="2105" 
d="M127 1159h322v-899h446v899h322v-899h444v899h315v-1159h-1849v1159z" />
    <glyph glyph-name="afii10091" unicode="&#x449;" horiz-adv-x="2214" 
d="M1829 0h-1702v1159h322v-899h446v899h322v-899h444v899h315v-891h154v-608h-301v340z" />
    <glyph glyph-name="afii10092" unicode="&#x44a;" horiz-adv-x="1430" 
d="M236 885h-152v274h471v-282h326q134 0 224 -32t144 -89t76.5 -135t22.5 -170t-22.5 -173.5t-77.5 -143.5t-148 -98t-234 -36h-630v885zM815 248q109 0 158 44.5t49 145.5q0 52 -11.5 88.5t-35.5 58.5q-25 22 -64.5 32t-95.5 10h-260v-379h260z" />
    <glyph glyph-name="afii10093" unicode="&#x44b;" horiz-adv-x="1774" 
d="M127 1159h317v-282h328q134 0 224 -32t144 -89t76.5 -135t22.5 -170t-22 -173.5t-77 -143.5t-148 -98t-234 -36h-631v1159zM707 248q109 0 157.5 44.5t48.5 145.5q0 52 -11.5 88.5t-36.5 58.5t-64.5 32t-95.5 10h-261v-379h263zM1325 1159h322v-1159h-322v1159z" />
    <glyph glyph-name="afii10094" unicode="&#x44c;" horiz-adv-x="1321" 
d="M127 1159h317v-282h328q134 0 224 -32t144 -89t76.5 -135t22.5 -170t-22 -173.5t-77 -143.5t-148 -98t-234 -36h-631v1159zM707 248q109 0 157.5 44.5t48.5 145.5q0 52 -11.5 88.5t-36.5 58.5t-64.5 32t-95.5 10h-261v-379h263z" />
    <glyph glyph-name="afii10095" unicode="&#x44d;" horiz-adv-x="1202" 
d="M537 -18q-88 0 -156 11.5t-125 34.5t-106.5 58t-100.5 82l199 190q61 -58 126.5 -82t149.5 -24q69 0 118.5 11.5t82.5 36.5q33 24 52 62t28 91h-502v243h502q-9 54 -29 93.5t-53 66.5q-34 26 -83 38.5t-118 12.5q-47 0 -85.5 -11.5t-68.5 -28.5q-31 -18 -55.5 -39.5
t-42.5 -41.5l-217 211q79 90 196 139.5t279 49.5q123 0 216 -21t160 -60t110.5 -93.5t69.5 -121.5q25 -67 35.5 -145t10.5 -163q0 -86 -10.5 -164t-36.5 -144q-26 -67 -69.5 -121t-109.5 -92t-156.5 -58.5t-210.5 -20.5v0z" />
    <glyph glyph-name="afii10096" unicode="&#x44e;" horiz-adv-x="1853" 
d="M127 1159h322v-424h145q15 110 55 194t110 141t173 86.5t244 29.5q163 0 278.5 -39.5t188.5 -115.5q72 -77 105.5 -189.5t33.5 -259.5t-33.5 -260t-105.5 -189q-73 -77 -188.5 -116.5t-278.5 -39.5q-146 0 -251.5 31.5t-175.5 93.5q-70 61 -107.5 151t-49.5 208h-143
v-461h-322v1159zM1176 252q84 0 138.5 22t86.5 64q32 41 44.5 100.5t12.5 134.5t-12.5 134.5t-44.5 101.5q-32 41 -86.5 62.5t-138.5 21.5q-83 0 -137.5 -21.5t-86.5 -62.5q-32 -42 -44.5 -101.5t-12.5 -134.5t12.5 -134.5t44.5 -100.5q32 -42 86.5 -64t137.5 -22v0z" />
    <glyph glyph-name="afii10097" unicode="&#x44f;" horiz-adv-x="1366" 
d="M322 377q-117 46 -170.5 140t-53.5 233q0 101 28 177.5t88 128.5q59 51 151.5 77t220.5 26h653v-1159h-319v334h-279l-184 -334h-344zM920 592v301h-318q-45 0 -78 -7t-54 -24q-22 -18 -33 -47t-11 -74q0 -44 10.5 -73t32.5 -46q21 -17 53.5 -23.5t75.5 -6.5h322z" />
    <glyph glyph-name="afii10071" unicode="&#x451;" horiz-adv-x="1268" 
d="M256 1559h291v-279h-291v279zM721 1559h289v-279h-289v279zM676 -23q-125 0 -219 22t-161 62q-67 39 -110.5 94.5t-68.5 123.5q-25 67 -35 143.5t-10 159.5q0 81 10 157t36 143q25 67 69 123t111 96q66 40 159 62.5t217 22.5q127 0 216 -27t147 -75q58 -49 90 -116.5
t47 -147.5q15 -81 16.5 -172.5t-0.5 -188.5h-807q7 -53 24.5 -94t51.5 -69q33 -28 86 -43t131 -15q67 0 120 7.5t97 21.5q43 14 79 33.5t68 43.5l162 -209q-56 -42 -113 -72t-120 -49t-135 -28t-158 -9v0zM664 918q-75 0 -126 -16t-83 -46q-33 -30 -49.5 -72.5t-22.5 -95.5
h514q-3 50 -12 92t-33 73q-25 31 -69.5 48t-118.5 17v0z" />
    <glyph glyph-name="afii10099" unicode="&#x452;" horiz-adv-x="1366" 
d="M-4 1473h137v116h320v-116h241v-275h-241v-164q18 19 48 38t76 34q45 15 107.5 24t144.5 9q131 0 212.5 -35t126.5 -98q45 -64 61 -153.5t16 -197.5v-678q0 -94 -21 -156.5t-68 -99.5t-121.5 -52t-182.5 -15h-61v244h26q33 0 53.5 5.5t32.5 18.5q11 14 15.5 36.5
t5.5 57.5v576q0 53 -5.5 98t-26.5 78q-22 33 -64 51.5t-115 18.5q-84 0 -135 -19t-79 -53q-28 -35 -37 -83t-9 -105v-578h-320v1198h-137v275z" />
    <glyph glyph-name="afii10100" unicode="&#x453;" horiz-adv-x="1110" 
d="M635 1645h387l-391 -375h-285zM127 1159h938v-274h-616v-885h-322v1159z" />
    <glyph glyph-name="afii10101" unicode="&#x454;" horiz-adv-x="1202" 
d="M666 -18q-180 0 -295.5 45.5t-181.5 125.5t-91.5 190t-25.5 239q0 85 10.5 163t36.5 145q25 67 69.5 121.5t112.5 93.5q67 39 160.5 60t218.5 21q158 0 275.5 -49.5t195.5 -139.5l-219 -211q-18 20 -41 41.5t-53 39.5q-31 17 -70 28.5t-88 11.5q-69 0 -118.5 -12.5
t-83.5 -38.5q-34 -27 -53 -66.5t-28 -93.5h502v-243h-502q9 -53 28 -91t53 -62q33 -25 83 -36.5t121 -11.5q41 0 76.5 5.5t67.5 18.5t62.5 33t61.5 49l199 -190q-51 -47 -100 -82t-105 -58t-123.5 -34.5t-154.5 -11.5v0z" />
    <glyph glyph-name="afii10102" unicode="&#x455;" horiz-adv-x="1174" 
d="M573 -18q-74 0 -148 8t-144 26q-71 17 -137 44.5t-124 66.5l164 235q45 -29 96.5 -51.5t104.5 -37.5t106.5 -23t102.5 -8q61 0 101 3.5t64 14.5q24 10 34 29t10 49q0 25 -10 41.5t-33 27.5q-24 11 -63.5 18t-98.5 15q-72 10 -137.5 21t-121.5 29q-56 17 -101.5 42.5
t-77.5 65.5q-33 39 -50.5 94t-17.5 131q0 88 27.5 156t88.5 114q60 46 156 69.5t234 23.5q70 0 138 -7t131 -20q62 -14 118 -34t102 -46l-153 -250q-31 16 -69 30t-80 24q-43 10 -88 16t-89 6q-62 0 -100 -5.5t-59 -15.5q-22 -11 -29.5 -26.5t-7.5 -36.5q0 -24 8.5 -40
t30.5 -27t58.5 -18.5t92.5 -14.5q111 -15 205 -33.5t163 -55.5q68 -38 107 -103t39 -173q0 -100 -28.5 -171t-92.5 -116q-65 -45 -168.5 -66t-253.5 -21v0z" />
    <glyph glyph-name="afii10103" unicode="&#x456;" horiz-adv-x="600" 
d="M139 1159h320v-1159h-320v1159zM137 1559h324v-293h-324v293z" />
    <glyph glyph-name="afii10104" unicode="&#x457;" horiz-adv-x="600" 
d="M-33 1559h258v-279h-258v279zM375 1559h258v-279h-258v279zM139 1159h320v-1159h-320v1159z" />
    <glyph glyph-name="afii10105" unicode="&#x458;" horiz-adv-x="600" 
d="M6 -102h25q37 0 58.5 6.5t32.5 22.5q11 17 14 46t3 74v1112h320v-1110q0 -117 -17.5 -193.5t-61.5 -121.5t-120.5 -62.5t-193.5 -17.5h-60v244zM137 1559h324v-293h-324v293z" />
    <glyph glyph-name="afii10106" unicode="&#x459;" horiz-adv-x="2218" 
d="M84 268h39q36 0 59 5.5t37 19.5q13 14 18 37.5t5 58.5v770h1101v-282h326q135 0 224.5 -32t143.5 -89t76.5 -135t22.5 -170t-22 -173.5t-77 -143.5t-148 -98t-234 -36h-623v891h-475v-541q0 -103 -20 -171t-60 -108q-40 -41 -99.5 -58t-137.5 -17q-22 0 -46 0.5t-45 1.5
q-22 2 -39.5 3t-25.5 3v264zM1604 248q108 0 157 44t49 146q0 52 -11.5 88.5t-36.5 58.5t-64.5 32t-95.5 10h-259v-379h261z" />
    <glyph glyph-name="afii10107" unicode="&#x45a;" horiz-adv-x="2109" 
d="M127 1159h322v-416h475v416h311v-282h326q133 0 222.5 -32t143.5 -89q53 -57 75.5 -135t22.5 -170t-22 -173.5t-76 -143.5q-55 -62 -147.5 -98t-233.5 -36h-622v455h-475v-455h-322v1159zM1495 248q108 0 156.5 44t48.5 146q0 52 -11.5 88.5t-35.5 58.5q-25 22 -64.5 32
t-95.5 10h-258v-379h260z" />
    <glyph glyph-name="afii10108" unicode="&#x45b;" horiz-adv-x="1366" 
d="M-4 1473h137v116h320v-116h241v-275h-241v-164q18 19 48 38t76 34q45 15 107.5 24t144.5 9q131 0 212.5 -35t126.5 -98q45 -64 61 -153.5t16 -197.5v-655h-321v592q0 53 -5.5 98t-26.5 78q-22 33 -64 51.5t-115 18.5q-84 0 -135 -19t-79 -53q-28 -35 -37 -83t-9 -105
v-578h-320v1198h-137v275z" />
    <glyph glyph-name="afii10109" unicode="&#x45c;" horiz-adv-x="1257" 
d="M444 754h101l295 405h368l-411 -530l446 -629h-375l-319 479h-105v-479h-317v1159h317v-405zM737 1645h387l-391 -375h-284z" />
    <glyph glyph-name="afii10110" unicode="&#x45e;" horiz-adv-x="1196" 
d="M274 -348q-9 0 -23 0.5t-30 0.5q-16 1 -32 1.5t-29 1.5v242h86q48 0 79.5 4t51.5 13q20 10 30.5 26.5t18.5 42.5l14 43l-442 1132h346l268 -737l260 737h326l-465 -1210q-30 -81 -66 -137.5t-88 -92.5q-52 -35 -126 -51t-179 -16v0zM600 1239q-114 0 -190 29t-126 82
q-50 52 -78 126t-46 164l231 43q12 -52 26.5 -89.5t37.5 -61.5t58 -35.5t87 -11.5t87 11.5t58 35.5t37.5 61.5t26.5 89.5l233 -41q-19 -91 -48 -165.5t-79 -126.5q-50 -53 -126 -82t-189 -29v0z" />
    <glyph glyph-name="afii10193" unicode="&#x45f;" horiz-adv-x="1370" 
d="M535 0h-408v1159h322v-899h477v899h317v-1159h-407v-340h-301v340z" />
    <glyph glyph-name="afii10050" unicode="&#x490;" horiz-adv-x="1266" 
d="M152 1518h747v340h336v-644h-748v-1214h-335v1518z" />
    <glyph glyph-name="afii10098" unicode="&#x491;" horiz-adv-x="1110" 
d="M127 1159h637v342h301v-616h-616v-885h-322v1159z" />
    <glyph glyph-name="Wgrave" unicode="&#x1e80;" horiz-adv-x="2216" 
 />
    <glyph glyph-name="wgrave" unicode="&#x1e81;" horiz-adv-x="1884" 
 />
    <glyph glyph-name="Wacute" unicode="&#x1e82;" horiz-adv-x="2216" 
 />
    <glyph glyph-name="wacute" unicode="&#x1e83;" horiz-adv-x="1884" 
 />
    <glyph glyph-name="Wdieresis" unicode="&#x1e84;" horiz-adv-x="2216" 
 />
    <glyph glyph-name="wdieresis" unicode="&#x1e85;" horiz-adv-x="1884" 
 />
    <glyph glyph-name="uni1EA0" unicode="&#x1ea0;" horiz-adv-x="1616" 
 />
    <glyph glyph-name="uni1EA1" unicode="&#x1ea1;" horiz-adv-x="1321" 
 />
    <glyph glyph-name="uni1EA2" unicode="&#x1ea2;" horiz-adv-x="1616" 
 />
    <glyph glyph-name="uni1EA3" unicode="&#x1ea3;" horiz-adv-x="1321" 
 />
    <glyph glyph-name="uni1EA4" unicode="&#x1ea4;" horiz-adv-x="1616" 
 />
    <glyph glyph-name="uni1EA5" unicode="&#x1ea5;" horiz-adv-x="1321" 
 />
    <glyph glyph-name="uni1EA6" unicode="&#x1ea6;" horiz-adv-x="1616" 
 />
    <glyph glyph-name="uni1EA7" unicode="&#x1ea7;" horiz-adv-x="1321" 
 />
    <glyph glyph-name="uni1EA8" unicode="&#x1ea8;" horiz-adv-x="1616" 
 />
    <glyph glyph-name="uni1EA9" unicode="&#x1ea9;" horiz-adv-x="1321" 
 />
    <glyph glyph-name="uni1EAA" unicode="&#x1eaa;" horiz-adv-x="1616" 
 />
    <glyph glyph-name="uni1EAB" unicode="&#x1eab;" horiz-adv-x="1321" 
 />
    <glyph glyph-name="uni1EAC" unicode="&#x1eac;" horiz-adv-x="1616" 
 />
    <glyph glyph-name="uni1EAD" unicode="&#x1ead;" horiz-adv-x="1321" 
 />
    <glyph glyph-name="uni1EAE" unicode="&#x1eae;" horiz-adv-x="1616" 
 />
    <glyph glyph-name="uni1EAF" unicode="&#x1eaf;" horiz-adv-x="1321" 
 />
    <glyph glyph-name="uni1EB0" unicode="&#x1eb0;" horiz-adv-x="1616" 
 />
    <glyph glyph-name="uni1EB1" unicode="&#x1eb1;" horiz-adv-x="1321" 
 />
    <glyph glyph-name="uni1EB2" unicode="&#x1eb2;" horiz-adv-x="1616" 
 />
    <glyph glyph-name="uni1EB3" unicode="&#x1eb3;" horiz-adv-x="1321" 
 />
    <glyph glyph-name="uni1EB4" unicode="&#x1eb4;" horiz-adv-x="1616" 
 />
    <glyph glyph-name="uni1EB5" unicode="&#x1eb5;" horiz-adv-x="1321" 
 />
    <glyph glyph-name="uni1EB6" unicode="&#x1eb6;" horiz-adv-x="1616" 
 />
    <glyph glyph-name="uni1EB7" unicode="&#x1eb7;" horiz-adv-x="1321" 
 />
    <glyph glyph-name="uni1EB8" unicode="&#x1eb8;" horiz-adv-x="1407" 
 />
    <glyph glyph-name="uni1EB9" unicode="&#x1eb9;" horiz-adv-x="1268" 
 />
    <glyph glyph-name="uni1EBA" unicode="&#x1eba;" horiz-adv-x="1407" 
 />
    <glyph glyph-name="uni1EBB" unicode="&#x1ebb;" horiz-adv-x="1268" 
 />
    <glyph glyph-name="uni1EBC" unicode="&#x1ebc;" horiz-adv-x="1407" 
 />
    <glyph glyph-name="uni1EBD" unicode="&#x1ebd;" horiz-adv-x="1268" 
 />
    <glyph glyph-name="uni1EBE" unicode="&#x1ebe;" horiz-adv-x="1407" 
 />
    <glyph glyph-name="uni1EBF" unicode="&#x1ebf;" horiz-adv-x="1268" 
 />
    <glyph glyph-name="uni1EC0" unicode="&#x1ec0;" horiz-adv-x="1407" 
 />
    <glyph glyph-name="uni1EC1" unicode="&#x1ec1;" horiz-adv-x="1268" 
 />
    <glyph glyph-name="uni1EC2" unicode="&#x1ec2;" horiz-adv-x="1407" 
 />
    <glyph glyph-name="uni1EC3" unicode="&#x1ec3;" horiz-adv-x="1268" 
 />
    <glyph glyph-name="uni1EC4" unicode="&#x1ec4;" horiz-adv-x="1407" 
 />
    <glyph glyph-name="uni1EC5" unicode="&#x1ec5;" horiz-adv-x="1268" 
 />
    <glyph glyph-name="uni1EC6" unicode="&#x1ec6;" horiz-adv-x="1407" 
 />
    <glyph glyph-name="uni1EC7" unicode="&#x1ec7;" horiz-adv-x="1268" 
 />
    <glyph glyph-name="uni1EC8" unicode="&#x1ec8;" horiz-adv-x="682" 
 />
    <glyph glyph-name="uni1EC9" unicode="&#x1ec9;" horiz-adv-x="600" 
 />
    <glyph glyph-name="uni1ECA" unicode="&#x1eca;" horiz-adv-x="682" 
 />
    <glyph glyph-name="uni1ECB" unicode="&#x1ecb;" horiz-adv-x="600" 
 />
    <glyph glyph-name="uni1ECC" unicode="&#x1ecc;" horiz-adv-x="1747" 
 />
    <glyph glyph-name="uni1ECD" unicode="&#x1ecd;" horiz-adv-x="1354" 
 />
    <glyph glyph-name="uni1ECE" unicode="&#x1ece;" horiz-adv-x="1747" 
 />
    <glyph glyph-name="uni1ECF" unicode="&#x1ecf;" horiz-adv-x="1354" 
 />
    <glyph glyph-name="uni1ED0" unicode="&#x1ed0;" horiz-adv-x="1747" 
 />
    <glyph glyph-name="uni1ED1" unicode="&#x1ed1;" horiz-adv-x="1354" 
 />
    <glyph glyph-name="uni1ED2" unicode="&#x1ed2;" horiz-adv-x="1747" 
 />
    <glyph glyph-name="uni1ED3" unicode="&#x1ed3;" horiz-adv-x="1354" 
 />
    <glyph glyph-name="uni1ED4" unicode="&#x1ed4;" horiz-adv-x="1747" 
 />
    <glyph glyph-name="uni1ED5" unicode="&#x1ed5;" horiz-adv-x="1354" 
 />
    <glyph glyph-name="uni1ED6" unicode="&#x1ed6;" horiz-adv-x="1747" 
 />
    <glyph glyph-name="uni1ED7" unicode="&#x1ed7;" horiz-adv-x="1354" 
 />
    <glyph glyph-name="uni1ED8" unicode="&#x1ed8;" horiz-adv-x="1747" 
 />
    <glyph glyph-name="uni1ED9" unicode="&#x1ed9;" horiz-adv-x="1354" 
 />
    <glyph glyph-name="uni1EDA" unicode="&#x1eda;" horiz-adv-x="1747" 
 />
    <glyph glyph-name="uni1EDB" unicode="&#x1edb;" horiz-adv-x="1386" 
 />
    <glyph glyph-name="uni1EDC" unicode="&#x1edc;" horiz-adv-x="1747" 
 />
    <glyph glyph-name="uni1EDD" unicode="&#x1edd;" horiz-adv-x="1386" 
 />
    <glyph glyph-name="uni1EDE" unicode="&#x1ede;" horiz-adv-x="1747" 
 />
    <glyph glyph-name="uni1EDF" unicode="&#x1edf;" horiz-adv-x="1386" 
 />
    <glyph glyph-name="uni1EE0" unicode="&#x1ee0;" horiz-adv-x="1747" 
 />
    <glyph glyph-name="uni1EE1" unicode="&#x1ee1;" horiz-adv-x="1386" 
 />
    <glyph glyph-name="uni1EE2" unicode="&#x1ee2;" horiz-adv-x="1747" 
 />
    <glyph glyph-name="uni1EE3" unicode="&#x1ee3;" horiz-adv-x="1386" 
 />
    <glyph glyph-name="uni1EE4" unicode="&#x1ee4;" horiz-adv-x="1671" 
 />
    <glyph glyph-name="uni1EE5" unicode="&#x1ee5;" horiz-adv-x="1343" 
 />
    <glyph glyph-name="uni1EE6" unicode="&#x1ee6;" horiz-adv-x="1671" 
 />
    <glyph glyph-name="uni1EE7" unicode="&#x1ee7;" horiz-adv-x="1343" 
 />
    <glyph glyph-name="uni1EE8" unicode="&#x1ee8;" horiz-adv-x="1733" 
 />
    <glyph glyph-name="uni1EE9" unicode="&#x1ee9;" horiz-adv-x="1489" 
 />
    <glyph glyph-name="uni1EEA" unicode="&#x1eea;" horiz-adv-x="1733" 
 />
    <glyph glyph-name="uni1EEB" unicode="&#x1eeb;" horiz-adv-x="1489" 
 />
    <glyph glyph-name="uni1EEC" unicode="&#x1eec;" horiz-adv-x="1733" 
 />
    <glyph glyph-name="uni1EED" unicode="&#x1eed;" horiz-adv-x="1489" 
 />
    <glyph glyph-name="uni1EEE" unicode="&#x1eee;" horiz-adv-x="1733" 
 />
    <glyph glyph-name="uni1EEF" unicode="&#x1eef;" horiz-adv-x="1489" 
 />
    <glyph glyph-name="uni1EF0" unicode="&#x1ef0;" horiz-adv-x="1733" 
 />
    <glyph glyph-name="uni1EF1" unicode="&#x1ef1;" horiz-adv-x="1489" 
 />
    <glyph glyph-name="Ygrave" unicode="&#x1ef2;" horiz-adv-x="1556" 
 />
    <glyph glyph-name="ygrave" unicode="&#x1ef3;" horiz-adv-x="1196" 
 />
    <glyph glyph-name="uni1EF4" unicode="&#x1ef4;" horiz-adv-x="1556" 
 />
    <glyph glyph-name="uni1EF5" unicode="&#x1ef5;" horiz-adv-x="1196" 
 />
    <glyph glyph-name="uni1EF6" unicode="&#x1ef6;" horiz-adv-x="1556" 
 />
    <glyph glyph-name="uni1EF7" unicode="&#x1ef7;" horiz-adv-x="1196" 
 />
    <glyph glyph-name="uni1EF8" unicode="&#x1ef8;" horiz-adv-x="1556" 
 />
    <glyph glyph-name="uni1EF9" unicode="&#x1ef9;" horiz-adv-x="1196" 
 />
    <glyph glyph-name="endash" unicode="&#x2013;" horiz-adv-x="1530" 
d="M78 815h1374v-287h-1374v287z" />
    <glyph glyph-name="emdash" unicode="&#x2014;" horiz-adv-x="1970" 
d="M78 815h1814v-287h-1814v287z" />
    <glyph glyph-name="quoteright" unicode="&#x2019;" horiz-adv-x="600" 
d="M123 963q53 24 85.5 43.5t50.5 39.5t24 43.5t6 57.5h-176v371h372v-263q0 -97 -9 -164t-39 -117t-86 -89.5t-150 -79.5z" />
    <glyph glyph-name="quotesinglbase" unicode="&#x201a;" horiz-adv-x="600" 
d="M123 -174q53 24 85.5 43.5t50.5 39.5q18 21 24 45t6 58h-176v369h372v-264q0 -87 -9 -152.5t-39 -118.5q-30 -52 -86 -94.5t-150 -83.5z" />
    <glyph glyph-name="quotedblleft" unicode="&#x201c;" horiz-adv-x="1087" 
d="M113 1079q0 93 9.5 158t39.5 114t85 88t146 79l74 -154q-51 -24 -83 -43t-49 -38q-18 -20 -24 -43t-6 -56h172v-361h-364v256zM612 1079q0 62 3.5 111t14.5 89t30 72.5t50 60.5q30 28 74 53.5t105 52.5l76 -154q-52 -24 -83.5 -43t-48.5 -38q-18 -20 -24 -43t-6 -56h170
v-361h-361v256z" />
    <glyph glyph-name="quotedblright" unicode="&#x201d;" horiz-adv-x="1087" 
d="M123 975q51 25 83 44.5t50 39.5q17 19 23 42.5t6 57.5h-172v359h364v-256q0 -93 -9.5 -158t-38.5 -114q-30 -49 -85 -88t-147 -79zM618 975q52 25 84 44.5t50 39.5q18 19 24 42.5t6 57.5h-170v359h361v-256q0 -93 -9.5 -158t-38.5 -114t-83.5 -88t-145.5 -79z" />
    <glyph glyph-name="quotedblbase" unicode="&#x201e;" horiz-adv-x="1087" 
d="M123 -170q51 24 83 43t50 38q17 20 23 43.5t6 57.5h-172v359h364v-254q0 -86 -9.5 -150.5t-38.5 -115.5q-30 -51 -85 -92.5t-147 -80.5zM618 -170q52 24 84 43t50 38q18 20 24 43.5t6 57.5h-170v359h361v-254q0 -86 -9.5 -150.5t-38.5 -115.5t-83.5 -92.5t-145.5 -80.5z
" />
    <glyph glyph-name="dagger" unicode="&#x2020;" horiz-adv-x="1225" 
d="M453 834h-357v288h357v467h317v-467h358v-288h-358v-1174h-317v1174z" />
    <glyph glyph-name="daggerdbl" unicode="&#x2021;" horiz-adv-x="1225" 
d="M453 145h-357v289h357v400h-357v288h357v467h317v-467h358v-288h-358v-400h358v-289h-358v-485h-317v485z" />
    <glyph glyph-name="bullet" unicode="&#x2022;" horiz-adv-x="795" 
d="M182 856h432v-467h-432v467z" />
    <glyph glyph-name="ellipsis" unicode="&#x2026;" horiz-adv-x="1726" 
d="M113 369h372v-369h-372v369zM676 369h373v-369h-373v369zM1239 369h373v-369h-373v369z" />
    <glyph glyph-name="perthousand" unicode="&#x2030;" horiz-adv-x="3598" 
d="M553 539q-119 0 -210 33.5t-152 97.5q-62 64 -93.5 157t-31.5 213q0 118 31.5 211t93.5 158q61 64 152 98.5t210 34.5q116 0 205.5 -34t151.5 -98q61 -65 92.5 -158.5t31.5 -211.5q0 -120 -31.5 -213t-92.5 -157q-62 -64 -151.5 -97.5t-205.5 -33.5v0zM553 778
q54 0 91.5 18.5t60.5 53.5q23 34 33 82t10 108q0 58 -10.5 105t-33.5 80t-60 51t-91 18t-92.5 -17.5t-62.5 -50.5t-35 -80t-11 -106q0 -60 10.5 -108t34.5 -82q24 -35 62.5 -53.5t93.5 -18.5v0zM2003 -18q-117 0 -207.5 33.5t-151.5 98.5q-61 64 -92.5 157.5t-31.5 213.5
q0 118 31.5 211t92.5 158q61 64 151.5 98.5t207.5 34.5t207 -34.5t152 -98.5q61 -65 92.5 -158t31.5 -211q0 -120 -31.5 -213.5t-92.5 -157.5q-62 -65 -152 -98.5t-207 -33.5v0zM2003 221q55 0 92.5 18.5t61.5 53.5q23 34 33 83t10 109q0 58 -10.5 104.5t-33.5 79.5
t-61 50.5t-92 17.5t-91.5 -17.5t-60.5 -49.5q-24 -33 -34.5 -80t-10.5 -105q0 -60 10.5 -109t33.5 -83q23 -35 61 -53.5t92 -18.5v0zM3049 -18q-117 0 -207.5 33.5t-151.5 98.5q-61 64 -92.5 157.5t-31.5 213.5q0 118 31.5 211t92.5 158q61 64 151.5 98.5t207.5 34.5
t207 -34.5t152 -98.5q61 -65 93 -158t32 -211q0 -120 -32 -213.5t-93 -157.5q-62 -65 -152 -98.5t-207 -33.5v0zM3049 221q55 0 92.5 18.5t60.5 53.5q23 34 33.5 83t10.5 109q0 58 -10.5 104.5t-33.5 79.5q-24 33 -61.5 50.5t-91.5 17.5t-91 -17.5t-60 -49.5
q-24 -33 -34.5 -80t-10.5 -105q0 -60 10 -109t34 -83q23 -35 60.5 -53.5t91.5 -18.5v0zM1550 1520h299l-850 -1520h-297z" />
    <glyph glyph-name="guilsinglleft" unicode="&#x2039;" horiz-adv-x="995" 
d="M170 578l309 581h289l-285 -581l285 -578h-289z" />
    <glyph glyph-name="guilsinglright" unicode="&#x203a;" horiz-adv-x="995" 
d="M512 580l-285 579h289l309 -579l-309 -580h-289z" />
    <glyph glyph-name="fraction" unicode="&#x2044;" horiz-adv-x="1133" 
 />
    <glyph glyph-name="fraction" unicode="&#x2215;" horiz-adv-x="1133" 
 />
    <glyph glyph-name="zero.superior" unicode="&#x2070;" horiz-adv-x="1225" 
d="M612 508q-120 0 -204.5 33t-137.5 98q-54 64 -79 160.5t-25 224.5q0 127 25 222.5t79 160.5q53 64 137.5 96.5t204.5 32.5q118 0 203 -32.5t139 -96.5q54 -65 79.5 -160.5t25.5 -222.5q0 -128 -25.5 -224.5t-79.5 -160.5q-54 -65 -139 -98t-203 -33v0zM612 717
q63 0 102.5 19.5t61.5 58.5q21 38 29 95.5t8 133.5q0 75 -8 130t-29 92q-22 37 -61.5 55t-102.5 18q-62 0 -101 -18t-61 -55t-30 -92t-8 -130q0 -76 8 -133.5t30 -95.5q22 -39 61 -58.5t101 -19.5v0z" />
    <glyph glyph-name="four.superior" unicode="&#x2074;" horiz-adv-x="1135" 
d="M127 885l434 633h264l-430 -623h236l45 252h188v-252h154v-195h-154v-180h-235v180h-502v185z" />
    <glyph glyph-name="five.superior" unicode="&#x2075;" horiz-adv-x="1104" 
d="M553 508q-73 0 -136 9t-116 24q-54 15 -97 34.5t-77 40.5l129 187q29 -16 61 -31.5t67 -27.5q34 -12 71.5 -19.5t79.5 -7.5q53 0 91 4.5t62 19.5t35.5 43t11.5 74q0 45 -11 72.5t-35 42.5t-61 20.5t-89 5.5q-28 0 -50.5 -1.5t-41.5 -4.5q-20 -4 -38 -10t-36 -14l-187 53
l27 496h684v-207h-479l-10 -146q38 14 88.5 21.5t109.5 7.5q72 0 139.5 -10.5t119.5 -45.5t83 -101.5t31 -178.5q0 -113 -30.5 -181.5t-85.5 -105.5q-56 -38 -134.5 -50.5t-175.5 -12.5v0z" />
    <glyph glyph-name="six.superior" unicode="&#x2076;" horiz-adv-x="1171" 
d="M612 508q-119 0 -204.5 28t-140.5 84t-81 140t-26 196q0 151 30 258t101 175q70 67 187.5 98t291.5 31h98v-207h-104q-114 0 -183.5 -15t-108.5 -41q-39 -27 -54 -63.5t-21 -79.5q35 45 103 65.5t184 20.5q97 0 164 -22t108 -65q40 -43 58 -105t18 -142q0 -84 -23 -150
t-73 -111q-51 -46 -130.5 -70.5t-193.5 -24.5v0zM612 696q58 0 93.5 11t54.5 32t25 51t6 68q0 36 -7 65.5t-26 50.5q-20 21 -54.5 32.5t-89.5 11.5q-102 0 -150 -36.5t-48 -115.5q0 -92 46.5 -131t149.5 -39v0z" />
    <glyph glyph-name="seven.superior" unicode="&#x2077;" horiz-adv-x="977" 
d="M596 1303h-502v215h766v-211l-336 -787h-266z" />
    <glyph glyph-name="eight.superior" unicode="&#x2078;" horiz-adv-x="1192" 
d="M594 506q-126 0 -211 24.5t-137 66.5q-52 41 -74 96.5t-22 117.5q0 44 6.5 84t24.5 74q17 34 47.5 60.5t78.5 43.5q-40 18 -64.5 40.5t-37.5 49.5q-14 26 -18.5 56.5t-4.5 64.5q0 51 17.5 97t64.5 82q46 35 125.5 56t204.5 21t205.5 -21.5t127.5 -56.5q46 -36 63.5 -82
t17.5 -96q0 -34 -4.5 -65t-17.5 -58q-14 -28 -39 -50.5t-66 -39.5q50 -16 81.5 -42.5t49.5 -60.5q17 -34 23.5 -74t6.5 -83q0 -62 -22.5 -117.5t-74.5 -96.5q-53 -42 -138.5 -66.5t-212.5 -24.5v0zM594 692q56 0 94.5 9.5t62.5 27.5q23 18 33.5 44t10.5 58q0 33 -10.5 59.5
t-33.5 45.5q-24 18 -62.5 27.5t-94.5 9.5t-93.5 -9.5t-60.5 -27.5q-23 -19 -33 -45.5t-10 -59.5q0 -32 10 -58t33 -44t60.5 -27.5t93.5 -9.5v0zM594 1139q52 0 86 7.5t54 21.5q19 14 26.5 34.5t7.5 46.5q0 25 -7.5 44.5t-26.5 33.5q-20 13 -54 20t-86 7t-85 -7t-52 -20
q-19 -14 -26 -33.5t-7 -44.5q0 -26 7 -46.5t26 -34.5t52 -21.5t85 -7.5v0z" />
    <glyph glyph-name="nine.superior" unicode="&#x2079;" horiz-adv-x="1171" 
d="M317 723h105q114 0 183 16.5t108 45.5q39 28 54.5 66t20.5 81q-35 -45 -103 -65.5t-183 -20.5q-98 0 -164.5 22t-106.5 65q-41 43 -59 105t-18 142q0 84 23 150t73 112q50 45 129.5 69.5t193.5 24.5q119 0 205 -28t141 -84q55 -57 81 -141t26 -196q0 -152 -30 -259.5
t-100 -175.5q-71 -69 -188.5 -100.5t-291.5 -31.5h-99v203zM571 1016q103 0 151 35.5t48 113.5q0 94 -46.5 133t-150.5 39q-58 0 -93 -11.5t-54 -32.5t-25 -50.5t-6 -66.5t7 -66.5t27 -50.5q19 -21 53.5 -32t88.5 -11v0z" />
    <glyph glyph-name="zero.inferior" unicode="&#x2080;" horiz-adv-x="1225" 
d="M612 -12q-120 0 -204.5 33t-137.5 98q-54 64 -79 160.5t-25 224.5q0 127 25 222.5t79 160.5q53 64 137.5 96.5t204.5 32.5q118 0 203 -32.5t139 -96.5q54 -65 79.5 -160.5t25.5 -222.5q0 -128 -25.5 -224.5t-79.5 -160.5q-54 -65 -139 -98t-203 -33v0zM612 197
q63 0 102.5 19.5t61.5 58.5q21 38 29 95.5t8 133.5q0 74 -8 129.5t-29 92.5q-22 36 -61.5 54.5t-102.5 18.5q-62 0 -101 -18.5t-61 -54.5q-22 -37 -30 -92.5t-8 -129.5q0 -76 8 -133.5t30 -95.5q22 -39 61 -58.5t101 -19.5v0z" />
    <glyph glyph-name="one.inferior" unicode="&#x2081;" horiz-adv-x="768" 
d="M295 782h-172v215h424v-997h-252v782z" />
    <glyph glyph-name="two.inferior" unicode="&#x2082;" horiz-adv-x="1051" 
d="M127 172l317 272q63 54 102 89t61 62q21 27 28.5 50.5t7.5 54.5q0 25 -7 44.5t-26 33.5q-19 13 -51 20t-82 7q-35 0 -71 -5t-69 -13q-34 -9 -64 -20.5t-52 -23.5l-110 187q40 21 80.5 36.5t87.5 26.5q47 10 103 15.5t128 5.5q91 0 161.5 -15.5t118.5 -49.5t72.5 -88
t24.5 -132q0 -59 -15 -106t-45 -91q-31 -44 -77.5 -89t-110.5 -99l-162 -145h418v-199h-768v172z" />
    <glyph glyph-name="three.inferior" unicode="&#x2083;" horiz-adv-x="1075" 
d="M522 -12q-74 0 -134.5 7t-111.5 21q-52 14 -97.5 35t-90.5 49l123 176q68 -40 135 -60.5t152 -20.5q51 0 86.5 5t57.5 19t32 39t10 64q0 34 -9 56t-32 35t-62 18t-98 5h-176v195h172q49 0 82.5 2.5t54.5 11.5t30 26t9 46q0 27 -8.5 43.5t-27.5 26.5q-20 9 -51 12.5
t-76 3.5q-85 0 -155.5 -20t-117.5 -48l-115 185q75 46 185.5 71t238.5 25q103 0 175 -15.5t117 -45.5q45 -31 65 -76.5t20 -104.5q0 -91 -31 -143.5t-96 -77.5q77 -23 115.5 -83t38.5 -177q0 -161 -102 -233t-308 -72v0z" />
    <glyph glyph-name="four.inferior" unicode="&#x2084;" horiz-adv-x="1135" 
d="M127 365l434 632h264l-430 -622h236l45 252h188v-252h154v-195h-154v-180h-235v180h-502v185z" />
    <glyph glyph-name="five.inferior" unicode="&#x2085;" horiz-adv-x="1104" 
d="M553 -12q-73 0 -136 9t-116 24q-54 15 -97 34.5t-77 40.5l129 187q29 -16 61 -31.5t67 -27.5q34 -12 71.5 -19.5t79.5 -7.5q53 0 91 4.5t62 19.5t35.5 43t11.5 74q0 45 -11 72.5t-35 42.5t-61 20.5t-89 5.5q-28 0 -50.5 -1.5t-41.5 -4.5q-20 -4 -38 -10t-36 -14l-187 53
l27 495h684v-206h-479l-10 -146q38 14 88.5 21.5t109.5 7.5q72 0 139.5 -10.5t119.5 -45.5t83 -101.5t31 -178.5q0 -113 -30.5 -181.5t-85.5 -105.5q-56 -38 -134.5 -50.5t-175.5 -12.5v0z" />
    <glyph glyph-name="six.inferior" unicode="&#x2086;" horiz-adv-x="1171" 
d="M612 -12q-119 0 -204.5 28t-140.5 84t-81 140t-26 196q0 151 30 258t101 174q70 67 187.5 98t291.5 31h98v-206h-104q-114 0 -183.5 -15t-108.5 -41q-39 -27 -54 -63.5t-21 -79.5q35 45 103 65.5t184 20.5q97 0 164 -22t108 -65q40 -43 58 -105t18 -142q0 -84 -23 -150
t-73 -111q-51 -46 -130.5 -70.5t-193.5 -24.5v0zM612 176q58 0 93.5 11t54.5 32t25 51t6 68q0 36 -7 65.5t-26 50.5q-20 21 -54.5 32.5t-89.5 11.5q-102 0 -150 -36.5t-48 -115.5q0 -92 46.5 -131t149.5 -39v0z" />
    <glyph glyph-name="seven.inferior" unicode="&#x2087;" horiz-adv-x="977" 
d="M596 782h-502v215h766v-211l-336 -786h-266z" />
    <glyph glyph-name="eight.inferior" unicode="&#x2088;" horiz-adv-x="1192" 
d="M594 -14q-126 0 -211 24.5t-137 66.5q-52 41 -74 96.5t-22 117.5q0 44 6.5 84t24.5 74q17 34 47.5 60.5t78.5 43.5q-40 18 -64.5 40.5t-37.5 49.5q-14 26 -18.5 56.5t-4.5 64.5q0 51 17.5 97t64.5 82q46 35 125.5 56t204.5 21t205.5 -21.5t127.5 -56.5q46 -36 63.5 -82
t17.5 -96q0 -34 -4.5 -65t-17.5 -58q-14 -28 -39 -50.5t-66 -39.5q50 -16 81.5 -42.5t49.5 -60.5q17 -34 23.5 -74t6.5 -83q0 -62 -22.5 -117.5t-74.5 -96.5q-53 -42 -138.5 -66.5t-212.5 -24.5v0zM594 172q56 0 94.5 9.5t62.5 27.5q23 18 33.5 44t10.5 58q0 33 -10.5 59.5
t-33.5 44.5q-24 18 -62.5 28t-94.5 10t-93.5 -10t-60.5 -28t-33 -44.5t-10 -59.5q0 -32 10 -58t33 -44t60.5 -27.5t93.5 -9.5v0zM594 618q52 0 86 7.5t54 21.5q19 14 26.5 35t7.5 47q0 25 -7.5 44.5t-26.5 33.5q-20 13 -54 20t-86 7t-85 -7t-52 -20q-19 -14 -26 -33.5
t-7 -44.5q0 -26 7 -47t26 -35t52 -21.5t85 -7.5v0z" />
    <glyph glyph-name="nine.inferior" unicode="&#x2089;" horiz-adv-x="1171" 
d="M317 203h105q114 0 183 16.5t108 45.5q39 28 54.5 66t20.5 81q-35 -45 -103 -65.5t-183 -20.5q-98 0 -164.5 22t-106.5 65q-41 42 -59 104t-18 142q0 84 23 150.5t73 112.5q50 45 129.5 69.5t193.5 24.5q119 0 205 -28t141 -84q55 -57 81 -141t26 -196q0 -152 -30 -259.5
t-100 -175.5q-71 -69 -188.5 -100.5t-291.5 -31.5h-99v203zM571 496q103 0 151 35.5t48 113.5q0 94 -46.5 133t-150.5 39q-58 0 -93 -11.5t-54 -32.5t-25 -51t-6 -67t7 -66.5t27 -49.5q19 -21 53.5 -32t88.5 -11v0z" />
    <glyph glyph-name="dong" unicode="&#x20ab;" horiz-adv-x="1395" 
 />
    <glyph glyph-name="Euro" unicode="&#x20ac;" horiz-adv-x="1470" 
d="M59 1030h254q45 256 193.5 384t417.5 128q87 0 151.5 -6t115.5 -17q50 -12 91.5 -28t83.5 -37l-141 -264q-56 29 -129.5 47t-163.5 18q-71 0 -123 -15.5t-88 -44.5q-37 -29 -60 -70.5t-36 -94.5h434v-223h-457v-39v-80h457v-225h-422q15 -51 39.5 -90.5t60.5 -66.5
q35 -27 82 -41.5t109 -14.5q74 0 150 16.5t149 61.5l149 -242q-45 -28 -93.5 -48.5t-103.5 -34.5q-56 -14 -121.5 -21t-146.5 -7q-131 0 -231.5 33.5t-172.5 96.5t-118.5 153.5t-69.5 204.5h-260v225h234v74v45h-234v223z" />
    <glyph glyph-name="afii61352" unicode="&#x2116;" horiz-adv-x="2933" 
d="M152 1518h362l698 -957v957h320v-1518h-307l-752 1024v-1024h-321v1518zM2206 565q-131 0 -223.5 32t-151.5 95q-60 62 -87.5 153t-27.5 210q0 118 27.5 209t87.5 153q59 61 151.5 93t223.5 32q130 0 222.5 -32t151.5 -93q59 -62 87 -153t28 -209q0 -119 -28 -210
t-87 -153q-59 -63 -151.5 -95t-222.5 -32v0zM2206 791q63 0 106 18t70 51q26 33 37.5 80.5t11.5 106.5t-11.5 106.5t-37.5 80.5q-27 33 -70 51t-106 18t-106 -18t-70 -51t-38.5 -80.5t-11.5 -106.5t11.5 -106.5t38.5 -80.5t70 -51t106 -18v0zM1776 463h860v-230h-860v230z
" />
    <glyph glyph-name="copyrightsound" unicode="&#x2117;" horiz-adv-x="1657" 
 />
    <glyph glyph-name="trademark" unicode="&#x2122;" horiz-adv-x="2279" 
d="M1026 1518h272l246 -635l248 635h272v-943h-235v547l-209 -547h-158l-209 547v-547h-227v943zM403 1305h-305v213h850v-213h-305v-730h-240v730z" />
    <glyph glyph-name="estimated" unicode="&#x212e;" horiz-adv-x="1343" 
 />
    <glyph glyph-name="partialdiff" unicode="&#x2202;" horiz-adv-x="1358" 
 />
    <glyph glyph-name="product" unicode="&#x220f;" horiz-adv-x="1618" 
 />
    <glyph glyph-name="summation" unicode="&#x2211;" horiz-adv-x="1356" 
 />
    <glyph glyph-name="minus" unicode="&#x2212;" horiz-adv-x="1479" 
 />
    <glyph glyph-name="radical" unicode="&#x221a;" horiz-adv-x="1415" 
 />
    <glyph glyph-name="infinity" unicode="&#x221e;" horiz-adv-x="1835" 
 />
    <glyph glyph-name="integral" unicode="&#x222b;" horiz-adv-x="909" 
 />
    <glyph glyph-name="approxequal" unicode="&#x2248;" horiz-adv-x="1479" 
 />
    <glyph glyph-name="notequal" unicode="&#x2260;" horiz-adv-x="1479" 
 />
    <glyph glyph-name="lessequal" unicode="&#x2264;" horiz-adv-x="1479" 
 />
    <glyph glyph-name="greaterequal" unicode="&#x2265;" horiz-adv-x="1479" 
 />
    <glyph glyph-name="lozenge" unicode="&#x25ca;" horiz-adv-x="1313" 
 />
    <glyph glyph-name="commaaccent" unicode="&#xf6c3;" horiz-adv-x="600" 
 />
    <glyph glyph-name="apple" unicode="&#xf8ff;" horiz-adv-x="1704" 
 />
    <glyph glyph-name="litre" horiz-adv-x="1102" 
 />
    <glyph glyph-name="a.alt" horiz-adv-x="1384" 
d="M575 -18q-149 0 -246 47.5t-154 129.5t-80 192t-23 235q0 83 10 159.5t33 143.5q23 66 61.5 120.5t95.5 93.5t134.5 60t179.5 21q79 0 141.5 -8t110.5 -23q47 -15 81.5 -37.5t57.5 -50.5l63 100l217 -18v-1135l-247 -22l-33 116q-26 -30 -60.5 -53.5t-82.5 -38.5
q-48 -16 -111.5 -24t-147.5 -8v0zM651 254q81 0 135 20.5t87 61.5t47 103.5t14 146.5q0 82 -12 141t-44 97q-32 37 -87 55t-140 18q-79 0 -128.5 -22.5t-77.5 -63.5q-28 -42 -38 -99t-10 -126q0 -70 10 -130.5t38 -105.5t77.5 -70.5t128.5 -25.5v0z" />
    <glyph glyph-name="g.alt" horiz-adv-x="1395" 
d="M666 -367q-168 0 -297 21t-226 59l101 256q86 -32 184.5 -50.5t194.5 -18.5q111 0 175 12.5t97 37.5q33 26 42 63.5t9 88.5v27q-37 -35 -77 -56.5t-86 -34.5t-99 -17.5t-115 -4.5q-131 0 -224.5 44t-154.5 122t-89.5 184.5t-28.5 231.5t25.5 232.5t85.5 186.5
q59 79 157.5 124t245.5 45q155 0 251 -29.5t150 -89.5l66 98l215 -18v-959q0 -85 -6 -159t-26 -136t-59.5 -110t-105.5 -82q-67 -33 -166 -50.5t-239 -17.5v0zM651 285q81 0 137 20t91 59t51 97t16 135q0 78 -14.5 134.5t-48.5 93.5t-90.5 55t-141.5 18q-77 0 -126 -22.5
t-77 -61.5q-29 -40 -40 -95.5t-11 -121.5q0 -65 10.5 -121.5t39.5 -98.5q28 -42 77 -66.5t127 -24.5v0z" />
    <glyph glyph-name="l.alt" horiz-adv-x="598" 
d="M139 1589h320v-1589h-320v1589z" />
    <glyph glyph-name="u.alt" horiz-adv-x="1358" 
d="M543 -23q-126 0 -207.5 34t-129.5 96t-66.5 150.5t-18.5 197.5v704h321v-649q0 -57 7 -103t29 -79q21 -33 62.5 -50.5t110.5 -17.5q84 0 134 19t77 54q26 34 34.5 82.5t8.5 106.5v637h324v-1147l-246 -22l-31 116q-55 -65 -161 -97t-248 -32v0z" />
    <glyph glyph-name="aacute.alt" horiz-adv-x="1384" 
d="M768 1645h387l-391 -375h-285zM575 -18q-149 0 -246 47.5t-154 129.5t-80 192t-23 235q0 83 10 159.5t33 143.5q23 66 61.5 120.5t95.5 93.5t134.5 60t179.5 21q79 0 141.5 -8t110.5 -23q47 -15 81.5 -37.5t57.5 -50.5l63 100l217 -18v-1135l-247 -22l-33 116
q-26 -30 -60.5 -53.5t-82.5 -38.5q-48 -16 -111.5 -24t-147.5 -8v0zM651 254q81 0 135 20.5t87 61.5t47 103.5t14 146.5q0 82 -12 141t-44 97q-32 37 -87 55t-140 18q-79 0 -128.5 -22.5t-77.5 -63.5q-28 -42 -38 -99t-10 -126q0 -70 10 -130.5t38 -105.5t77.5 -70.5
t128.5 -25.5v0z" />
    <glyph glyph-name="abreve.alt" horiz-adv-x="1384" 
d="M575 -18q-149 0 -246 47.5t-154 129.5t-80 192t-23 235q0 83 10 159.5t33 143.5q23 66 61.5 120.5t95.5 93.5t134.5 60t179.5 21q79 0 141.5 -8t110.5 -23q47 -15 81.5 -37.5t57.5 -50.5l63 100l217 -18v-1135l-247 -22l-33 116q-26 -30 -60.5 -53.5t-82.5 -38.5
q-48 -16 -111.5 -24t-147.5 -8v0zM651 254q81 0 135 20.5t87 61.5t47 103.5t14 146.5q0 82 -12 141t-44 97q-32 37 -87 55t-140 18q-79 0 -128.5 -22.5t-77.5 -63.5q-28 -42 -38 -99t-10 -126q0 -70 10 -130.5t38 -105.5t77.5 -70.5t128.5 -25.5v0zM690 1239q-114 0 -190 29
t-126 82q-50 52 -78 126t-46 164l231 43q12 -52 26.5 -89.5t37.5 -61.5t58 -35.5t87 -11.5t87 11.5t58 35.5t37.5 61.5t26.5 89.5l234 -41q-20 -91 -49 -165.5t-79 -126.5q-50 -53 -126 -82t-189 -29v0z" />
    </font>
</defs>
</svg>
